STARTFONT 2.1
FONT -wiktorb-leggie-Medium-R-Normal--24----C-120-ISO10646-1
SIZE 8 72 72
FONTBOUNDINGBOX 12 24 0 -4
STARTPROPERTIES 17
AVERAGE_WIDTH 120
CAP_HEIGHT 14
CHARSET_ENCODING "1"
CHARSET_REGISTRY "ISO10646"
COMMENT "Please visit https://wiktorb.eu/leggie"
COPYRIGHT "2012-2017 Wiktor W Brodlo. Released under SIL OFL"
DEFAULT_CHAR 65535
FAMILY_NAME "leggie"
FONT "leggie"
FONT_ASCENT 20
FONT_DESCENT 4
FOUNDRY "wiktorb"
PIXEL_SIZE 24
SETWIDTH_NAME "Normal"
SLANT "R"
SPACING "C"
WEIGHT_NAME "Medium"
X_HEIGHT 10
ENDPROPERTIES
CHARS 1763
STARTCHAR SPACE
ENCODING 32
SWIDTH 1500 0
DWIDTH 12 0
BBX 12 24 0 -4
BITMAP
0000
0000
0000
0000
0000
0000
0000
0000
0000
0000
0000
0000
0000
0000
0000
0000
0000
0000
0000
0000
0000
0000
0000
0000
ENDCHAR
STARTCHAR EXCLAMATION MARK
ENCODING 33
SWIDTH 1500 0
DWIDTH 12 0
BBX 12 24 0 -4
BITMAP
0000
0000
0000
0000
0000
0000
0600
0600
0600
0600
0600
0600
0600
0600
0600
0600
0000
0000
0600
0600
0000
0000
0000
0000
ENDCHAR
STARTCHAR QUOTATION MARK
ENCODING 34
SWIDTH 1500 0
DWIDTH 12 0
BBX 12 24 0 -4
BITMAP
0000
0000
0000
0000
1980
1980
1980
1980
1980
1980
0000
0000
0000
0000
0000
0000
0000
0000
0000
0000
0000
0000
0000
0000
ENDCHAR
STARTCHAR NUMBER SIGN
ENCODING 35
SWIDTH 1500 0
DWIDTH 12 0
BBX 12 24 0 -4
BITMAP
0000
0000
0000
0000
0000
0000
1980
1980
1980
1980
7FE0
7FE0
1980
1980
7FE0
7FE0
1980
1980
1980
1980
0000
0000
0000
0000
ENDCHAR
STARTCHAR DOLLAR SIGN
ENCODING 36
SWIDTH 1500 0
DWIDTH 12 0
BBX 12 24 0 -4
BITMAP
0000
0000
0000
0000
0300
0300
1FE0
3FE0
6000
6000
6000
6000
3F80
1FC0
0060
0060
0060
0060
7FC0
7F80
0C00
0C00
0000
0000
ENDCHAR
STARTCHAR PERCENT SIGN
ENCODING 37
SWIDTH 1500 0
DWIDTH 12 0
BBX 12 24 0 -4
BITMAP
0000
0000
0000
0000
0000
0000
1800
3C00
6660
66E0
3DC0
1B80
0700
0E00
1D80
3BC0
7660
6660
03C0
0180
0000
0000
0000
0000
ENDCHAR
STARTCHAR AMPERSAND
ENCODING 38
SWIDTH 1500 0
DWIDTH 12 0
BBX 12 24 0 -4
BITMAP
0000
0000
0000
0000
0000
0000
1E00
3F00
6180
6180
6180
6180
3F00
3E00
6060
60C0
6180
6380
3EC0
1C60
0000
0000
0000
0000
ENDCHAR
STARTCHAR APOSTROPHE
ENCODING 39
SWIDTH 1500 0
DWIDTH 12 0
BBX 12 24 0 -4
BITMAP
0000
0000
0000
0000
0600
0600
0600
0600
0600
0600
0000
0000
0000
0000
0000
0000
0000
0000
0000
0000
0000
0000
0000
0000
ENDCHAR
STARTCHAR LEFT PARENTHESIS
ENCODING 40
SWIDTH 1500 0
DWIDTH 12 0
BBX 12 24 0 -4
BITMAP
0000
0000
0180
0300
0600
0600
0600
0600
0600
0600
0600
0600
0600
0600
0600
0600
0600
0600
0600
0600
0600
0600
0300
0180
ENDCHAR
STARTCHAR RIGHT PARENTHESIS
ENCODING 41
SWIDTH 1500 0
DWIDTH 12 0
BBX 12 24 0 -4
BITMAP
0000
0000
1800
0C00
0600
0600
0600
0600
0600
0600
0600
0600
0600
0600
0600
0600
0600
0600
0600
0600
0600
0600
0C00
1800
ENDCHAR
STARTCHAR ASTERISK
ENCODING 42
SWIDTH 1500 0
DWIDTH 12 0
BBX 12 24 0 -4
BITMAP
0000
0000
0000
0000
0000
0000
0000
0000
30C0
1980
0F00
0600
7FE0
7FE0
0600
0F00
1980
30C0
0000
0000
0000
0000
0000
0000
ENDCHAR
STARTCHAR PLUS SIGN
ENCODING 43
SWIDTH 1500 0
DWIDTH 12 0
BBX 12 24 0 -4
BITMAP
0000
0000
0000
0000
0000
0000
0000
0000
0600
0600
0600
0600
7FE0
7FE0
0600
0600
0600
0600
0000
0000
0000
0000
0000
0000
ENDCHAR
STARTCHAR COMMA
ENCODING 44
SWIDTH 1500 0
DWIDTH 12 0
BBX 12 24 0 -4
BITMAP
0000
0000
0000
0000
0000
0000
0000
0000
0000
0000
0000
0000
0000
0000
0000
0000
0000
0000
0600
0600
0C00
1800
0000
0000
ENDCHAR
STARTCHAR HYPHEN-MINUS
ENCODING 45
SWIDTH 1500 0
DWIDTH 12 0
BBX 12 24 0 -4
BITMAP
0000
0000
0000
0000
0000
0000
0000
0000
0000
0000
0000
0000
7FE0
7FE0
0000
0000
0000
0000
0000
0000
0000
0000
0000
0000
ENDCHAR
STARTCHAR FULL STOP
ENCODING 46
SWIDTH 1500 0
DWIDTH 12 0
BBX 12 24 0 -4
BITMAP
0000
0000
0000
0000
0000
0000
0000
0000
0000
0000
0000
0000
0000
0000
0000
0000
0000
0000
0600
0600
0000
0000
0000
0000
ENDCHAR
STARTCHAR SOLIDUS
ENCODING 47
SWIDTH 1500 0
DWIDTH 12 0
BBX 12 24 0 -4
BITMAP
0000
0000
0000
0000
0060
0060
00C0
00C0
0180
0180
0300
0300
0600
0600
0C00
0C00
1800
1800
3000
3000
6000
6000
0000
0000
ENDCHAR
STARTCHAR DIGIT ZERO
ENCODING 48
SWIDTH 1500 0
DWIDTH 12 0
BBX 12 24 0 -4
BITMAP
0000
0000
0000
0000
0000
0000
1F80
3FC0
6060
6060
60E0
6160
6260
6460
6860
7060
6060
6060
3FC0
1F80
0000
0000
0000
0000
ENDCHAR
STARTCHAR DIGIT ONE
ENCODING 49
SWIDTH 1500 0
DWIDTH 12 0
BBX 12 24 0 -4
BITMAP
0000
0000
0000
0000
0000
0000
0080
0180
0380
0780
0D80
1980
0180
0180
0180
0180
0180
0180
0180
0180
0000
0000
0000
0000
ENDCHAR
STARTCHAR DIGIT TWO
ENCODING 50
SWIDTH 1500 0
DWIDTH 12 0
BBX 12 24 0 -4
BITMAP
0000
0000
0000
0000
0000
0000
7F80
7FC0
0060
0060
0060
0060
00C0
0180
0300
0600
0C00
1800
3FE0
7FE0
0000
0000
0000
0000
ENDCHAR
STARTCHAR DIGIT THREE
ENCODING 51
SWIDTH 1500 0
DWIDTH 12 0
BBX 12 24 0 -4
BITMAP
0000
0000
0000
0000
0000
0000
7F80
7FC0
0060
0060
0060
0060
07C0
07C0
0060
0060
0060
0060
7FC0
7F80
0000
0000
0000
0000
ENDCHAR
STARTCHAR DIGIT FOUR
ENCODING 52
SWIDTH 1500 0
DWIDTH 12 0
BBX 12 24 0 -4
BITMAP
0000
0000
0000
0000
0000
0000
0020
0060
00E0
01E0
0360
0660
0C60
1860
3FE0
7FE0
0060
0060
0060
0060
0000
0000
0000
0000
ENDCHAR
STARTCHAR DIGIT FIVE
ENCODING 53
SWIDTH 1500 0
DWIDTH 12 0
BBX 12 24 0 -4
BITMAP
0000
0000
0000
0000
0000
0000
7FE0
7FE0
6000
6000
7F80
7FC0
0060
0060
0060
0060
0060
0060
7FC0
7F80
0000
0000
0000
0000
ENDCHAR
STARTCHAR DIGIT SIX
ENCODING 54
SWIDTH 1500 0
DWIDTH 12 0
BBX 12 24 0 -4
BITMAP
0000
0000
0000
0000
0000
0000
1F80
3F80
6000
6000
7F80
7FC0
6060
6060
6060
6060
6060
6060
3FC0
1F80
0000
0000
0000
0000
ENDCHAR
STARTCHAR DIGIT SEVEN
ENCODING 55
SWIDTH 1500 0
DWIDTH 12 0
BBX 12 24 0 -4
BITMAP
0000
0000
0000
0000
0000
0000
7FE0
7FE0
0060
0060
0060
00C0
0180
0300
0600
0600
0600
0600
0600
0600
0000
0000
0000
0000
ENDCHAR
STARTCHAR DIGIT EIGHT
ENCODING 56
SWIDTH 1500 0
DWIDTH 12 0
BBX 12 24 0 -4
BITMAP
0000
0000
0000
0000
0000
0000
1F80
3FC0
6060
6060
6060
6060
3FC0
3FC0
6060
6060
6060
6060
3FC0
1F80
0000
0000
0000
0000
ENDCHAR
STARTCHAR DIGIT NINE
ENCODING 57
SWIDTH 1500 0
DWIDTH 12 0
BBX 12 24 0 -4
BITMAP
0000
0000
0000
0000
0000
0000
1F80
3FC0
6060
6060
6060
6060
6060
6060
3FE0
1FE0
0060
0060
1FC0
1F80
0000
0000
0000
0000
ENDCHAR
STARTCHAR COLON
ENCODING 58
SWIDTH 1500 0
DWIDTH 12 0
BBX 12 24 0 -4
BITMAP
0000
0000
0000
0000
0000
0000
0000
0000
0000
0000
0600
0600
0000
0000
0000
0000
0000
0000
0600
0600
0000
0000
0000
0000
ENDCHAR
STARTCHAR SEMICOLON
ENCODING 59
SWIDTH 1500 0
DWIDTH 12 0
BBX 12 24 0 -4
BITMAP
0000
0000
0000
0000
0000
0000
0000
0000
0000
0000
0600
0600
0000
0000
0000
0000
0000
0000
0600
0600
0C00
1800
0000
0000
ENDCHAR
STARTCHAR LESS-THAN SIGN
ENCODING 60
SWIDTH 1500 0
DWIDTH 12 0
BBX 12 24 0 -4
BITMAP
0000
0000
0000
0000
0060
00C0
0180
0300
0600
0C00
1800
3000
6000
6000
3000
1800
0C00
0600
0300
0180
00C0
0060
0000
0000
ENDCHAR
STARTCHAR EQUALS SIGN
ENCODING 61
SWIDTH 1500 0
DWIDTH 12 0
BBX 12 24 0 -4
BITMAP
0000
0000
0000
0000
0000
0000
0000
0000
0000
0000
7FE0
7FE0
0000
0000
7FE0
7FE0
0000
0000
0000
0000
0000
0000
0000
0000
ENDCHAR
STARTCHAR GREATER-THAN SIGN
ENCODING 62
SWIDTH 1500 0
DWIDTH 12 0
BBX 12 24 0 -4
BITMAP
0000
0000
0000
0000
6000
3000
1800
0C00
0600
0300
0180
00C0
0060
0060
00C0
0180
0300
0600
0C00
1800
3000
6000
0000
0000
ENDCHAR
STARTCHAR QUESTION MARK
ENCODING 63
SWIDTH 1500 0
DWIDTH 12 0
BBX 12 24 0 -4
BITMAP
0000
0000
0000
0000
0000
0000
7F80
7FC0
0060
0060
0060
00C0
0180
0300
0600
0600
0000
0000
0600
0600
0000
0000
0000
0000
ENDCHAR
STARTCHAR COMMERCIAL AT
ENCODING 64
SWIDTH 1500 0
DWIDTH 12 0
BBX 12 24 0 -4
BITMAP
0000
0000
0000
0000
0000
0000
0F00
1F80
30C0
6060
63E0
67E0
6C60
6C60
6C60
6C60
67C0
6380
6000
3000
1F80
0F80
0000
0000
ENDCHAR
STARTCHAR LATIN CAPITAL LETTER A
ENCODING 65
SWIDTH 1500 0
DWIDTH 12 0
BBX 12 24 0 -4
BITMAP
0000
0000
0000
0000
0000
0000
1F80
3FC0
6060
6060
6060
6060
6060
6060
7FE0
7FE0
6060
6060
6060
6060
0000
0000
0000
0000
ENDCHAR
STARTCHAR LATIN CAPITAL LETTER B
ENCODING 66
SWIDTH 1500 0
DWIDTH 12 0
BBX 12 24 0 -4
BITMAP
0000
0000
0000
0000
0000
0000
7F80
7FC0
6060
6060
6060
6060
7FC0
7FC0
6060
6060
6060
6060
7FC0
7F80
0000
0000
0000
0000
ENDCHAR
STARTCHAR LATIN CAPITAL LETTER C
ENCODING 67
SWIDTH 1500 0
DWIDTH 12 0
BBX 12 24 0 -4
BITMAP
0000
0000
0000
0000
0000
0000
1FE0
3FE0
6000
6000
6000
6000
6000
6000
6000
6000
6000
6000
3FE0
1FE0
0000
0000
0000
0000
ENDCHAR
STARTCHAR LATIN CAPITAL LETTER D
ENCODING 68
SWIDTH 1500 0
DWIDTH 12 0
BBX 12 24 0 -4
BITMAP
0000
0000
0000
0000
0000
0000
7F80
7FC0
6060
6060
6060
6060
6060
6060
6060
6060
6060
6060
7FC0
7F80
0000
0000
0000
0000
ENDCHAR
STARTCHAR LATIN CAPITAL LETTER E
ENCODING 69
SWIDTH 1500 0
DWIDTH 12 0
BBX 12 24 0 -4
BITMAP
0000
0000
0000
0000
0000
0000
7FE0
7FE0
6000
6000
6000
6000
7E00
7E00
6000
6000
6000
6000
7FE0
7FE0
0000
0000
0000
0000
ENDCHAR
STARTCHAR LATIN CAPITAL LETTER F
ENCODING 70
SWIDTH 1500 0
DWIDTH 12 0
BBX 12 24 0 -4
BITMAP
0000
0000
0000
0000
0000
0000
7FE0
7FE0
6000
6000
6000
6000
7E00
7E00
6000
6000
6000
6000
6000
6000
0000
0000
0000
0000
ENDCHAR
STARTCHAR LATIN CAPITAL LETTER G
ENCODING 71
SWIDTH 1500 0
DWIDTH 12 0
BBX 12 24 0 -4
BITMAP
0000
0000
0000
0000
0000
0000
1FE0
3FE0
6000
6000
6000
6000
61E0
61E0
6060
6060
6060
6060
3FE0
1FE0
0000
0000
0000
0000
ENDCHAR
STARTCHAR LATIN CAPITAL LETTER H
ENCODING 72
SWIDTH 1500 0
DWIDTH 12 0
BBX 12 24 0 -4
BITMAP
0000
0000
0000
0000
0000
0000
6060
6060
6060
6060
6060
6060
7FE0
7FE0
6060
6060
6060
6060
6060
6060
0000
0000
0000
0000
ENDCHAR
STARTCHAR LATIN CAPITAL LETTER I
ENCODING 73
SWIDTH 1500 0
DWIDTH 12 0
BBX 12 24 0 -4
BITMAP
0000
0000
0000
0000
0000
0000
0F00
0F00
0600
0600
0600
0600
0600
0600
0600
0600
0600
0600
0F00
0F00
0000
0000
0000
0000
ENDCHAR
STARTCHAR LATIN CAPITAL LETTER J
ENCODING 74
SWIDTH 1500 0
DWIDTH 12 0
BBX 12 24 0 -4
BITMAP
0000
0000
0000
0000
0000
0000
0060
0060
0060
0060
0060
0060
0060
0060
0060
0060
0060
6060
3FC0
1F80
0000
0000
0000
0000
ENDCHAR
STARTCHAR LATIN CAPITAL LETTER K
ENCODING 75
SWIDTH 1500 0
DWIDTH 12 0
BBX 12 24 0 -4
BITMAP
0000
0000
0000
0000
0000
0000
6060
60C0
6180
6300
6600
6C00
7800
7800
6C00
6600
6300
6180
60C0
6060
0000
0000
0000
0000
ENDCHAR
STARTCHAR LATIN CAPITAL LETTER L
ENCODING 76
SWIDTH 1500 0
DWIDTH 12 0
BBX 12 24 0 -4
BITMAP
0000
0000
0000
0000
0000
0000
6000
6000
6000
6000
6000
6000
6000
6000
6000
6000
6000
6000
7FE0
7FE0
0000
0000
0000
0000
ENDCHAR
STARTCHAR LATIN CAPITAL LETTER M
ENCODING 77
SWIDTH 1500 0
DWIDTH 12 0
BBX 12 24 0 -4
BITMAP
0000
0000
0000
0000
0000
0000
4020
6060
70E0
79E0
6F60
6660
6060
6060
6060
6060
6060
6060
6060
6060
0000
0000
0000
0000
ENDCHAR
STARTCHAR LATIN CAPITAL LETTER N
ENCODING 78
SWIDTH 1500 0
DWIDTH 12 0
BBX 12 24 0 -4
BITMAP
0000
0000
0000
0000
0000
0000
6060
6060
6060
7060
7860
6C60
6660
6360
61E0
60E0
6060
6060
6060
6060
0000
0000
0000
0000
ENDCHAR
STARTCHAR LATIN CAPITAL LETTER O
ENCODING 79
SWIDTH 1500 0
DWIDTH 12 0
BBX 12 24 0 -4
BITMAP
0000
0000
0000
0000
0000
0000
1F80
3FC0
6060
6060
6060
6060
6060
6060
6060
6060
6060
6060
3FC0
1F80
0000
0000
0000
0000
ENDCHAR
STARTCHAR LATIN CAPITAL LETTER P
ENCODING 80
SWIDTH 1500 0
DWIDTH 12 0
BBX 12 24 0 -4
BITMAP
0000
0000
0000
0000
0000
0000
7F80
7FC0
6060
6060
6060
6060
6060
6060
7FC0
7F80
6000
6000
6000
6000
0000
0000
0000
0000
ENDCHAR
STARTCHAR LATIN CAPITAL LETTER Q
ENCODING 81
SWIDTH 1500 0
DWIDTH 12 0
BBX 12 24 0 -4
BITMAP
0000
0000
0000
0000
0000
0000
1F80
3FC0
6060
6060
6060
6060
6060
6060
6060
6060
6360
61A0
3EC0
1F60
0000
0000
0000
0000
ENDCHAR
STARTCHAR LATIN CAPITAL LETTER R
ENCODING 82
SWIDTH 1500 0
DWIDTH 12 0
BBX 12 24 0 -4
BITMAP
0000
0000
0000
0000
0000
0000
7F80
7FC0
6060
6060
6060
6060
6060
6060
7FC0
7F80
6300
6180
60C0
6060
0000
0000
0000
0000
ENDCHAR
STARTCHAR LATIN CAPITAL LETTER S
ENCODING 83
SWIDTH 1500 0
DWIDTH 12 0
BBX 12 24 0 -4
BITMAP
0000
0000
0000
0000
0000
0000
1FE0
3FE0
6000
6000
6000
6000
3F80
1FC0
0060
0060
0060
0060
7FC0
7F80
0000
0000
0000
0000
ENDCHAR
STARTCHAR LATIN CAPITAL LETTER T
ENCODING 84
SWIDTH 1500 0
DWIDTH 12 0
BBX 12 24 0 -4
BITMAP
0000
0000
0000
0000
0000
0000
7FE0
7FE0
0600
0600
0600
0600
0600
0600
0600
0600
0600
0600
0600
0600
0000
0000
0000
0000
ENDCHAR
STARTCHAR LATIN CAPITAL LETTER U
ENCODING 85
SWIDTH 1500 0
DWIDTH 12 0
BBX 12 24 0 -4
BITMAP
0000
0000
0000
0000
0000
0000
6060
6060
6060
6060
6060
6060
6060
6060
6060
6060
6060
6060
3FC0
1F80
0000
0000
0000
0000
ENDCHAR
STARTCHAR LATIN CAPITAL LETTER V
ENCODING 86
SWIDTH 1500 0
DWIDTH 12 0
BBX 12 24 0 -4
BITMAP
0000
0000
0000
0000
0000
0000
6060
6060
6060
6060
30C0
30C0
30C0
1980
1980
1980
0F00
0F00
0600
0600
0000
0000
0000
0000
ENDCHAR
STARTCHAR LATIN CAPITAL LETTER W
ENCODING 87
SWIDTH 1500 0
DWIDTH 12 0
BBX 12 24 0 -4
BITMAP
0000
0000
0000
0000
0000
0000
6060
6060
6060
6060
6060
6060
6060
6060
6660
6F60
79E0
70E0
6060
4020
0000
0000
0000
0000
ENDCHAR
STARTCHAR LATIN CAPITAL LETTER X
ENCODING 88
SWIDTH 1500 0
DWIDTH 12 0
BBX 12 24 0 -4
BITMAP
0000
0000
0000
0000
0000
0000
6060
6060
6060
30C0
1980
0F00
0600
0600
0F00
1980
30C0
6060
6060
6060
0000
0000
0000
0000
ENDCHAR
STARTCHAR LATIN CAPITAL LETTER Y
ENCODING 89
SWIDTH 1500 0
DWIDTH 12 0
BBX 12 24 0 -4
BITMAP
0000
0000
0000
0000
0000
0000
6060
6060
6060
6060
30C0
1980
0F00
0600
0600
0600
0600
0600
0600
0600
0000
0000
0000
0000
ENDCHAR
STARTCHAR LATIN CAPITAL LETTER Z
ENCODING 90
SWIDTH 1500 0
DWIDTH 12 0
BBX 12 24 0 -4
BITMAP
0000
0000
0000
0000
0000
0000
7FE0
7FE0
0060
00C0
0180
0300
0600
0C00
1800
3000
6000
6000
7FE0
7FE0
0000
0000
0000
0000
ENDCHAR
STARTCHAR LEFT SQUARE BRACKET
ENCODING 91
SWIDTH 1500 0
DWIDTH 12 0
BBX 12 24 0 -4
BITMAP
0000
0000
0780
0780
0600
0600
0600
0600
0600
0600
0600
0600
0600
0600
0600
0600
0600
0600
0600
0600
0600
0600
0780
0780
ENDCHAR
STARTCHAR REVERSE SOLIDUS
ENCODING 92
SWIDTH 1500 0
DWIDTH 12 0
BBX 12 24 0 -4
BITMAP
0000
0000
0000
0000
6000
6000
3000
3000
1800
1800
0C00
0C00
0600
0600
0300
0300
0180
0180
00C0
00C0
0060
0060
0000
0000
ENDCHAR
STARTCHAR RIGHT SQUARE BRACKET
ENCODING 93
SWIDTH 1500 0
DWIDTH 12 0
BBX 12 24 0 -4
BITMAP
0000
0000
1E00
1E00
0600
0600
0600
0600
0600
0600
0600
0600
0600
0600
0600
0600
0600
0600
0600
0600
0600
0600
1E00
1E00
ENDCHAR
STARTCHAR CIRCUMFLEX ACCENT
ENCODING 94
SWIDTH 1500 0
DWIDTH 12 0
BBX 12 24 0 -4
BITMAP
0000
0000
0000
0000
0600
0F00
1980
30C0
6060
0000
0000
0000
0000
0000
0000
0000
0000
0000
0000
0000
0000
0000
0000
0000
ENDCHAR
STARTCHAR LOW LINE
ENCODING 95
SWIDTH 1500 0
DWIDTH 12 0
BBX 12 24 0 -4
BITMAP
0000
0000
0000
0000
0000
0000
0000
0000
0000
0000
0000
0000
0000
0000
0000
0000
0000
0000
0000
0000
7FE0
7FE0
0000
0000
ENDCHAR
STARTCHAR GRAVE ACCENT
ENCODING 96
SWIDTH 1500 0
DWIDTH 12 0
BBX 12 24 0 -4
BITMAP
0000
0000
0000
0000
1800
0C00
0600
0300
0180
0000
0000
0000
0000
0000
0000
0000
0000
0000
0000
0000
0000
0000
0000
0000
ENDCHAR
STARTCHAR LATIN SMALL LETTER A
ENCODING 97
SWIDTH 1500 0
DWIDTH 12 0
BBX 12 24 0 -4
BITMAP
0000
0000
0000
0000
0000
0000
0000
0000
0000
0000
1F80
1FC0
0060
0060
1FE0
3FE0
6060
6060
3FE0
1FE0
0000
0000
0000
0000
ENDCHAR
STARTCHAR LATIN SMALL LETTER B
ENCODING 98
SWIDTH 1500 0
DWIDTH 12 0
BBX 12 24 0 -4
BITMAP
0000
0000
0000
0000
6000
6000
6000
6000
6000
6000
7F80
7FC0
6060
6060
6060
6060
6060
6060
7FC0
7F80
0000
0000
0000
0000
ENDCHAR
STARTCHAR LATIN SMALL LETTER C
ENCODING 99
SWIDTH 1500 0
DWIDTH 12 0
BBX 12 24 0 -4
BITMAP
0000
0000
0000
0000
0000
0000
0000
0000
0000
0000
1FE0
3FE0
6000
6000
6000
6000
6000
6000
3FE0
1FE0
0000
0000
0000
0000
ENDCHAR
STARTCHAR LATIN SMALL LETTER D
ENCODING 100
SWIDTH 1500 0
DWIDTH 12 0
BBX 12 24 0 -4
BITMAP
0000
0000
0000
0000
0060
0060
0060
0060
0060
0060
1FE0
3FE0
6060
6060
6060
6060
6060
6060
3FE0
1FE0
0000
0000
0000
0000
ENDCHAR
STARTCHAR LATIN SMALL LETTER E
ENCODING 101
SWIDTH 1500 0
DWIDTH 12 0
BBX 12 24 0 -4
BITMAP
0000
0000
0000
0000
0000
0000
0000
0000
0000
0000
1F80
3FC0
6060
6060
7FE0
7FE0
6000
6000
3F80
1F80
0000
0000
0000
0000
ENDCHAR
STARTCHAR LATIN SMALL LETTER F
ENCODING 102
SWIDTH 1500 0
DWIDTH 12 0
BBX 12 24 0 -4
BITMAP
0000
0000
0000
0000
0780
0F80
1800
1800
1800
1800
1E00
1E00
1800
1800
1800
1800
1800
1800
1800
1800
0000
0000
0000
0000
ENDCHAR
STARTCHAR LATIN SMALL LETTER G
ENCODING 103
SWIDTH 1500 0
DWIDTH 12 0
BBX 12 24 0 -4
BITMAP
0000
0000
0000
0000
0000
0000
0000
0000
0000
0000
1FE0
3FE0
6060
6060
6060
6060
6060
6060
3FE0
1FE0
0060
0060
0FC0
0F80
ENDCHAR
STARTCHAR LATIN SMALL LETTER H
ENCODING 104
SWIDTH 1500 0
DWIDTH 12 0
BBX 12 24 0 -4
BITMAP
0000
0000
0000
0000
6000
6000
6000
6000
6000
6000
7F80
7FC0
6060
6060
6060
6060
6060
6060
6060
6060
0000
0000
0000
0000
ENDCHAR
STARTCHAR LATIN SMALL LETTER I
ENCODING 105
SWIDTH 1500 0
DWIDTH 12 0
BBX 12 24 0 -4
BITMAP
0000
0000
0000
0000
0000
0000
0600
0600
0000
0000
0E00
0E00
0600
0600
0600
0600
0600
0600
0600
0600
0000
0000
0000
0000
ENDCHAR
STARTCHAR LATIN SMALL LETTER J
ENCODING 106
SWIDTH 1500 0
DWIDTH 12 0
BBX 12 24 0 -4
BITMAP
0000
0000
0000
0000
0000
0000
0600
0600
0000
0000
0E00
0E00
0600
0600
0600
0600
0600
0600
0600
0600
0600
0600
0C00
1800
ENDCHAR
STARTCHAR LATIN SMALL LETTER K
ENCODING 107
SWIDTH 1500 0
DWIDTH 12 0
BBX 12 24 0 -4
BITMAP
0000
0000
0000
0000
3000
3000
3000
3000
3000
3000
30C0
3180
3300
3600
3C00
3C00
3600
3300
3180
30C0
0000
0000
0000
0000
ENDCHAR
STARTCHAR LATIN SMALL LETTER L
ENCODING 108
SWIDTH 1500 0
DWIDTH 12 0
BBX 12 24 0 -4
BITMAP
0000
0000
0000
0000
1800
1800
1800
1800
1800
1800
1800
1800
1800
1800
1800
1800
1800
1800
0F80
0780
0000
0000
0000
0000
ENDCHAR
STARTCHAR LATIN SMALL LETTER M
ENCODING 109
SWIDTH 1500 0
DWIDTH 12 0
BBX 12 24 0 -4
BITMAP
0000
0000
0000
0000
0000
0000
0000
0000
0000
0000
7980
7FC0
6660
6660
6660
6660
6660
6660
6060
6060
0000
0000
0000
0000
ENDCHAR
STARTCHAR LATIN SMALL LETTER N
ENCODING 110
SWIDTH 1500 0
DWIDTH 12 0
BBX 12 24 0 -4
BITMAP
0000
0000
0000
0000
0000
0000
0000
0000
0000
0000
7F80
7FC0
6060
6060
6060
6060
6060
6060
6060
6060
0000
0000
0000
0000
ENDCHAR
STARTCHAR LATIN SMALL LETTER O
ENCODING 111
SWIDTH 1500 0
DWIDTH 12 0
BBX 12 24 0 -4
BITMAP
0000
0000
0000
0000
0000
0000
0000
0000
0000
0000
1F80
3FC0
6060
6060
6060
6060
6060
6060
3FC0
1F80
0000
0000
0000
0000
ENDCHAR
STARTCHAR LATIN SMALL LETTER P
ENCODING 112
SWIDTH 1500 0
DWIDTH 12 0
BBX 12 24 0 -4
BITMAP
0000
0000
0000
0000
0000
0000
0000
0000
0000
0000
7F80
7FC0
6060
6060
6060
6060
6060
6060
7FC0
7F80
6000
6000
6000
6000
ENDCHAR
STARTCHAR LATIN SMALL LETTER Q
ENCODING 113
SWIDTH 1500 0
DWIDTH 12 0
BBX 12 24 0 -4
BITMAP
0000
0000
0000
0000
0000
0000
0000
0000
0000
0000
1FE0
3FE0
6060
6060
6060
6060
6060
6060
3FE0
1FE0
0060
0060
0060
0060
ENDCHAR
STARTCHAR LATIN SMALL LETTER R
ENCODING 114
SWIDTH 1500 0
DWIDTH 12 0
BBX 12 24 0 -4
BITMAP
0000
0000
0000
0000
0000
0000
0000
0000
0000
0000
67E0
6FE0
7800
7000
6000
6000
6000
6000
6000
6000
0000
0000
0000
0000
ENDCHAR
STARTCHAR LATIN SMALL LETTER S
ENCODING 115
SWIDTH 1500 0
DWIDTH 12 0
BBX 12 24 0 -4
BITMAP
0000
0000
0000
0000
0000
0000
0000
0000
0000
0000
1FE0
3FE0
6000
6000
3F80
1FC0
0060
0060
7FC0
7F80
0000
0000
0000
0000
ENDCHAR
STARTCHAR LATIN SMALL LETTER T
ENCODING 116
SWIDTH 1500 0
DWIDTH 12 0
BBX 12 24 0 -4
BITMAP
0000
0000
0000
0000
0C00
0C00
0C00
0C00
0C00
0C00
3F00
3F00
0C00
0C00
0C00
0C00
0C00
0C00
07C0
03C0
0000
0000
0000
0000
ENDCHAR
STARTCHAR LATIN SMALL LETTER U
ENCODING 117
SWIDTH 1500 0
DWIDTH 12 0
BBX 12 24 0 -4
BITMAP
0000
0000
0000
0000
0000
0000
0000
0000
0000
0000
6060
6060
6060
6060
6060
6060
6060
6060
3FE0
1FE0
0000
0000
0000
0000
ENDCHAR
STARTCHAR LATIN SMALL LETTER V
ENCODING 118
SWIDTH 1500 0
DWIDTH 12 0
BBX 12 24 0 -4
BITMAP
0000
0000
0000
0000
0000
0000
0000
0000
0000
0000
6060
6060
6060
30C0
30C0
1980
1980
0F00
0F00
0600
0000
0000
0000
0000
ENDCHAR
STARTCHAR LATIN SMALL LETTER W
ENCODING 119
SWIDTH 1500 0
DWIDTH 12 0
BBX 12 24 0 -4
BITMAP
0000
0000
0000
0000
0000
0000
0000
0000
0000
0000
6060
6060
6060
6060
6660
6F60
79E0
70E0
6060
4020
0000
0000
0000
0000
ENDCHAR
STARTCHAR LATIN SMALL LETTER X
ENCODING 120
SWIDTH 1500 0
DWIDTH 12 0
BBX 12 24 0 -4
BITMAP
0000
0000
0000
0000
0000
0000
0000
0000
0000
0000
6060
30C0
1980
0F00
0600
0600
0F00
1980
30C0
6060
0000
0000
0000
0000
ENDCHAR
STARTCHAR LATIN SMALL LETTER Y
ENCODING 121
SWIDTH 1500 0
DWIDTH 12 0
BBX 12 24 0 -4
BITMAP
0000
0000
0000
0000
0000
0000
0000
0000
0000
0000
6060
6060
6060
6060
6060
6060
6060
6060
3FE0
1FE0
0060
0060
0FC0
0F80
ENDCHAR
STARTCHAR LATIN SMALL LETTER Z
ENCODING 122
SWIDTH 1500 0
DWIDTH 12 0
BBX 12 24 0 -4
BITMAP
0000
0000
0000
0000
0000
0000
0000
0000
0000
0000
7FE0
7FC0
0180
0300
0600
0C00
1800
3000
7FE0
7FE0
0000
0000
0000
0000
ENDCHAR
STARTCHAR LEFT CURLY BRACKET
ENCODING 123
SWIDTH 1500 0
DWIDTH 12 0
BBX 12 24 0 -4
BITMAP
0000
0000
0180
0300
0600
0600
0600
0600
0600
0600
0600
0600
1C00
1C00
0600
0600
0600
0600
0600
0600
0600
0600
0300
0180
ENDCHAR
STARTCHAR VERTICAL LINE
ENCODING 124
SWIDTH 1500 0
DWIDTH 12 0
BBX 12 24 0 -4
BITMAP
0600
0600
0600
0600
0600
0600
0600
0600
0600
0600
0600
0600
0600
0600
0600
0600
0600
0600
0600
0600
0600
0600
0600
0600
ENDCHAR
STARTCHAR RIGHT CURLY BRACKET
ENCODING 125
SWIDTH 1500 0
DWIDTH 12 0
BBX 12 24 0 -4
BITMAP
0000
0000
1800
0C00
0600
0600
0600
0600
0600
0600
0600
0600
0380
0380
0600
0600
0600
0600
0600
0600
0600
0600
0C00
1800
ENDCHAR
STARTCHAR TILDE
ENCODING 126
SWIDTH 1500 0
DWIDTH 12 0
BBX 12 24 0 -4
BITMAP
0000
0000
0000
0000
0000
0000
0000
0000
0000
0000
0000
0000
1C60
3E60
67C0
6380
0000
0000
0000
0000
0000
0000
0000
0000
ENDCHAR
STARTCHAR NO-BREAK SPACE
ENCODING 160
SWIDTH 1500 0
DWIDTH 12 0
BBX 12 24 0 -4
BITMAP
0000
0000
0000
0000
0000
0000
0000
0000
0000
0000
0000
0000
0000
0000
0000
0000
0000
0000
0000
0000
0000
0000
0000
0000
ENDCHAR
STARTCHAR INVERTED EXCLAMATION MARK
ENCODING 161
SWIDTH 1500 0
DWIDTH 12 0
BBX 12 24 0 -4
BITMAP
0000
0000
0000
0000
0000
0000
0000
0000
0000
0000
0600
0600
0000
0000
0600
0600
0600
0600
0600
0600
0600
0600
0600
0600
ENDCHAR
STARTCHAR CENT SIGN
ENCODING 162
SWIDTH 1500 0
DWIDTH 12 0
BBX 12 24 0 -4
BITMAP
0000
0000
0000
0000
0000
0000
0000
0000
0180
0180
1FE0
3FE0
6000
6000
6000
6000
6000
6000
3FE0
1FE0
0600
0600
0000
0000
ENDCHAR
STARTCHAR POUND SIGN
ENCODING 163
SWIDTH 1500 0
DWIDTH 12 0
BBX 12 24 0 -4
BITMAP
0000
0000
0000
0000
0000
0000
07C0
0FC0
1800
1800
1800
1800
7E00
7E00
1800
1800
1800
1800
7FE0
7FE0
0000
0000
0000
0000
ENDCHAR
STARTCHAR CURRENCY SIGN
ENCODING 164
SWIDTH 1500 0
DWIDTH 12 0
BBX 12 24 0 -4
BITMAP
0000
0000
0000
0000
0000
0000
0000
0000
6060
30C0
2F40
1F80
1980
1980
1F80
2F40
30C0
6060
0000
0000
0000
0000
0000
0000
ENDCHAR
STARTCHAR YEN SIGN
ENCODING 165
SWIDTH 1500 0
DWIDTH 12 0
BBX 12 24 0 -4
BITMAP
0000
0000
0000
0000
0000
0000
6060
6060
6060
6060
30C0
1980
0F00
0600
3FC0
0600
3FC0
0600
0600
0600
0000
0000
0000
0000
ENDCHAR
STARTCHAR BROKEN BAR
ENCODING 166
SWIDTH 1500 0
DWIDTH 12 0
BBX 12 24 0 -4
BITMAP
0600
0600
0600
0600
0600
0600
0600
0600
0600
0600
0000
0000
0000
0000
0600
0600
0600
0600
0600
0600
0600
0600
0600
0600
ENDCHAR
STARTCHAR SECTION SIGN
ENCODING 167
SWIDTH 1500 0
DWIDTH 12 0
BBX 12 24 0 -4
BITMAP
0000
0000
1FE0
3FE0
6000
6000
6000
6000
3F80
3FC0
6060
6060
6060
6060
6060
6060
3FC0
1FC0
0060
0060
0060
0060
7FC0
7F80
ENDCHAR
STARTCHAR DIAERESIS
ENCODING 168
SWIDTH 1500 0
DWIDTH 12 0
BBX 12 24 0 -4
BITMAP
0000
0000
1980
1980
0000
0000
0000
0000
0000
0000
0000
0000
0000
0000
0000
0000
0000
0000
0000
0000
0000
0000
0000
0000
ENDCHAR
STARTCHAR COPYRIGHT SIGN
ENCODING 169
SWIDTH 1500 0
DWIDTH 12 0
BBX 12 24 0 -4
BITMAP
0000
0000
0000
0000
0000
1F80
3FC0
6060
C030
C7B0
CFB0
D830
D830
D830
D830
CFB0
C7B0
C030
6060
3FC0
1F80
0000
0000
0000
ENDCHAR
STARTCHAR FEMININE ORDINAL INDICATOR
ENCODING 170
SWIDTH 1500 0
DWIDTH 12 0
BBX 12 24 0 -4
BITMAP
0000
0000
0000
0000
1F80
1FC0
0060
0060
1FE0
3FE0
6060
6060
3FE0
1FE0
0000
0000
0000
0000
0000
0000
0000
0000
0000
0000
ENDCHAR
STARTCHAR LEFT-POINTING DOUBLE ANGLE QUOTATION MARK
ENCODING 171
SWIDTH 1500 0
DWIDTH 12 0
BBX 12 24 0 -4
BITMAP
0000
0000
0000
0000
0000
0000
0000
0000
0660
0CC0
1980
3300
6600
6600
3300
1980
0CC0
0660
0000
0000
0000
0000
0000
0000
ENDCHAR
STARTCHAR NOT SIGN
ENCODING 172
SWIDTH 1500 0
DWIDTH 12 0
BBX 12 24 0 -4
BITMAP
0000
0000
0000
0000
0000
0000
0000
0000
0000
0000
0000
0000
7FE0
7FE0
0060
0060
0000
0000
0000
0000
0000
0000
0000
0000
ENDCHAR
STARTCHAR SOFT HYPHEN
ENCODING 173
SWIDTH 1500 0
DWIDTH 12 0
BBX 12 24 0 -4
BITMAP
0000
0000
0000
0000
0000
0000
0000
0000
0000
0000
0000
0000
1F80
1F80
0000
0000
0000
0000
0000
0000
0000
0000
0000
0000
ENDCHAR
STARTCHAR REGISTERED SIGN
ENCODING 174
SWIDTH 1500 0
DWIDTH 12 0
BBX 12 24 0 -4
BITMAP
0000
1F80
3FC0
6060
C030
DE30
DF30
D9B0
D9B0
DF30
DE30
DB30
D9B0
C030
6060
3FC0
1F80
0000
0000
0000
0000
0000
0000
0000
ENDCHAR
STARTCHAR MACRON
ENCODING 175
SWIDTH 1500 0
DWIDTH 12 0
BBX 12 24 0 -4
BITMAP
0000
0000
0000
0000
7FE0
7FE0
0000
0000
0000
0000
0000
0000
0000
0000
0000
0000
0000
0000
0000
0000
0000
0000
0000
0000
ENDCHAR
STARTCHAR DEGREE SIGN
ENCODING 176
SWIDTH 1500 0
DWIDTH 12 0
BBX 12 24 0 -4
BITMAP
0000
0000
0000
0000
0000
0000
0600
0F00
1980
1980
0F00
0600
0000
0000
0000
0000
0000
0000
0000
0000
0000
0000
0000
0000
ENDCHAR
STARTCHAR PLUS-MINUS SIGN
ENCODING 177
SWIDTH 1500 0
DWIDTH 12 0
BBX 12 24 0 -4
BITMAP
0000
0000
0000
0000
0000
0000
0600
0600
0600
0600
7FE0
7FE0
0600
0600
0600
0600
0000
0000
7FE0
7FE0
0000
0000
0000
0000
ENDCHAR
STARTCHAR SUPERSCRIPT TWO
ENCODING 178
SWIDTH 1500 0
DWIDTH 12 0
BBX 12 24 0 -4
BITMAP
7F80
7FC0
0060
0060
0060
0060
00C0
0180
0300
0600
0C00
1800
3FE0
7FE0
0000
0000
0000
0000
0000
0000
0000
0000
0000
0000
ENDCHAR
STARTCHAR SUPERSCRIPT THREE
ENCODING 179
SWIDTH 1500 0
DWIDTH 12 0
BBX 12 24 0 -4
BITMAP
7F80
7FC0
0060
0060
0060
0060
07C0
07C0
0060
0060
0060
0060
7FC0
7F80
0000
0000
0000
0000
0000
0000
0000
0000
0000
0000
ENDCHAR
STARTCHAR ACUTE ACCENT
ENCODING 180
SWIDTH 1500 0
DWIDTH 12 0
BBX 12 24 0 -4
BITMAP
0000
0000
0000
0000
0180
0300
0600
0C00
1800
0000
0000
0000
0000
0000
0000
0000
0000
0000
0000
0000
0000
0000
0000
0000
ENDCHAR
STARTCHAR MICRO SIGN
ENCODING 181
SWIDTH 1500 0
DWIDTH 12 0
BBX 12 24 0 -4
BITMAP
0000
0000
0000
0000
0000
0000
0000
0000
0000
0000
6060
6060
6060
6060
6060
6060
6060
6060
7FC0
7F80
6000
6000
6000
6000
ENDCHAR
STARTCHAR PILCROW SIGN
ENCODING 182
SWIDTH 1500 0
DWIDTH 12 0
BBX 12 24 0 -4
BITMAP
0000
0000
0000
0000
1FE0
3FE0
7E60
7E60
7E60
7E60
7E60
7E60
3E60
1E60
0660
0660
0660
0660
0660
0660
0000
0000
0000
0000
ENDCHAR
STARTCHAR MIDDLE DOT
ENCODING 183
SWIDTH 1500 0
DWIDTH 12 0
BBX 12 24 0 -4
BITMAP
0000
0000
0000
0000
0000
0000
0000
0000
0000
0000
0000
0000
0600
0600
0000
0000
0000
0000
0000
0000
0000
0000
0000
0000
ENDCHAR
STARTCHAR CEDILLA
ENCODING 184
SWIDTH 1500 0
DWIDTH 12 0
BBX 12 24 0 -4
BITMAP
0000
0000
0000
0000
0000
0000
0000
0000
0000
0000
0000
0000
0000
0000
0000
0000
0000
0000
0000
0000
0300
0180
1F80
0F00
ENDCHAR
STARTCHAR SUPERSCRIPT ONE
ENCODING 185
SWIDTH 1500 0
DWIDTH 12 0
BBX 12 24 0 -4
BITMAP
0080
0180
0380
0780
0D80
1980
0180
0180
0180
0180
0180
0180
0180
0180
0000
0000
0000
0000
0000
0000
0000
0000
0000
0000
ENDCHAR
STARTCHAR MASCULINE ORDINAL INDICATOR
ENCODING 186
SWIDTH 1500 0
DWIDTH 12 0
BBX 12 24 0 -4
BITMAP
0000
0000
0000
0000
1F80
3FC0
6060
6060
6060
6060
6060
6060
3FC0
1F80
0000
0000
0000
0000
0000
0000
0000
0000
0000
0000
ENDCHAR
STARTCHAR RIGHT-POINTING DOUBLE ANGLE QUOTATION MARK
ENCODING 187
SWIDTH 1500 0
DWIDTH 12 0
BBX 12 24 0 -4
BITMAP
0000
0000
0000
0000
0000
0000
0000
0000
6600
3300
1980
0CC0
0660
0660
0CC0
1980
3300
6600
0000
0000
0000
0000
0000
0000
ENDCHAR
STARTCHAR VULGAR FRACTION ONE QUARTER
ENCODING 188
SWIDTH 1500 0
DWIDTH 12 0
BBX 12 24 0 -4
BITMAP
0400
0C00
1C00
3C00
6C00
CC00
0C00
0C00
0C00
0C00
0C00
0C00
0010
0030
0070
00F0
01B0
0330
07F0
0FF0
0030
0030
0030
0030
ENDCHAR
STARTCHAR VULGAR FRACTION ONE HALF
ENCODING 189
SWIDTH 1500 0
DWIDTH 12 0
BBX 12 24 0 -4
BITMAP
0400
0C00
1C00
3C00
6C00
CC00
0C00
0C00
0C00
0C00
0C00
0C00
0FC0
0FE0
0030
0030
0030
0030
0060
00C0
0180
0300
07F0
0FF0
ENDCHAR
STARTCHAR VULGAR FRACTION THREE QUARTERS
ENCODING 190
SWIDTH 1500 0
DWIDTH 12 0
BBX 12 24 0 -4
BITMAP
FE00
FF00
0180
0180
0180
0180
0F00
0F00
0180
0180
0180
0180
FF10
FE30
0070
00F0
01B0
0330
07F0
0FF0
0030
0030
0030
0030
ENDCHAR
STARTCHAR INVERTED QUESTION MARK
ENCODING 191
SWIDTH 1500 0
DWIDTH 12 0
BBX 12 24 0 -4
BITMAP
0000
0000
0000
0000
0000
0000
0000
0000
0000
0000
0600
0600
0000
0000
0600
0600
0C00
1800
3000
6000
6000
6000
3FE0
1FE0
ENDCHAR
STARTCHAR LATIN CAPITAL LETTER A WITH GRAVE
ENCODING 192
SWIDTH 1500 0
DWIDTH 12 0
BBX 12 24 0 -4
BITMAP
3000
1800
0C00
0600
0000
0000
1F80
3FC0
6060
6060
6060
6060
6060
6060
7FE0
7FE0
6060
6060
6060
6060
0000
0000
0000
0000
ENDCHAR
STARTCHAR LATIN CAPITAL LETTER A WITH ACUTE
ENCODING 193
SWIDTH 1500 0
DWIDTH 12 0
BBX 12 24 0 -4
BITMAP
00C0
0180
0300
0600
0000
0000
1F80
3FC0
6060
6060
6060
6060
6060
6060
7FE0
7FE0
6060
6060
6060
6060
0000
0000
0000
0000
ENDCHAR
STARTCHAR LATIN CAPITAL LETTER A WITH CIRCUMFLEX
ENCODING 194
SWIDTH 1500 0
DWIDTH 12 0
BBX 12 24 0 -4
BITMAP
0600
0F00
1980
30C0
0000
0000
1F80
3FC0
6060
6060
6060
6060
6060
6060
7FE0
7FE0
6060
6060
6060
6060
0000
0000
0000
0000
ENDCHAR
STARTCHAR LATIN CAPITAL LETTER A WITH TILDE
ENCODING 195
SWIDTH 1500 0
DWIDTH 12 0
BBX 12 24 0 -4
BITMAP
1860
3E60
67C0
6180
0000
0000
1F80
3FC0
6060
6060
6060
6060
6060
6060
7FE0
7FE0
6060
6060
6060
6060
0000
0000
0000
0000
ENDCHAR
STARTCHAR LATIN CAPITAL LETTER A WITH DIAERESIS
ENCODING 196
SWIDTH 1500 0
DWIDTH 12 0
BBX 12 24 0 -4
BITMAP
0000
0000
1980
1980
0000
0000
1F80
3FC0
6060
6060
6060
6060
6060
6060
7FE0
7FE0
6060
6060
6060
6060
0000
0000
0000
0000
ENDCHAR
STARTCHAR LATIN CAPITAL LETTER A WITH RING ABOVE
ENCODING 197
SWIDTH 1500 0
DWIDTH 12 0
BBX 12 24 0 -4
BITMAP
0600
0F00
1980
0F00
0600
0000
1F80
3FC0
6060
6060
6060
6060
6060
6060
7FE0
7FE0
6060
6060
6060
6060
0000
0000
0000
0000
ENDCHAR
STARTCHAR LATIN CAPITAL LETTER AE
ENCODING 198
SWIDTH 1500 0
DWIDTH 12 0
BBX 12 24 0 -4
BITMAP
0000
0000
0000
0000
0000
0000
3FF0
7FF0
C600
C600
C600
C600
C7C0
C7C0
FE00
FE00
C600
C600
C7F0
C7F0
0000
0000
0000
0000
ENDCHAR
STARTCHAR LATIN CAPITAL LETTER C WITH CEDILLA
ENCODING 199
SWIDTH 1500 0
DWIDTH 12 0
BBX 12 24 0 -4
BITMAP
0000
0000
0000
0000
0000
0000
1FE0
3FE0
6000
6000
6000
6000
6000
6000
6000
6000
6000
6000
3FE0
1FE0
0300
0180
1F80
0F00
ENDCHAR
STARTCHAR LATIN CAPITAL LETTER E WITH GRAVE
ENCODING 200
SWIDTH 1500 0
DWIDTH 12 0
BBX 12 24 0 -4
BITMAP
3000
1800
0C00
0600
0000
0000
7FE0
7FE0
6000
6000
6000
6000
7E00
7E00
6000
6000
6000
6000
7FE0
7FE0
0000
0000
0000
0000
ENDCHAR
STARTCHAR LATIN CAPITAL LETTER E WITH ACUTE
ENCODING 201
SWIDTH 1500 0
DWIDTH 12 0
BBX 12 24 0 -4
BITMAP
00C0
0180
0300
0600
0000
0000
7FE0
7FE0
6000
6000
6000
6000
7E00
7E00
6000
6000
6000
6000
7FE0
7FE0
0000
0000
0000
0000
ENDCHAR
STARTCHAR LATIN CAPITAL LETTER E WITH CIRCUMFLEX
ENCODING 202
SWIDTH 1500 0
DWIDTH 12 0
BBX 12 24 0 -4
BITMAP
0600
0F00
1980
30C0
0000
0000
7FE0
7FE0
6000
6000
6000
6000
7E00
7E00
6000
6000
6000
6000
7FE0
7FE0
0000
0000
0000
0000
ENDCHAR
STARTCHAR LATIN CAPITAL LETTER E WITH DIAERESIS
ENCODING 203
SWIDTH 1500 0
DWIDTH 12 0
BBX 12 24 0 -4
BITMAP
0000
0000
1980
1980
0000
0000
7FE0
7FE0
6000
6000
6000
6000
7E00
7E00
6000
6000
6000
6000
7FE0
7FE0
0000
0000
0000
0000
ENDCHAR
STARTCHAR LATIN CAPITAL LETTER I WITH GRAVE
ENCODING 204
SWIDTH 1500 0
DWIDTH 12 0
BBX 12 24 0 -4
BITMAP
3000
1800
0C00
0600
0000
0000
0F00
0F00
0600
0600
0600
0600
0600
0600
0600
0600
0600
0600
0F00
0F00
0000
0000
0000
0000
ENDCHAR
STARTCHAR LATIN CAPITAL LETTER I WITH ACUTE
ENCODING 205
SWIDTH 1500 0
DWIDTH 12 0
BBX 12 24 0 -4
BITMAP
00C0
0180
0300
0600
0000
0000
0F00
0F00
0600
0600
0600
0600
0600
0600
0600
0600
0600
0600
0F00
0F00
0000
0000
0000
0000
ENDCHAR
STARTCHAR LATIN CAPITAL LETTER I WITH CIRCUMFLEX
ENCODING 206
SWIDTH 1500 0
DWIDTH 12 0
BBX 12 24 0 -4
BITMAP
0600
0F00
1980
30C0
0000
0000
0F00
0F00
0600
0600
0600
0600
0600
0600
0600
0600
0600
0600
0F00
0F00
0000
0000
0000
0000
ENDCHAR
STARTCHAR LATIN CAPITAL LETTER I WITH DIAERESIS
ENCODING 207
SWIDTH 1500 0
DWIDTH 12 0
BBX 12 24 0 -4
BITMAP
0000
0000
1980
1980
0000
0000
0F00
0F00
0600
0600
0600
0600
0600
0600
0600
0600
0600
0600
0F00
0F00
0000
0000
0000
0000
ENDCHAR
STARTCHAR LATIN CAPITAL LETTER ETH
ENCODING 208
SWIDTH 1500 0
DWIDTH 12 0
BBX 12 24 0 -4
BITMAP
0000
0000
0000
0000
0000
0000
3FC0
3FE0
3030
3030
3030
3030
FF30
FF30
3030
3030
3030
3030
3FE0
3FC0
0000
0000
0000
0000
ENDCHAR
STARTCHAR LATIN CAPITAL LETTER N WITH TILDE
ENCODING 209
SWIDTH 1500 0
DWIDTH 12 0
BBX 12 24 0 -4
BITMAP
1860
3E60
67C0
6180
0000
0000
6060
6060
6060
7060
7860
6C60
6660
6360
61E0
60E0
6060
6060
6060
6060
0000
0000
0000
0000
ENDCHAR
STARTCHAR LATIN CAPITAL LETTER O WITH GRAVE
ENCODING 210
SWIDTH 1500 0
DWIDTH 12 0
BBX 12 24 0 -4
BITMAP
3000
1800
0C00
0600
0000
0000
1F80
3FC0
6060
6060
6060
6060
6060
6060
6060
6060
6060
6060
3FC0
1F80
0000
0000
0000
0000
ENDCHAR
STARTCHAR LATIN CAPITAL LETTER O WITH ACUTE
ENCODING 211
SWIDTH 1500 0
DWIDTH 12 0
BBX 12 24 0 -4
BITMAP
00C0
0180
0300
0600
0000
0000
1F80
3FC0
6060
6060
6060
6060
6060
6060
6060
6060
6060
6060
3FC0
1F80
0000
0000
0000
0000
ENDCHAR
STARTCHAR LATIN CAPITAL LETTER O WITH CIRCUMFLEX
ENCODING 212
SWIDTH 1500 0
DWIDTH 12 0
BBX 12 24 0 -4
BITMAP
0600
0F00
1980
30C0
0000
0000
1F80
3FC0
6060
6060
6060
6060
6060
6060
6060
6060
6060
6060
3FC0
1F80
0000
0000
0000
0000
ENDCHAR
STARTCHAR LATIN CAPITAL LETTER O WITH TILDE
ENCODING 213
SWIDTH 1500 0
DWIDTH 12 0
BBX 12 24 0 -4
BITMAP
1860
3E60
67C0
6180
0000
0000
1F80
3FC0
6060
6060
6060
6060
6060
6060
6060
6060
6060
6060
3FC0
1F80
0000
0000
0000
0000
ENDCHAR
STARTCHAR LATIN CAPITAL LETTER O WITH DIAERESIS
ENCODING 214
SWIDTH 1500 0
DWIDTH 12 0
BBX 12 24 0 -4
BITMAP
0000
0000
1980
1980
0000
0000
1F80
3FC0
6060
6060
6060
6060
6060
6060
6060
6060
6060
6060
3FC0
1F80
0000
0000
0000
0000
ENDCHAR
STARTCHAR MULTIPLICATION SIGN
ENCODING 215
SWIDTH 1500 0
DWIDTH 12 0
BBX 12 24 0 -4
BITMAP
0000
0000
0000
0000
0000
0000
0000
0000
2040
70E0
39C0
1F80
0F00
0F00
1F80
39C0
70E0
2040
0000
0000
0000
0000
0000
0000
ENDCHAR
STARTCHAR LATIN CAPITAL LETTER O WITH STROKE
ENCODING 216
SWIDTH 1500 0
DWIDTH 12 0
BBX 12 24 0 -4
BITMAP
0000
0000
0000
0000
0000
0000
1FE0
3FE0
61E0
61E0
6360
6360
6660
6660
6C60
6C60
7860
7860
7FC0
7F80
0000
0000
0000
0000
ENDCHAR
STARTCHAR LATIN CAPITAL LETTER U WITH GRAVE
ENCODING 217
SWIDTH 1500 0
DWIDTH 12 0
BBX 12 24 0 -4
BITMAP
3000
1800
0C00
0600
0000
0000
6060
6060
6060
6060
6060
6060
6060
6060
6060
6060
6060
6060
3FC0
1F80
0000
0000
0000
0000
ENDCHAR
STARTCHAR LATIN CAPITAL LETTER U WITH ACUTE
ENCODING 218
SWIDTH 1500 0
DWIDTH 12 0
BBX 12 24 0 -4
BITMAP
00C0
0180
0300
0600
0000
0000
6060
6060
6060
6060
6060
6060
6060
6060
6060
6060
6060
6060
3FC0
1F80
0000
0000
0000
0000
ENDCHAR
STARTCHAR LATIN CAPITAL LETTER U WITH CIRCUMFLEX
ENCODING 219
SWIDTH 1500 0
DWIDTH 12 0
BBX 12 24 0 -4
BITMAP
0600
0F00
1980
30C0
0000
0000
6060
6060
6060
6060
6060
6060
6060
6060
6060
6060
6060
6060
3FC0
1F80
0000
0000
0000
0000
ENDCHAR
STARTCHAR LATIN CAPITAL LETTER U WITH DIAERESIS
ENCODING 220
SWIDTH 1500 0
DWIDTH 12 0
BBX 12 24 0 -4
BITMAP
0000
0000
1980
1980
0000
0000
6060
6060
6060
6060
6060
6060
6060
6060
6060
6060
6060
6060
3FC0
1F80
0000
0000
0000
0000
ENDCHAR
STARTCHAR LATIN CAPITAL LETTER Y WITH ACUTE
ENCODING 221
SWIDTH 1500 0
DWIDTH 12 0
BBX 12 24 0 -4
BITMAP
00C0
0180
0300
0600
0000
0000
6060
6060
6060
6060
30C0
1980
0F00
0600
0600
0600
0600
0600
0600
0600
0000
0000
0000
0000
ENDCHAR
STARTCHAR LATIN CAPITAL LETTER THORN
ENCODING 222
SWIDTH 1500 0
DWIDTH 12 0
BBX 12 24 0 -4
BITMAP
0000
0000
0000
0000
0000
0000
3000
3000
3FC0
3FE0
3030
3030
3030
3030
3030
3030
3FE0
3FC0
3000
3000
0000
0000
0000
0000
ENDCHAR
STARTCHAR LATIN SMALL LETTER SHARP S
ENCODING 223
SWIDTH 1500 0
DWIDTH 12 0
BBX 12 24 0 -4
BITMAP
0000
0000
0000
0000
1E00
3F00
6180
6180
6180
6180
6300
6600
6300
6180
60C0
6060
6060
6060
6FC0
6F80
0000
0000
0000
0000
ENDCHAR
STARTCHAR LATIN SMALL LETTER A WITH GRAVE
ENCODING 224
SWIDTH 1500 0
DWIDTH 12 0
BBX 12 24 0 -4
BITMAP
0000
0000
0000
0000
3000
1800
0C00
0600
0000
0000
1F80
1FC0
0060
0060
1FE0
3FE0
6060
6060
3FE0
1FE0
0000
0000
0000
0000
ENDCHAR
STARTCHAR LATIN SMALL LETTER A WITH ACUTE
ENCODING 225
SWIDTH 1500 0
DWIDTH 12 0
BBX 12 24 0 -4
BITMAP
0000
0000
0000
0000
00C0
0180
0300
0600
0000
0000
1F80
1FC0
0060
0060
1FE0
3FE0
6060
6060
3FE0
1FE0
0000
0000
0000
0000
ENDCHAR
STARTCHAR LATIN SMALL LETTER A WITH CIRCUMFLEX
ENCODING 226
SWIDTH 1500 0
DWIDTH 12 0
BBX 12 24 0 -4
BITMAP
0000
0000
0000
0000
0600
0F00
1980
30C0
0000
0000
1F80
1FC0
0060
0060
1FE0
3FE0
6060
6060
3FE0
1FE0
0000
0000
0000
0000
ENDCHAR
STARTCHAR LATIN SMALL LETTER A WITH TILDE
ENCODING 227
SWIDTH 1500 0
DWIDTH 12 0
BBX 12 24 0 -4
BITMAP
0000
0000
0000
0000
1860
3E60
67C0
6180
0000
0000
1F80
1FC0
0060
0060
1FE0
3FE0
6060
6060
3FE0
1FE0
0000
0000
0000
0000
ENDCHAR
STARTCHAR LATIN SMALL LETTER A WITH DIAERESIS
ENCODING 228
SWIDTH 1500 0
DWIDTH 12 0
BBX 12 24 0 -4
BITMAP
0000
0000
0000
0000
0000
0000
1980
1980
0000
0000
1F80
1FC0
0060
0060
1FE0
3FE0
6060
6060
3FE0
1FE0
0000
0000
0000
0000
ENDCHAR
STARTCHAR LATIN SMALL LETTER A WITH RING ABOVE
ENCODING 229
SWIDTH 1500 0
DWIDTH 12 0
BBX 12 24 0 -4
BITMAP
0000
0000
0600
0F00
1980
1980
0F00
0600
0000
0000
1F80
1FC0
0060
0060
1FE0
3FE0
6060
6060
3FE0
1FE0
0000
0000
0000
0000
ENDCHAR
STARTCHAR LATIN SMALL LETTER AE
ENCODING 230
SWIDTH 1500 0
DWIDTH 12 0
BBX 12 24 0 -4
BITMAP
0000
0000
0000
0000
0000
0000
0000
0000
0000
0000
39C0
3FE0
0630
0630
3FF0
7FF0
C600
C600
7FE0
39E0
0000
0000
0000
0000
ENDCHAR
STARTCHAR LATIN SMALL LETTER C WITH CEDILLA
ENCODING 231
SWIDTH 1500 0
DWIDTH 12 0
BBX 12 24 0 -4
BITMAP
0000
0000
0000
0000
0000
0000
0000
0000
0000
0000
1FE0
3FE0
6000
6000
6000
6000
6000
6000
3FE0
1FE0
0300
0180
1F80
0F00
ENDCHAR
STARTCHAR LATIN SMALL LETTER E WITH GRAVE
ENCODING 232
SWIDTH 1500 0
DWIDTH 12 0
BBX 12 24 0 -4
BITMAP
0000
0000
0000
0000
3000
1800
0C00
0600
0000
0000
1F80
3FC0
6060
6060
7FE0
7FE0
6000
6000
3F80
1F80
0000
0000
0000
0000
ENDCHAR
STARTCHAR LATIN SMALL LETTER E WITH ACUTE
ENCODING 233
SWIDTH 1500 0
DWIDTH 12 0
BBX 12 24 0 -4
BITMAP
0000
0000
0000
0000
00C0
0180
0300
0600
0000
0000
1F80
3FC0
6060
6060
7FE0
7FE0
6000
6000
3F80
1F80
0000
0000
0000
0000
ENDCHAR
STARTCHAR LATIN SMALL LETTER E WITH CIRCUMFLEX
ENCODING 234
SWIDTH 1500 0
DWIDTH 12 0
BBX 12 24 0 -4
BITMAP
0000
0000
0000
0000
0600
0F00
1980
30C0
0000
0000
1F80
3FC0
6060
6060
7FE0
7FE0
6000
6000
3F80
1F80
0000
0000
0000
0000
ENDCHAR
STARTCHAR LATIN SMALL LETTER E WITH DIAERESIS
ENCODING 235
SWIDTH 1500 0
DWIDTH 12 0
BBX 12 24 0 -4
BITMAP
0000
0000
0000
0000
0000
0000
1980
1980
0000
0000
1F80
3FC0
6060
6060
7FE0
7FE0
6000
6000
3F80
1F80
0000
0000
0000
0000
ENDCHAR
STARTCHAR LATIN SMALL LETTER I WITH GRAVE
ENCODING 236
SWIDTH 1500 0
DWIDTH 12 0
BBX 12 24 0 -4
BITMAP
0000
0000
0000
0000
3000
1800
0C00
0600
0000
0000
0E00
0E00
0600
0600
0600
0600
0600
0600
0600
0600
0000
0000
0000
0000
ENDCHAR
STARTCHAR LATIN SMALL LETTER I WITH ACUTE
ENCODING 237
SWIDTH 1500 0
DWIDTH 12 0
BBX 12 24 0 -4
BITMAP
0000
0000
0000
0000
00C0
0180
0300
0600
0000
0000
0E00
0E00
0600
0600
0600
0600
0600
0600
0600
0600
0000
0000
0000
0000
ENDCHAR
STARTCHAR LATIN SMALL LETTER I WITH CIRCUMFLEX
ENCODING 238
SWIDTH 1500 0
DWIDTH 12 0
BBX 12 24 0 -4
BITMAP
0000
0000
0000
0000
0600
0F00
1980
30C0
0000
0000
0E00
0E00
0600
0600
0600
0600
0600
0600
0600
0600
0000
0000
0000
0000
ENDCHAR
STARTCHAR LATIN SMALL LETTER I WITH DIAERESIS
ENCODING 239
SWIDTH 1500 0
DWIDTH 12 0
BBX 12 24 0 -4
BITMAP
0000
0000
0000
0000
0000
0000
1980
1980
0000
0000
0E00
0E00
0600
0600
0600
0600
0600
0600
0600
0600
0000
0000
0000
0000
ENDCHAR
STARTCHAR LATIN SMALL LETTER ETH
ENCODING 240
SWIDTH 1500 0
DWIDTH 12 0
BBX 12 24 0 -4
BITMAP
0000
0000
18C0
0D80
0700
0700
0D80
18C0
00C0
0060
1FE0
3FE0
6060
6060
6060
6060
6060
6060
3FC0
1F80
0000
0000
0000
0000
ENDCHAR
STARTCHAR LATIN SMALL LETTER N WITH TILDE
ENCODING 241
SWIDTH 1500 0
DWIDTH 12 0
BBX 12 24 0 -4
BITMAP
0000
0000
0000
0000
1860
3E60
67C0
6180
0000
0000
7F80
7FC0
6060
6060
6060
6060
6060
6060
6060
6060
0000
0000
0000
0000
ENDCHAR
STARTCHAR LATIN SMALL LETTER O WITH GRAVE
ENCODING 242
SWIDTH 1500 0
DWIDTH 12 0
BBX 12 24 0 -4
BITMAP
0000
0000
0000
0000
3000
1800
0C00
0600
0000
0000
1F80
3FC0
6060
6060
6060
6060
6060
6060
3FC0
1F80
0000
0000
0000
0000
ENDCHAR
STARTCHAR LATIN SMALL LETTER O WITH ACUTE
ENCODING 243
SWIDTH 1500 0
DWIDTH 12 0
BBX 12 24 0 -4
BITMAP
0000
0000
0000
0000
00C0
0180
0300
0600
0000
0000
1F80
3FC0
6060
6060
6060
6060
6060
6060
3FC0
1F80
0000
0000
0000
0000
ENDCHAR
STARTCHAR LATIN SMALL LETTER O WITH CIRCUMFLEX
ENCODING 244
SWIDTH 1500 0
DWIDTH 12 0
BBX 12 24 0 -4
BITMAP
0000
0000
0000
0000
0600
0F00
1980
30C0
0000
0000
1F80
3FC0
6060
6060
6060
6060
6060
6060
3FC0
1F80
0000
0000
0000
0000
ENDCHAR
STARTCHAR LATIN SMALL LETTER O WITH TILDE
ENCODING 245
SWIDTH 1500 0
DWIDTH 12 0
BBX 12 24 0 -4
BITMAP
0000
0000
0000
0000
1860
3E60
67C0
6180
0000
0000
1F80
3FC0
6060
6060
6060
6060
6060
6060
3FC0
1F80
0000
0000
0000
0000
ENDCHAR
STARTCHAR LATIN SMALL LETTER O WITH DIAERESIS
ENCODING 246
SWIDTH 1500 0
DWIDTH 12 0
BBX 12 24 0 -4
BITMAP
0000
0000
0000
0000
0000
0000
1980
1980
0000
0000
1F80
3FC0
6060
6060
6060
6060
6060
6060
3FC0
1F80
0000
0000
0000
0000
ENDCHAR
STARTCHAR DIVISION SIGN
ENCODING 247
SWIDTH 1500 0
DWIDTH 12 0
BBX 12 24 0 -4
BITMAP
0000
0000
0000
0000
0000
0000
0000
0000
0600
0600
0000
0000
7FE0
7FE0
0000
0000
0600
0600
0000
0000
0000
0000
0000
0000
ENDCHAR
STARTCHAR LATIN SMALL LETTER O WITH STROKE
ENCODING 248
SWIDTH 1500 0
DWIDTH 12 0
BBX 12 24 0 -4
BITMAP
0000
0000
0000
0000
0000
0000
0000
0000
0000
0000
1FE0
3FE0
61E0
63E0
6760
6E60
7C60
7860
7FC0
7F80
0000
0000
0000
0000
ENDCHAR
STARTCHAR LATIN SMALL LETTER U WITH GRAVE
ENCODING 249
SWIDTH 1500 0
DWIDTH 12 0
BBX 12 24 0 -4
BITMAP
0000
0000
0000
0000
3000
1800
0C00
0600
0000
0000
6060
6060
6060
6060
6060
6060
6060
6060
3FE0
1FE0
0000
0000
0000
0000
ENDCHAR
STARTCHAR LATIN SMALL LETTER U WITH ACUTE
ENCODING 250
SWIDTH 1500 0
DWIDTH 12 0
BBX 12 24 0 -4
BITMAP
0000
0000
0000
0000
00C0
0180
0300
0600
0000
0000
6060
6060
6060
6060
6060
6060
6060
6060
3FE0
1FE0
0000
0000
0000
0000
ENDCHAR
STARTCHAR LATIN SMALL LETTER U WITH CIRCUMFLEX
ENCODING 251
SWIDTH 1500 0
DWIDTH 12 0
BBX 12 24 0 -4
BITMAP
0000
0000
0000
0000
0600
0F00
1980
30C0
0000
0000
6060
6060
6060
6060
6060
6060
6060
6060
3FE0
1FE0
0000
0000
0000
0000
ENDCHAR
STARTCHAR LATIN SMALL LETTER U WITH DIAERESIS
ENCODING 252
SWIDTH 1500 0
DWIDTH 12 0
BBX 12 24 0 -4
BITMAP
0000
0000
0000
0000
0000
0000
1980
1980
0000
0000
6060
6060
6060
6060
6060
6060
6060
6060
3FE0
1FE0
0000
0000
0000
0000
ENDCHAR
STARTCHAR LATIN SMALL LETTER Y WITH ACUTE
ENCODING 253
SWIDTH 1500 0
DWIDTH 12 0
BBX 12 24 0 -4
BITMAP
0000
0000
0000
0000
00C0
0180
0300
0600
0000
0000
6060
6060
6060
6060
6060
6060
6060
6060
3FE0
1FE0
0060
0060
0FC0
0F80
ENDCHAR
STARTCHAR LATIN SMALL LETTER THORN
ENCODING 254
SWIDTH 1500 0
DWIDTH 12 0
BBX 12 24 0 -4
BITMAP
0000
0000
0000
0000
0000
0000
6000
6000
6000
6000
7F80
7FC0
6060
6060
6060
6060
6060
6060
7FC0
7F80
6000
6000
6000
6000
ENDCHAR
STARTCHAR LATIN SMALL LETTER Y WITH DIAERESIS
ENCODING 255
SWIDTH 1500 0
DWIDTH 12 0
BBX 12 24 0 -4
BITMAP
0000
0000
0000
0000
0000
0000
1980
1980
0000
0000
6060
6060
6060
6060
6060
6060
6060
6060
3FE0
1FE0
0060
0060
0F80
0F80
ENDCHAR
STARTCHAR LATIN CAPITAL LETTER A WITH MACRON
ENCODING 256
SWIDTH 1500 0
DWIDTH 12 0
BBX 12 24 0 -4
BITMAP
0000
0000
3FC0
3FC0
0000
0000
1F80
3FC0
6060
6060
6060
6060
6060
6060
7FE0
7FE0
6060
6060
6060
6060
0000
0000
0000
0000
ENDCHAR
STARTCHAR LATIN SMALL LETTER A WITH MACRON
ENCODING 257
SWIDTH 1500 0
DWIDTH 12 0
BBX 12 24 0 -4
BITMAP
0000
0000
0000
0000
0000
0000
3FC0
3FC0
0000
0000
1F80
1FC0
0060
0060
1FE0
3FE0
6060
6060
3FE0
1FE0
0000
0000
0000
0000
ENDCHAR
STARTCHAR LATIN CAPITAL LETTER A WITH BREVE
ENCODING 258
SWIDTH 1500 0
DWIDTH 12 0
BBX 12 24 0 -4
BITMAP
0000
6060
3FC0
1F80
0000
0000
1F80
3FC0
6060
6060
6060
6060
6060
6060
7FE0
7FE0
6060
6060
6060
6060
0000
0000
0000
0000
ENDCHAR
STARTCHAR LATIN SMALL LETTER A WITH BREVE
ENCODING 259
SWIDTH 1500 0
DWIDTH 12 0
BBX 12 24 0 -4
BITMAP
0000
0000
0000
0000
0000
30C0
1F80
0F00
0000
0000
1F80
1FC0
0060
0060
1FE0
3FE0
6060
6060
3FE0
1FE0
0000
0000
0000
0000
ENDCHAR
STARTCHAR LATIN CAPITAL LETTER A WITH OGONEK
ENCODING 260
SWIDTH 1500 0
DWIDTH 12 0
BBX 12 24 0 -4
BITMAP
0000
0000
0000
0000
0000
0000
1F80
3FC0
6060
6060
6060
6060
6060
6060
7FE0
7FE0
6060
6060
6060
6060
00C0
00C0
0070
0030
ENDCHAR
STARTCHAR LATIN SMALL LETTER A WITH OGONEK
ENCODING 261
SWIDTH 1500 0
DWIDTH 12 0
BBX 12 24 0 -4
BITMAP
0000
0000
0000
0000
0000
0000
0000
0000
0000
0000
1F80
1FC0
0060
0060
1FE0
3FE0
6060
6060
3FE0
1FE0
00C0
00C0
0070
0030
ENDCHAR
STARTCHAR LATIN CAPITAL LETTER C WITH ACUTE
ENCODING 262
SWIDTH 1500 0
DWIDTH 12 0
BBX 12 24 0 -4
BITMAP
00C0
0180
0300
0600
0000
0000
1FE0
3FE0
6000
6000
6000
6000
6000
6000
6000
6000
6000
6000
3FE0
1FE0
0000
0000
0000
0000
ENDCHAR
STARTCHAR LATIN SMALL LETTER C WITH ACUTE
ENCODING 263
SWIDTH 1500 0
DWIDTH 12 0
BBX 12 24 0 -4
BITMAP
0000
0000
0000
0000
00C0
0180
0300
0600
0000
0000
1FE0
3FE0
6000
6000
6000
6000
6000
6000
3FE0
1FE0
0000
0000
0000
0000
ENDCHAR
STARTCHAR LATIN CAPITAL LETTER C WITH CIRCUMFLEX
ENCODING 264
SWIDTH 1500 0
DWIDTH 12 0
BBX 12 24 0 -4
BITMAP
0600
0F00
1980
30C0
0000
0000
1FE0
3FE0
6000
6000
6000
6000
6000
6000
6000
6000
6000
6000
3FE0
1FE0
0000
0000
0000
0000
ENDCHAR
STARTCHAR LATIN SMALL LETTER C WITH CIRCUMFLEX
ENCODING 265
SWIDTH 1500 0
DWIDTH 12 0
BBX 12 24 0 -4
BITMAP
0000
0000
0000
0000
0600
0F00
1980
30C0
0000
0000
1FE0
3FE0
6000
6000
6000
6000
6000
6000
3FE0
1FE0
0000
0000
0000
0000
ENDCHAR
STARTCHAR LATIN CAPITAL LETTER C WITH DOT ABOVE
ENCODING 266
SWIDTH 1500 0
DWIDTH 12 0
BBX 12 24 0 -4
BITMAP
0000
0000
0600
0600
0000
0000
1FE0
3FE0
6000
6000
6000
6000
6000
6000
6000
6000
6000
6000
3FE0
1FE0
0000
0000
0000
0000
ENDCHAR
STARTCHAR LATIN SMALL LETTER C WITH DOT ABOVE
ENCODING 267
SWIDTH 1500 0
DWIDTH 12 0
BBX 12 24 0 -4
BITMAP
0000
0000
0000
0000
0000
0000
0600
0600
0000
0000
1FE0
3FE0
6000
6000
6000
6000
6000
6000
3FE0
1FE0
0000
0000
0000
0000
ENDCHAR
STARTCHAR LATIN CAPITAL LETTER C WITH CARON
ENCODING 268
SWIDTH 1500 0
DWIDTH 12 0
BBX 12 24 0 -4
BITMAP
30C0
1980
0F00
0600
0000
0000
1FE0
3FE0
6000
6000
6000
6000
6000
6000
6000
6000
6000
6000
3FE0
1FE0
0000
0000
0000
0000
ENDCHAR
STARTCHAR LATIN SMALL LETTER C WITH CARON
ENCODING 269
SWIDTH 1500 0
DWIDTH 12 0
BBX 12 24 0 -4
BITMAP
0000
0000
0000
0000
30C0
1980
0F00
0600
0000
0000
1FE0
3FE0
6000
6000
6000
6000
6000
6000
3FE0
1FE0
0000
0000
0000
0000
ENDCHAR
STARTCHAR LATIN CAPITAL LETTER D WITH CARON
ENCODING 270
SWIDTH 1500 0
DWIDTH 12 0
BBX 12 24 0 -4
BITMAP
30C0
1980
0F00
0600
0000
0000
7F80
7FC0
6060
6060
6060
6060
6060
6060
6060
6060
6060
6060
7FC0
7F80
0000
0000
0000
0000
ENDCHAR
STARTCHAR LATIN SMALL LETTER D WITH CARON
ENCODING 271
SWIDTH 1500 0
DWIDTH 12 0
BBX 12 24 0 -4
BITMAP
0030
0030
0060
00C0
0000
00C0
00C0
00C0
00C0
00C0
3FC0
7FC0
C0C0
C0C0
C0C0
C0C0
C0C0
C0C0
7FC0
3FC0
0000
0000
0000
0000
ENDCHAR
STARTCHAR LATIN CAPITAL LETTER D WITH STROKE
ENCODING 272
SWIDTH 1500 0
DWIDTH 12 0
BBX 12 24 0 -4
BITMAP
0000
0000
0000
0000
0000
0000
3FC0
3FE0
3030
3030
3030
3030
FE30
FE30
3030
3030
3030
3030
3FE0
3FC0
0000
0000
0000
0000
ENDCHAR
STARTCHAR LATIN SMALL LETTER D WITH STROKE
ENCODING 273
SWIDTH 1500 0
DWIDTH 12 0
BBX 12 24 0 -4
BITMAP
0000
0000
0000
0000
00C0
00C0
07F0
07F0
00C0
00C0
3FC0
7FC0
C0C0
C0C0
C0C0
C0C0
C0C0
C0C0
7FC0
3FC0
0000
0000
0000
0000
ENDCHAR
STARTCHAR LATIN CAPITAL LETTER E WITH MACRON
ENCODING 274
SWIDTH 1500 0
DWIDTH 12 0
BBX 12 24 0 -4
BITMAP
0000
0000
3FC0
3FC0
0000
0000
7FE0
7FE0
6000
6000
6000
6000
7E00
7E00
6000
6000
6000
6000
7FE0
7FE0
0000
0000
0000
0000
ENDCHAR
STARTCHAR LATIN SMALL LETTER E WITH MACRON
ENCODING 275
SWIDTH 1500 0
DWIDTH 12 0
BBX 12 24 0 -4
BITMAP
0000
0000
0000
0000
0000
0000
3FC0
3FC0
0000
0000
1F80
3FC0
6060
6060
7FE0
7FE0
6000
6000
3F80
1F80
0000
0000
0000
0000
ENDCHAR
STARTCHAR LATIN CAPITAL LETTER E WITH BREVE
ENCODING 276
SWIDTH 1500 0
DWIDTH 12 0
BBX 12 24 0 -4
BITMAP
0000
6060
3FC0
1F80
0000
0000
7FE0
7FE0
6000
6000
6000
6000
7E00
7E00
6000
6000
6000
6000
7FE0
7FE0
0000
0000
0000
0000
ENDCHAR
STARTCHAR LATIN SMALL LETTER E WITH BREVE
ENCODING 277
SWIDTH 1500 0
DWIDTH 12 0
BBX 12 24 0 -4
BITMAP
0000
0000
0000
0000
0000
6060
3FC0
1F80
0000
0000
1F80
3FC0
6060
6060
7FE0
7FE0
6000
6000
3F80
1F80
0000
0000
0000
0000
ENDCHAR
STARTCHAR LATIN CAPITAL LETTER E WITH DOT ABOVE
ENCODING 278
SWIDTH 1500 0
DWIDTH 12 0
BBX 12 24 0 -4
BITMAP
0000
0000
0600
0600
0000
0000
7FE0
7FE0
6000
6000
6000
6000
7E00
7E00
6000
6000
6000
6000
7FE0
7FE0
0000
0000
0000
0000
ENDCHAR
STARTCHAR LATIN SMALL LETTER E WITH DOT ABOVE
ENCODING 279
SWIDTH 1500 0
DWIDTH 12 0
BBX 12 24 0 -4
BITMAP
0000
0000
0000
0000
0000
0000
0600
0600
0000
0000
1F80
3FC0
6060
6060
7FE0
7FE0
6000
6000
3F80
1F80
0000
0000
0000
0000
ENDCHAR
STARTCHAR LATIN CAPITAL LETTER E WITH OGONEK
ENCODING 280
SWIDTH 1500 0
DWIDTH 12 0
BBX 12 24 0 -4
BITMAP
0000
0000
0000
0000
0000
0000
7FE0
7FE0
6000
6000
6000
6000
7E00
7E00
6000
6000
6000
6000
7FE0
7FE0
00C0
00C0
0070
0030
ENDCHAR
STARTCHAR LATIN SMALL LETTER E WITH OGONEK
ENCODING 281
SWIDTH 1500 0
DWIDTH 12 0
BBX 12 24 0 -4
BITMAP
0000
0000
0000
0000
0000
0000
0000
0000
0000
0000
1F80
3FC0
6060
6060
7FE0
7FE0
6000
6000
3F80
1F80
0180
0180
00E0
0060
ENDCHAR
STARTCHAR LATIN CAPITAL LETTER E WITH CARON
ENCODING 282
SWIDTH 1500 0
DWIDTH 12 0
BBX 12 24 0 -4
BITMAP
30C0
1980
0F00
0600
0000
0000
7FE0
7FE0
6000
6000
6000
6000
7E00
7E00
6000
6000
6000
6000
7FE0
7FE0
0000
0000
0000
0000
ENDCHAR
STARTCHAR LATIN SMALL LETTER E WITH CARON
ENCODING 283
SWIDTH 1500 0
DWIDTH 12 0
BBX 12 24 0 -4
BITMAP
0000
0000
0000
0000
30C0
1980
0F00
0600
0000
0000
1F80
3FC0
6060
6060
7FE0
7FE0
6000
6000
3F80
1F80
0000
0000
0000
0000
ENDCHAR
STARTCHAR LATIN CAPITAL LETTER G WITH CIRCUMFLEX
ENCODING 284
SWIDTH 1500 0
DWIDTH 12 0
BBX 12 24 0 -4
BITMAP
0600
0F00
1980
30C0
0000
0000
1FE0
3FE0
6000
6000
6000
6000
61E0
61E0
6060
6060
6060
6060
3FE0
1FE0
0000
0000
0000
0000
ENDCHAR
STARTCHAR LATIN SMALL LETTER G WITH CIRCUMFLEX
ENCODING 285
SWIDTH 1500 0
DWIDTH 12 0
BBX 12 24 0 -4
BITMAP
0000
0000
0000
0000
0600
0F00
1980
30C0
0000
0000
1FE0
3FE0
6060
6060
6060
6060
6060
6060
3FE0
1FE0
0060
0060
0FC0
0F80
ENDCHAR
STARTCHAR LATIN CAPITAL LETTER G WITH BREVE
ENCODING 286
SWIDTH 1500 0
DWIDTH 12 0
BBX 12 24 0 -4
BITMAP
0000
6060
3FC0
1F80
0000
0000
1FE0
3FE0
6000
6000
6000
6000
61E0
61E0
6060
6060
6060
6060
3FE0
1FE0
0000
0000
0000
0000
ENDCHAR
STARTCHAR LATIN SMALL LETTER G WITH BREVE
ENCODING 287
SWIDTH 1500 0
DWIDTH 12 0
BBX 12 24 0 -4
BITMAP
0000
0000
0000
0000
0000
6060
3FC0
1F80
0000
0000
1FE0
3FE0
6060
6060
6060
6060
6060
6060
3FE0
1FE0
0060
0060
0FC0
0F80
ENDCHAR
STARTCHAR LATIN CAPITAL LETTER G WITH DOT ABOVE
ENCODING 288
SWIDTH 1500 0
DWIDTH 12 0
BBX 12 24 0 -4
BITMAP
0000
0000
0600
0600
0000
0000
1FE0
3FE0
6000
6000
6000
6000
61E0
61E0
6060
6060
6060
6060
3FE0
1FE0
0000
0000
0000
0000
ENDCHAR
STARTCHAR LATIN SMALL LETTER G WITH DOT ABOVE
ENCODING 289
SWIDTH 1500 0
DWIDTH 12 0
BBX 12 24 0 -4
BITMAP
0000
0000
0000
0000
0000
0000
0600
0600
0000
0000
1FE0
3FE0
6060
6060
6060
6060
6060
6060
3FE0
1FE0
0060
0060
0FC0
0F80
ENDCHAR
STARTCHAR LATIN CAPITAL LETTER G WITH CEDILLA
ENCODING 290
SWIDTH 1500 0
DWIDTH 12 0
BBX 12 24 0 -4
BITMAP
0000
0000
0000
0000
0000
0000
1FE0
3FE0
6000
6000
6000
6000
61E0
61E0
6060
6060
6060
6060
3FE0
1FE0
0300
0180
1F80
0F00
ENDCHAR
STARTCHAR LATIN SMALL LETTER G WITH CEDILLA
ENCODING 291
SWIDTH 1500 0
DWIDTH 12 0
BBX 12 24 0 -4
BITMAP
0000
0000
0000
0000
0180
0300
0600
0600
0000
0000
1FE0
3FE0
6060
6060
6060
6060
6060
6060
3FE0
1FE0
0060
0060
0FC0
0F80
ENDCHAR
STARTCHAR LATIN CAPITAL LETTER H WITH CIRCUMFLEX
ENCODING 292
SWIDTH 1500 0
DWIDTH 12 0
BBX 12 24 0 -4
BITMAP
0600
0F00
1980
30C0
0000
0000
6060
6060
6060
6060
6060
6060
7FE0
7FE0
6060
6060
6060
6060
6060
6060
0000
0000
0000
0000
ENDCHAR
STARTCHAR LATIN SMALL LETTER H WITH CIRCUMFLEX
ENCODING 293
SWIDTH 1500 0
DWIDTH 12 0
BBX 12 24 0 -4
BITMAP
0600
0F00
1980
30C0
6000
6000
6000
6000
6000
6000
7F80
7FC0
6060
6060
6060
6060
6060
6060
6060
6060
0000
0000
0000
0000
ENDCHAR
STARTCHAR LATIN CAPITAL LETTER H WITH STROKE
ENCODING 294
SWIDTH 1500 0
DWIDTH 12 0
BBX 12 24 0 -4
BITMAP
0000
0000
0000
0000
0000
0000
6060
6060
FFF0
FFF0
6060
6060
7FE0
7FE0
6060
6060
6060
6060
6060
6060
0000
0000
0000
0000
ENDCHAR
STARTCHAR LATIN SMALL LETTER H WITH STROKE
ENCODING 295
SWIDTH 1500 0
DWIDTH 12 0
BBX 12 24 0 -4
BITMAP
0000
0000
0000
0000
3000
3000
FE00
FE00
3000
3000
3FC0
3FE0
3030
3030
3030
3030
3030
3030
3030
3030
0000
0000
0000
0000
ENDCHAR
STARTCHAR LATIN CAPITAL LETTER I WITH TILDE
ENCODING 296
SWIDTH 1500 0
DWIDTH 12 0
BBX 12 24 0 -4
BITMAP
1860
3E60
67C0
6180
0000
0000
0F00
0F00
0600
0600
0600
0600
0600
0600
0600
0600
0600
0600
0F00
0F00
0000
0000
0000
0000
ENDCHAR
STARTCHAR LATIN SMALL LETTER I WITH TILDE
ENCODING 297
SWIDTH 1500 0
DWIDTH 12 0
BBX 12 24 0 -4
BITMAP
0000
0000
0000
0000
1860
3E60
67C0
6180
0000
0000
0E00
0E00
0600
0600
0600
0600
0600
0600
0600
0600
0000
0000
0000
0000
ENDCHAR
STARTCHAR LATIN CAPITAL LETTER I WITH MACRON
ENCODING 298
SWIDTH 1500 0
DWIDTH 12 0
BBX 12 24 0 -4
BITMAP
0000
0000
1F80
1F80
0000
0000
0F00
0F00
0600
0600
0600
0600
0600
0600
0600
0600
0600
0600
0F00
0F00
0000
0000
0000
0000
ENDCHAR
STARTCHAR LATIN SMALL LETTER I WITH MACRON
ENCODING 299
SWIDTH 1500 0
DWIDTH 12 0
BBX 12 24 0 -4
BITMAP
0000
0000
0000
0000
0000
0000
0F00
0F00
0000
0000
0E00
0E00
0600
0600
0600
0600
0600
0600
0600
0600
0000
0000
0000
0000
ENDCHAR
STARTCHAR LATIN CAPITAL LETTER I WITH BREVE
ENCODING 300
SWIDTH 1500 0
DWIDTH 12 0
BBX 12 24 0 -4
BITMAP
0000
30C0
1F80
0F00
0000
0000
0F00
0F00
0600
0600
0600
0600
0600
0600
0600
0600
0600
0600
0F00
0F00
0000
0000
0000
0000
ENDCHAR
STARTCHAR LATIN SMALL LETTER I WITH BREVE
ENCODING 301
SWIDTH 1500 0
DWIDTH 12 0
BBX 12 24 0 -4
BITMAP
0000
0000
0000
0000
0000
30C0
1F80
0F00
0000
0000
0E00
0E00
0600
0600
0600
0600
0600
0600
0600
0600
0000
0000
0000
0000
ENDCHAR
STARTCHAR LATIN CAPITAL LETTER I WITH OGONEK
ENCODING 302
SWIDTH 1500 0
DWIDTH 12 0
BBX 12 24 0 -4
BITMAP
0000
0000
0000
0000
0000
0000
0F00
0F00
0600
0600
0600
0600
0600
0600
0600
0600
0600
0600
0F00
0F00
0600
0600
0380
0180
ENDCHAR
STARTCHAR LATIN SMALL LETTER I WITH OGONEK
ENCODING 303
SWIDTH 1500 0
DWIDTH 12 0
BBX 12 24 0 -4
BITMAP
0000
0000
0000
0000
0000
0000
0600
0600
0000
0000
0E00
0E00
0600
0600
0600
0600
0600
0600
0600
0600
0600
0600
0380
0180
ENDCHAR
STARTCHAR LATIN CAPITAL LETTER I WITH DOT ABOVE
ENCODING 304
SWIDTH 1500 0
DWIDTH 12 0
BBX 12 24 0 -4
BITMAP
0000
0000
0600
0600
0000
0000
0F00
0F00
0600
0600
0600
0600
0600
0600
0600
0600
0600
0600
0F00
0F00
0000
0000
0000
0000
ENDCHAR
STARTCHAR LATIN SMALL LETTER DOTLESS I
ENCODING 305
SWIDTH 1500 0
DWIDTH 12 0
BBX 12 24 0 -4
BITMAP
0000
0000
0000
0000
0000
0000
0000
0000
0000
0000
0E00
0E00
0600
0600
0600
0600
0600
0600
0600
0600
0000
0000
0000
0000
ENDCHAR
STARTCHAR LATIN CAPITAL LIGATURE IJ
ENCODING 306
SWIDTH 1500 0
DWIDTH 12 0
BBX 12 24 0 -4
BITMAP
0000
0000
0000
0000
0000
0000
F030
F030
6030
6030
6030
6030
6030
6030
6030
6030
6030
6C30
F7E0
F3C0
0000
0000
0000
0000
ENDCHAR
STARTCHAR LATIN SMALL LIGATURE IJ
ENCODING 307
SWIDTH 1500 0
DWIDTH 12 0
BBX 12 24 0 -4
BITMAP
0000
0000
0000
0000
0000
0000
18C0
18C0
0000
0000
39C0
39C0
18C0
18C0
18C0
18C0
18C0
18C0
18C0
18C0
00C0
00C0
0180
0300
ENDCHAR
STARTCHAR LATIN CAPITAL LETTER J WITH CIRCUMFLEX
ENCODING 308
SWIDTH 1500 0
DWIDTH 12 0
BBX 12 24 0 -4
BITMAP
0180
03C0
0660
0C30
0000
0000
0060
0060
0060
0060
0060
0060
0060
0060
0060
0060
0060
6060
3FC0
1F80
0000
0000
0000
0000
ENDCHAR
STARTCHAR LATIN SMALL LETTER J WITH CIRCUMFLEX
ENCODING 309
SWIDTH 1500 0
DWIDTH 12 0
BBX 12 24 0 -4
BITMAP
0000
0000
0000
0000
0600
0F00
1980
30C0
0000
0000
0E00
0E00
0600
0600
0600
0600
0600
0600
0600
0600
0600
0600
0C00
1800
ENDCHAR
STARTCHAR LATIN CAPITAL LETTER K WITH CEDILLA
ENCODING 310
SWIDTH 1500 0
DWIDTH 12 0
BBX 12 24 0 -4
BITMAP
0000
0000
0000
0000
0000
0000
6060
60C0
6180
6300
6600
6C00
7800
7800
6C00
6600
6300
6180
60C0
6660
0300
0180
1F80
0F00
ENDCHAR
STARTCHAR LATIN SMALL LETTER K WITH CEDILLA
ENCODING 311
SWIDTH 1500 0
DWIDTH 12 0
BBX 12 24 0 -4
BITMAP
0000
0000
0000
0000
3000
3000
3000
3000
3000
3000
30C0
3180
3300
3600
3C00
3C00
3600
3300
3180
36C0
0300
0180
1F80
0F00
ENDCHAR
STARTCHAR LATIN SMALL LETTER KRA
ENCODING 312
SWIDTH 1500 0
DWIDTH 12 0
BBX 12 24 0 -4
BITMAP
0000
0000
0000
0000
0000
0000
0000
0000
0000
0000
30C0
3180
3300
3600
3C00
3C00
3600
3300
3180
30C0
0000
0000
0000
0000
ENDCHAR
STARTCHAR LATIN CAPITAL LETTER L WITH ACUTE
ENCODING 313
SWIDTH 1500 0
DWIDTH 12 0
BBX 12 24 0 -4
BITMAP
0C00
1800
3000
6000
0000
0000
6000
6000
6000
6000
6000
6000
6000
6000
6000
6000
6000
6000
7FE0
7FE0
0000
0000
0000
0000
ENDCHAR
STARTCHAR LATIN SMALL LETTER L WITH ACUTE
ENCODING 314
SWIDTH 1500 0
DWIDTH 12 0
BBX 12 24 0 -4
BITMAP
0300
0600
0C00
1800
0000
1800
1800
1800
1800
1800
1800
1800
1800
1800
1800
1800
1800
1800
0F80
0780
0000
0000
0000
0000
ENDCHAR
STARTCHAR LATIN CAPITAL LETTER L WITH CEDILLA
ENCODING 315
SWIDTH 1500 0
DWIDTH 12 0
BBX 12 24 0 -4
BITMAP
0000
0000
0000
0000
0000
0000
6000
6000
6000
6000
6000
6000
6000
6000
6000
6000
6000
6000
7FE0
7FE0
0300
0180
1F80
0F00
ENDCHAR
STARTCHAR LATIN SMALL LETTER L WITH CEDILLA
ENCODING 316
SWIDTH 1500 0
DWIDTH 12 0
BBX 12 24 0 -4
BITMAP
0000
0000
0000
0000
1800
1800
1800
1800
1800
1800
1800
1800
1800
1800
1800
1800
1800
1800
0F80
0780
0300
0180
1F80
0F00
ENDCHAR
STARTCHAR LATIN CAPITAL LETTER L WITH CARON
ENCODING 317
SWIDTH 1500 0
DWIDTH 12 0
BBX 12 24 0 -4
BITMAP
0000
0000
0000
0000
0000
0000
6180
6180
6300
6600
6000
6000
6000
6000
6000
6000
6000
6000
7FE0
7FE0
0000
0000
0000
0000
ENDCHAR
STARTCHAR LATIN SMALL LETTER L WITH CARON
ENCODING 318
SWIDTH 1500 0
DWIDTH 12 0
BBX 12 24 0 -4
BITMAP
0000
0000
0000
0000
18C0
18C0
1980
1B00
1800
1800
1800
1800
1800
1800
1800
1800
1800
1800
0F80
0780
0000
0000
0000
0000
ENDCHAR
STARTCHAR LATIN CAPITAL LETTER L WITH MIDDLE DOT
ENCODING 319
SWIDTH 1500 0
DWIDTH 12 0
BBX 12 24 0 -4
BITMAP
0000
0000
0000
0000
0000
0000
6000
6000
6000
6000
6300
6300
6000
6000
6000
6000
6000
6000
7FE0
7FE0
0000
0000
0000
0000
ENDCHAR
STARTCHAR LATIN SMALL LETTER L WITH MIDDLE DOT
ENCODING 320
SWIDTH 1500 0
DWIDTH 12 0
BBX 12 24 0 -4
BITMAP
0000
0000
0000
0000
1800
1800
1800
1800
1980
1980
1800
1800
1800
1800
1800
1800
1800
1800
0F80
0780
0000
0000
0000
0000
ENDCHAR
STARTCHAR LATIN CAPITAL LETTER L WITH STROKE
ENCODING 321
SWIDTH 1500 0
DWIDTH 12 0
BBX 12 24 0 -4
BITMAP
0000
0000
0000
0000
0000
0000
3000
3000
3180
3300
3600
3C00
3800
3000
7000
F000
3000
3000
3FF0
3FF0
0000
0000
0000
0000
ENDCHAR
STARTCHAR LATIN SMALL LETTER L WITH STROKE
ENCODING 322
SWIDTH 1500 0
DWIDTH 12 0
BBX 12 24 0 -4
BITMAP
0000
0000
0000
0000
1800
1800
1800
1800
1800
1800
1E00
1C00
3800
7800
1800
1800
1800
1800
0F80
0780
0000
0000
0000
0000
ENDCHAR
STARTCHAR LATIN CAPITAL LETTER N WITH ACUTE
ENCODING 323
SWIDTH 1500 0
DWIDTH 12 0
BBX 12 24 0 -4
BITMAP
00C0
0180
0300
0600
0000
0000
6060
6060
6060
7060
7860
6C60
6660
6360
61E0
60E0
6060
6060
6060
6060
0000
0000
0000
0000
ENDCHAR
STARTCHAR LATIN SMALL LETTER N WITH ACUTE
ENCODING 324
SWIDTH 1500 0
DWIDTH 12 0
BBX 12 24 0 -4
BITMAP
0000
0000
0000
0000
00C0
0180
0300
0600
0000
0000
7F80
7FC0
6060
6060
6060
6060
6060
6060
6060
6060
0000
0000
0000
0000
ENDCHAR
STARTCHAR LATIN CAPITAL LETTER N WITH CEDILLA
ENCODING 325
SWIDTH 1500 0
DWIDTH 12 0
BBX 12 24 0 -4
BITMAP
0000
0000
0000
0000
0000
0000
6060
6060
6060
7060
7860
6C60
6660
6360
61E0
60E0
6060
6060
6060
6660
0300
0180
1F80
0F00
ENDCHAR
STARTCHAR LATIN SMALL LETTER N WITH CEDILLA
ENCODING 326
SWIDTH 1500 0
DWIDTH 12 0
BBX 12 24 0 -4
BITMAP
0000
0000
0000
0000
0000
0000
0000
0000
0000
0000
7F80
7FC0
6060
6060
6060
6060
6060
6060
6060
6660
0300
0180
1F80
0F00
ENDCHAR
STARTCHAR LATIN CAPITAL LETTER N WITH CARON
ENCODING 327
SWIDTH 1500 0
DWIDTH 12 0
BBX 12 24 0 -4
BITMAP
30C0
1980
0F00
0600
0000
0000
6060
6060
6060
7060
7860
6C60
6660
6360
61E0
60E0
6060
6060
6060
6060
0000
0000
0000
0000
ENDCHAR
STARTCHAR LATIN SMALL LETTER N WITH CARON
ENCODING 328
SWIDTH 1500 0
DWIDTH 12 0
BBX 12 24 0 -4
BITMAP
0000
0000
0000
0000
30C0
1980
0F00
0600
0000
0000
7F80
7FC0
6060
6060
6060
6060
6060
6060
6060
6060
0000
0000
0000
0000
ENDCHAR
STARTCHAR LATIN SMALL LETTER N PRECEDED BY APOSTROPHE
ENCODING 329
SWIDTH 1500 0
DWIDTH 12 0
BBX 12 24 0 -4
BITMAP
0000
0000
0000
0000
0000
0000
3000
3000
6000
C000
3FC0
3FE0
3030
3030
3030
3030
3030
3030
3030
3030
0000
0000
0000
0000
ENDCHAR
STARTCHAR LATIN CAPITAL LETTER ENG
ENCODING 330
SWIDTH 1500 0
DWIDTH 12 0
BBX 12 24 0 -4
BITMAP
0000
0000
0000
0000
0000
0000
6060
6060
6060
7060
7860
6C60
6660
6360
61E0
60E0
6060
6060
6060
6060
0060
0060
01C0
0180
ENDCHAR
STARTCHAR LATIN SMALL LETTER ENG
ENCODING 331
SWIDTH 1500 0
DWIDTH 12 0
BBX 12 24 0 -4
BITMAP
0000
0000
0000
0000
0000
0000
0000
0000
0000
0000
7F80
7FC0
6060
6060
6060
6060
6060
6060
6060
6060
0060
0060
01C0
0180
ENDCHAR
STARTCHAR LATIN CAPITAL LETTER O WITH MACRON
ENCODING 332
SWIDTH 1500 0
DWIDTH 12 0
BBX 12 24 0 -4
BITMAP
0000
0000
3FC0
3FC0
0000
0000
1F80
3FC0
6060
6060
6060
6060
6060
6060
6060
6060
6060
6060
3FC0
1F80
0000
0000
0000
0000
ENDCHAR
STARTCHAR LATIN SMALL LETTER O WITH MACRON
ENCODING 333
SWIDTH 1500 0
DWIDTH 12 0
BBX 12 24 0 -4
BITMAP
0000
0000
0000
0000
0000
0000
3FC0
3FC0
0000
0000
1F80
3FC0
6060
6060
6060
6060
6060
6060
3FC0
1F80
0000
0000
0000
0000
ENDCHAR
STARTCHAR LATIN CAPITAL LETTER O WITH BREVE
ENCODING 334
SWIDTH 1500 0
DWIDTH 12 0
BBX 12 24 0 -4
BITMAP
0000
6060
3FC0
1F80
0000
0000
1F80
3FC0
6060
6060
6060
6060
6060
6060
6060
6060
6060
6060
3FC0
1F80
0000
0000
0000
0000
ENDCHAR
STARTCHAR LATIN SMALL LETTER O WITH BREVE
ENCODING 335
SWIDTH 1500 0
DWIDTH 12 0
BBX 12 24 0 -4
BITMAP
0000
0000
0000
0000
0000
6060
3FC0
1F80
0000
0000
1F80
3FC0
6060
6060
6060
6060
6060
6060
3FC0
1F80
0000
0000
0000
0000
ENDCHAR
STARTCHAR LATIN CAPITAL LETTER O WITH DOUBLE ACUTE
ENCODING 336
SWIDTH 1500 0
DWIDTH 12 0
BBX 12 24 0 -4
BITMAP
0330
0660
0CC0
1980
0000
0000
1F80
3FC0
6060
6060
6060
6060
6060
6060
6060
6060
6060
6060
3FC0
1F80
0000
0000
0000
0000
ENDCHAR
STARTCHAR LATIN SMALL LETTER O WITH DOUBLE ACUTE
ENCODING 337
SWIDTH 1500 0
DWIDTH 12 0
BBX 12 24 0 -4
BITMAP
0000
0000
0000
0000
0330
0660
0CC0
1980
0000
0000
1F80
3FC0
6060
6060
6060
6060
6060
6060
3FC0
1F80
0000
0000
0000
0000
ENDCHAR
STARTCHAR LATIN CAPITAL LIGATURE OE
ENCODING 338
SWIDTH 1500 0
DWIDTH 12 0
BBX 12 24 0 -4
BITMAP
0000
0000
0000
0000
0000
0000
3FF0
7FF0
C600
C600
C600
C600
C7C0
C7C0
C600
C600
C600
C600
7FF0
3FF0
0000
0000
0000
0000
ENDCHAR
STARTCHAR LATIN SMALL LIGATURE OE
ENCODING 339
SWIDTH 1500 0
DWIDTH 12 0
BBX 12 24 0 -4
BITMAP
0000
0000
0000
0000
0000
0000
0000
0000
0000
0000
39C0
7FE0
C630
C630
C7F0
C7F0
C600
C600
7FE0
39E0
0000
0000
0000
0000
ENDCHAR
STARTCHAR LATIN CAPITAL LETTER R WITH ACUTE
ENCODING 340
SWIDTH 1500 0
DWIDTH 12 0
BBX 12 24 0 -4
BITMAP
00C0
0180
0300
0600
0000
0000
7F80
7FC0
6060
6060
6060
6060
6060
6060
7FC0
7F80
6300
6180
60C0
6060
0000
0000
0000
0000
ENDCHAR
STARTCHAR LATIN SMALL LETTER R WITH ACUTE
ENCODING 341
SWIDTH 1500 0
DWIDTH 12 0
BBX 12 24 0 -4
BITMAP
0000
0000
0000
0000
00C0
0180
0300
0600
0000
0000
67E0
6FE0
7800
7000
6000
6000
6000
6000
6000
6000
0000
0000
0000
0000
ENDCHAR
STARTCHAR LATIN CAPITAL LETTER R WITH CEDILLA
ENCODING 342
SWIDTH 1500 0
DWIDTH 12 0
BBX 12 24 0 -4
BITMAP
0000
0000
0000
0000
0000
0000
7F80
7FC0
6060
6060
6060
6060
6060
6060
7FC0
7F80
6300
6180
60C0
6660
0300
0180
1F80
0F00
ENDCHAR
STARTCHAR LATIN SMALL LETTER R WITH CEDILLA
ENCODING 343
SWIDTH 1500 0
DWIDTH 12 0
BBX 12 24 0 -4
BITMAP
0000
0000
0000
0000
0000
0000
0000
0000
0000
0000
33F0
37F0
3C00
3800
3000
3000
3000
3000
3000
3000
1800
0C00
FC00
7800
ENDCHAR
STARTCHAR LATIN CAPITAL LETTER R WITH CARON
ENCODING 344
SWIDTH 1500 0
DWIDTH 12 0
BBX 12 24 0 -4
BITMAP
30C0
1980
0F00
0600
0000
0000
7F80
7FC0
6060
6060
6060
6060
6060
6060
7FC0
7F80
6300
6180
60C0
6060
0000
0000
0000
0000
ENDCHAR
STARTCHAR LATIN SMALL LETTER R WITH CARON
ENCODING 345
SWIDTH 1500 0
DWIDTH 12 0
BBX 12 24 0 -4
BITMAP
0000
0000
0000
0000
30C0
1980
0F00
0600
0000
0000
67E0
6FE0
7800
7000
6000
6000
6000
6000
6000
6000
0000
0000
0000
0000
ENDCHAR
STARTCHAR LATIN CAPITAL LETTER S WITH ACUTE
ENCODING 346
SWIDTH 1500 0
DWIDTH 12 0
BBX 12 24 0 -4
BITMAP
00C0
0180
0300
0600
0000
0000
1FE0
3FE0
6000
6000
6000
6000
3F80
1FC0
0060
0060
0060
0060
7FC0
7F80
0000
0000
0000
0000
ENDCHAR
STARTCHAR LATIN SMALL LETTER S WITH ACUTE
ENCODING 347
SWIDTH 1500 0
DWIDTH 12 0
BBX 12 24 0 -4
BITMAP
0000
0000
0000
0000
00C0
0180
0300
0600
0000
0000
1FE0
3FE0
6000
6000
3F80
1FC0
0060
0060
7FC0
7F80
0000
0000
0000
0000
ENDCHAR
STARTCHAR LATIN CAPITAL LETTER S WITH CIRCUMFLEX
ENCODING 348
SWIDTH 1500 0
DWIDTH 12 0
BBX 12 24 0 -4
BITMAP
0600
0F00
1980
30C0
0000
0000
1FE0
3FE0
6000
6000
6000
6000
3F80
1FC0
0060
0060
0060
0060
7FC0
7F80
0000
0000
0000
0000
ENDCHAR
STARTCHAR LATIN SMALL LETTER S WITH CIRCUMFLEX
ENCODING 349
SWIDTH 1500 0
DWIDTH 12 0
BBX 12 24 0 -4
BITMAP
0000
0000
0000
0000
0600
0F00
1980
30C0
0000
0000
1FE0
3FE0
6000
6000
3F80
1FC0
0060
0060
7FC0
7F80
0000
0000
0000
0000
ENDCHAR
STARTCHAR LATIN CAPITAL LETTER S WITH CEDILLA
ENCODING 350
SWIDTH 1500 0
DWIDTH 12 0
BBX 12 24 0 -4
BITMAP
0000
0000
0000
0000
0000
0000
1FE0
3FE0
6000
6000
6000
6000
3F80
1FC0
0060
0060
0060
0060
7FC0
7F80
0300
0180
1F80
0F00
ENDCHAR
STARTCHAR LATIN SMALL LETTER S WITH CEDILLA
ENCODING 351
SWIDTH 1500 0
DWIDTH 12 0
BBX 12 24 0 -4
BITMAP
0000
0000
0000
0000
0000
0000
0000
0000
0000
0000
1FE0
3FE0
6000
6000
3F80
1FC0
0060
0060
7FC0
7F80
0300
0180
1F80
0F00
ENDCHAR
STARTCHAR LATIN CAPITAL LETTER S WITH CARON
ENCODING 352
SWIDTH 1500 0
DWIDTH 12 0
BBX 12 24 0 -4
BITMAP
30C0
1980
0F00
0600
0000
0000
1FE0
3FE0
6000
6000
6000
6000
3F80
1FC0
0060
0060
0060
0060
7FC0
7F80
0000
0000
0000
0000
ENDCHAR
STARTCHAR LATIN SMALL LETTER S WITH CARON
ENCODING 353
SWIDTH 1500 0
DWIDTH 12 0
BBX 12 24 0 -4
BITMAP
0000
0000
0000
0000
30C0
1980
0F00
0600
0000
0000
1FE0
3FE0
6000
6000
3F80
1FC0
0060
0060
7FC0
7F80
0000
0000
0000
0000
ENDCHAR
STARTCHAR LATIN CAPITAL LETTER T WITH CEDILLA
ENCODING 354
SWIDTH 1500 0
DWIDTH 12 0
BBX 12 24 0 -4
BITMAP
0000
0000
0000
0000
0000
0000
7FE0
7FE0
0600
0600
0600
0600
0600
0600
0600
0600
0600
0600
0600
0600
0300
0180
1F80
0F00
ENDCHAR
STARTCHAR LATIN SMALL LETTER T WITH CEDILLA
ENCODING 355
SWIDTH 1500 0
DWIDTH 12 0
BBX 12 24 0 -4
BITMAP
0000
0000
0000
0000
0C00
0C00
0C00
0C00
0C00
0C00
3F00
3F00
0C00
0C00
0C00
0C00
0C00
0C00
07C0
03C0
0300
0180
1F80
0F00
ENDCHAR
STARTCHAR LATIN CAPITAL LETTER T WITH CARON
ENCODING 356
SWIDTH 1500 0
DWIDTH 12 0
BBX 12 24 0 -4
BITMAP
30C0
1980
0F00
0600
0000
0000
7FE0
7FE0
0600
0600
0600
0600
0600
0600
0600
0600
0600
0600
0600
0600
0000
0000
0000
0000
ENDCHAR
STARTCHAR LATIN SMALL LETTER T WITH CARON
ENCODING 357
SWIDTH 1500 0
DWIDTH 12 0
BBX 12 24 0 -4
BITMAP
0000
0000
0060
0060
0CC0
0D80
0C00
0C00
0C00
0C00
3F00
3F00
0C00
0C00
0C00
0C00
0C00
0C00
07C0
03C0
0000
0000
0000
0000
ENDCHAR
STARTCHAR LATIN CAPITAL LETTER T WITH STROKE
ENCODING 358
SWIDTH 1500 0
DWIDTH 12 0
BBX 12 24 0 -4
BITMAP
0000
0000
0000
0000
0000
0000
7FE0
7FE0
0600
0600
0600
0600
1F80
1F80
0600
0600
0600
0600
0600
0600
0000
0000
0000
0000
ENDCHAR
STARTCHAR LATIN SMALL LETTER T WITH STROKE
ENCODING 359
SWIDTH 1500 0
DWIDTH 12 0
BBX 12 24 0 -4
BITMAP
0000
0000
0000
0000
0C00
0C00
0C00
0C00
3F00
3F00
0C00
0C00
3F00
3F00
0C00
0C00
0C00
0C00
07C0
03C0
0000
0000
0000
0000
ENDCHAR
STARTCHAR LATIN CAPITAL LETTER U WITH TILDE
ENCODING 360
SWIDTH 1500 0
DWIDTH 12 0
BBX 12 24 0 -4
BITMAP
1860
3E60
67C0
6180
0000
0000
6060
6060
6060
6060
6060
6060
6060
6060
6060
6060
6060
6060
3FC0
1F80
0000
0000
0000
0000
ENDCHAR
STARTCHAR LATIN SMALL LETTER U WITH TILDE
ENCODING 361
SWIDTH 1500 0
DWIDTH 12 0
BBX 12 24 0 -4
BITMAP
0000
0000
0000
0000
1860
3E60
67C0
6180
0000
0000
6060
6060
6060
6060
6060
6060
6060
6060
3FE0
1FE0
0000
0000
0000
0000
ENDCHAR
STARTCHAR LATIN CAPITAL LETTER U WITH MACRON
ENCODING 362
SWIDTH 1500 0
DWIDTH 12 0
BBX 12 24 0 -4
BITMAP
0000
0000
3FC0
3FC0
0000
0000
6060
6060
6060
6060
6060
6060
6060
6060
6060
6060
6060
6060
3FC0
1F80
0000
0000
0000
0000
ENDCHAR
STARTCHAR LATIN SMALL LETTER U WITH MACRON
ENCODING 363
SWIDTH 1500 0
DWIDTH 12 0
BBX 12 24 0 -4
BITMAP
0000
0000
0000
0000
0000
0000
3FC0
3FC0
0000
0000
6060
6060
6060
6060
6060
6060
6060
6060
3FE0
1FE0
0000
0000
0000
0000
ENDCHAR
STARTCHAR LATIN CAPITAL LETTER U WITH BREVE
ENCODING 364
SWIDTH 1500 0
DWIDTH 12 0
BBX 12 24 0 -4
BITMAP
0000
6060
3FC0
1F80
0000
0000
6060
6060
6060
6060
6060
6060
6060
6060
6060
6060
6060
6060
3FC0
1F80
0000
0000
0000
0000
ENDCHAR
STARTCHAR LATIN SMALL LETTER U WITH BREVE
ENCODING 365
SWIDTH 1500 0
DWIDTH 12 0
BBX 12 24 0 -4
BITMAP
0000
0000
0000
0000
0000
6060
3FC0
1F80
0000
0000
6060
6060
6060
6060
6060
6060
6060
6060
3FE0
1FE0
0000
0000
0000
0000
ENDCHAR
STARTCHAR LATIN CAPITAL LETTER U WITH RING ABOVE
ENCODING 366
SWIDTH 1500 0
DWIDTH 12 0
BBX 12 24 0 -4
BITMAP
0600
0F00
1980
0F00
0600
0000
6060
6060
6060
6060
6060
6060
6060
6060
6060
6060
6060
6060
3FC0
1F80
0000
0000
0000
0000
ENDCHAR
STARTCHAR LATIN SMALL LETTER U WITH RING ABOVE
ENCODING 367
SWIDTH 1500 0
DWIDTH 12 0
BBX 12 24 0 -4
BITMAP
0000
0000
0600
0F00
1980
1980
0F00
0600
0000
0000
6060
6060
6060
6060
6060
6060
6060
6060
3FE0
1FE0
0000
0000
0000
0000
ENDCHAR
STARTCHAR LATIN CAPITAL LETTER U WITH DOUBLE ACUTE
ENCODING 368
SWIDTH 1500 0
DWIDTH 12 0
BBX 12 24 0 -4
BITMAP
0330
0660
0CC0
1980
0000
0000
6060
6060
6060
6060
6060
6060
6060
6060
6060
6060
6060
6060
3FC0
1F80
0000
0000
0000
0000
ENDCHAR
STARTCHAR LATIN SMALL LETTER U WITH DOUBLE ACUTE
ENCODING 369
SWIDTH 1500 0
DWIDTH 12 0
BBX 12 24 0 -4
BITMAP
0000
0000
0000
0000
0330
0660
0CC0
1980
0000
0000
6060
6060
6060
6060
6060
6060
6060
6060
3FE0
1FE0
0000
0000
0000
0000
ENDCHAR
STARTCHAR LATIN CAPITAL LETTER U WITH OGONEK
ENCODING 370
SWIDTH 1500 0
DWIDTH 12 0
BBX 12 24 0 -4
BITMAP
0000
0000
0000
0000
0000
0000
6060
6060
6060
6060
6060
6060
6060
6060
6060
6060
6060
6060
3FC0
1F80
0600
0600
0380
0180
ENDCHAR
STARTCHAR LATIN SMALL LETTER U WITH OGONEK
ENCODING 371
SWIDTH 1500 0
DWIDTH 12 0
BBX 12 24 0 -4
BITMAP
0000
0000
0000
0000
0000
0000
0000
0000
0000
0000
6060
6060
6060
6060
6060
6060
6060
6060
3FE0
1FE0
0600
0600
0380
0180
ENDCHAR
STARTCHAR LATIN CAPITAL LETTER W WITH CIRCUMFLEX
ENCODING 372
SWIDTH 1500 0
DWIDTH 12 0
BBX 12 24 0 -4
BITMAP
0600
0F00
1980
30C0
0000
0000
6060
6060
6060
6060
6060
6060
6060
6060
6660
6F60
7FE0
79E0
6060
4020
0000
0000
0000
0000
ENDCHAR
STARTCHAR LATIN SMALL LETTER W WITH CIRCUMFLEX
ENCODING 373
SWIDTH 1500 0
DWIDTH 12 0
BBX 12 24 0 -4
BITMAP
0000
0000
0000
0000
0600
0F00
1980
30C0
0000
0000
6060
6060
6060
6060
6660
6F60
7FE0
79E0
6060
4020
0000
0000
0000
0000
ENDCHAR
STARTCHAR LATIN CAPITAL LETTER Y WITH CIRCUMFLEX
ENCODING 374
SWIDTH 1500 0
DWIDTH 12 0
BBX 12 24 0 -4
BITMAP
0600
0F00
1980
30C0
0000
0000
6060
6060
6060
6060
30C0
1980
0F00
0600
0600
0600
0600
0600
0600
0600
0000
0000
0000
0000
ENDCHAR
STARTCHAR LATIN SMALL LETTER Y WITH CIRCUMFLEX
ENCODING 375
SWIDTH 1500 0
DWIDTH 12 0
BBX 12 24 0 -4
BITMAP
0000
0000
0000
0000
0600
0F00
1980
30C0
0000
0000
6060
6060
6060
6060
6060
6060
6060
6060
3FE0
1FE0
0060
0060
0FC0
0F80
ENDCHAR
STARTCHAR LATIN CAPITAL LETTER Y WITH DIAERESIS
ENCODING 376
SWIDTH 1500 0
DWIDTH 12 0
BBX 12 24 0 -4
BITMAP
0000
0000
1980
1980
0000
0000
6060
6060
6060
6060
30C0
1980
0F00
0600
0600
0600
0600
0600
0600
0600
0000
0000
0000
0000
ENDCHAR
STARTCHAR LATIN CAPITAL LETTER Z WITH ACUTE
ENCODING 377
SWIDTH 1500 0
DWIDTH 12 0
BBX 12 24 0 -4
BITMAP
00C0
0180
0300
0600
0000
0000
7FE0
7FE0
0060
00C0
0180
0300
0600
0C00
1800
3000
6000
6000
7FE0
7FE0
0000
0000
0000
0000
ENDCHAR
STARTCHAR LATIN SMALL LETTER Z WITH ACUTE
ENCODING 378
SWIDTH 1500 0
DWIDTH 12 0
BBX 12 24 0 -4
BITMAP
0000
0000
0000
0000
00C0
0180
0300
0600
0000
0000
7FE0
7FC0
0180
0300
0600
0C00
1800
3000
7FE0
7FE0
0000
0000
0000
0000
ENDCHAR
STARTCHAR LATIN CAPITAL LETTER Z WITH DOT ABOVE
ENCODING 379
SWIDTH 1500 0
DWIDTH 12 0
BBX 12 24 0 -4
BITMAP
0000
0000
0600
0600
0000
0000
7FE0
7FE0
0060
00C0
0180
0300
0600
0C00
1800
3000
6000
6000
7FE0
7FE0
0000
0000
0000
0000
ENDCHAR
STARTCHAR LATIN SMALL LETTER Z WITH DOT ABOVE
ENCODING 380
SWIDTH 1500 0
DWIDTH 12 0
BBX 12 24 0 -4
BITMAP
0000
0000
0000
0000
0000
0000
0600
0600
0000
0000
7FE0
7FC0
0180
0300
0600
0C00
1800
3000
7FE0
7FE0
0000
0000
0000
0000
ENDCHAR
STARTCHAR LATIN CAPITAL LETTER Z WITH CARON
ENCODING 381
SWIDTH 1500 0
DWIDTH 12 0
BBX 12 24 0 -4
BITMAP
30C0
1980
0F00
0600
0000
0000
7FE0
7FE0
0060
00C0
0180
0300
0600
0C00
1800
3000
6000
6000
7FE0
7FE0
0000
0000
0000
0000
ENDCHAR
STARTCHAR LATIN SMALL LETTER Z WITH CARON
ENCODING 382
SWIDTH 1500 0
DWIDTH 12 0
BBX 12 24 0 -4
BITMAP
0000
0000
0000
0000
30C0
1980
0F00
0600
0000
0000
7FE0
7FC0
0180
0300
0600
0C00
1800
3000
7FE0
7FE0
0000
0000
0000
0000
ENDCHAR
STARTCHAR LATIN SMALL LETTER LONG S
ENCODING 383
SWIDTH 1500 0
DWIDTH 12 0
BBX 12 24 0 -4
BITMAP
0000
0000
0000
0000
0780
0F80
1800
1800
1800
1800
1800
1800
1800
1800
1800
1800
1800
1800
1800
1800
0000
0000
0000
0000
ENDCHAR
STARTCHAR LATIN CAPITAL LETTER REVERSED E
ENCODING 398
SWIDTH 1500 0
DWIDTH 12 0
BBX 12 24 0 -4
BITMAP
0000
0000
0000
0000
0000
0000
7FE0
7FE0
0060
0060
0060
0060
07E0
07E0
0060
0060
0060
0060
7FE0
7FE0
0000
0000
0000
0000
ENDCHAR
STARTCHAR LATIN CAPITAL LETTER SCHWA
ENCODING 399
SWIDTH 1500 0
DWIDTH 12 0
BBX 12 24 0 -4
BITMAP
0000
0000
0000
0000
0000
0000
1F80
1FC0
0060
0060
0060
0060
7FE0
7FE0
6060
6060
6060
6060
3FC0
1F80
0000
0000
0000
0000
ENDCHAR
STARTCHAR LATIN SMALL LETTER F WITH HOOK
ENCODING 402
SWIDTH 1500 0
DWIDTH 12 0
BBX 12 24 0 -4
BITMAP
0000
0000
0000
0000
01E0
03E0
0600
0600
0600
0600
1F80
1F80
0600
0600
0600
0600
0600
0600
0600
0600
0600
0600
7C00
7800
ENDCHAR
STARTCHAR LATIN CAPITAL LETTER O WITH HORN
ENCODING 416
SWIDTH 1500 0
DWIDTH 12 0
BBX 12 24 0 -4
BITMAP
0000
0000
0000
0000
0000
0030
3F30
7FB0
C0F0
C0E0
C0C0
C0C0
C0C0
C0C0
C0C0
C0C0
C0C0
C0C0
7F80
3F00
0000
0000
0000
0000
ENDCHAR
STARTCHAR LATIN SMALL LETTER O WITH HORN
ENCODING 417
SWIDTH 1500 0
DWIDTH 12 0
BBX 12 24 0 -4
BITMAP
0000
0000
0000
0000
0000
0000
0000
0000
0000
0030
3F30
7FB0
C0F0
C0E0
C0C0
C0C0
C0C0
C0C0
7F80
3F00
0000
0000
0000
0000
ENDCHAR
STARTCHAR LATIN CAPITAL LETTER U WITH HORN
ENCODING 431
SWIDTH 1500 0
DWIDTH 12 0
BBX 12 24 0 -4
BITMAP
0000
0000
0000
0000
0000
0030
C0F0
C0F0
C0F0
C0E0
C0C0
C0C0
C0C0
C0C0
C0C0
C0C0
C0C0
C0C0
7F80
3F00
0000
0000
0000
0000
ENDCHAR
STARTCHAR LATIN SMALL LETTER U WITH HORN
ENCODING 432
SWIDTH 1500 0
DWIDTH 12 0
BBX 12 24 0 -4
BITMAP
0000
0000
0000
0000
0000
0000
0000
0000
0000
0030
C0F0
C0F0
C0F0
C0E0
C0C0
C0C0
C0C0
C0C0
7FC0
3FC0
0000
0000
0000
0000
ENDCHAR
STARTCHAR LATIN CAPITAL LETTER Z WITH STROKE
ENCODING 437
SWIDTH 1500 0
DWIDTH 12 0
BBX 12 24 0 -4
BITMAP
0000
0000
0000
0000
0000
0000
7FE0
7FE0
0060
00C0
0180
0300
3FC0
3FC0
1800
3000
6000
6000
7FE0
7FE0
0000
0000
0000
0000
ENDCHAR
STARTCHAR LATIN SMALL LETTER Z WITH STROKE
ENCODING 438
SWIDTH 1500 0
DWIDTH 12 0
BBX 12 24 0 -4
BITMAP
0000
0000
0000
0000
0000
0000
0000
0000
0000
0000
7FE0
7FC0
0180
0300
3FC0
3FC0
1800
3000
7FE0
7FE0
0000
0000
0000
0000
ENDCHAR
STARTCHAR LATIN CAPITAL LETTER EZH
ENCODING 439
SWIDTH 1500 0
DWIDTH 12 0
BBX 12 24 0 -4
BITMAP
0000
0000
0000
0000
0000
0000
7FE0
7FC0
0180
0300
0600
0300
0180
00C0
0060
0060
0060
0060
7FC0
7F80
0000
0000
0000
0000
ENDCHAR
STARTCHAR LATIN CAPITAL LETTER A WITH CARON
ENCODING 461
SWIDTH 1500 0
DWIDTH 12 0
BBX 12 24 0 -4
BITMAP
30C0
1980
0F00
0600
0000
0000
1F80
3FC0
6060
6060
6060
6060
6060
6060
7FE0
7FE0
6060
6060
6060
6060
0000
0000
0000
0000
ENDCHAR
STARTCHAR LATIN SMALL LETTER A WITH CARON
ENCODING 462
SWIDTH 1500 0
DWIDTH 12 0
BBX 12 24 0 -4
BITMAP
0000
0000
0000
0000
30C0
1980
0F00
0600
0000
0000
1F80
1FC0
0060
0060
1FE0
3FE0
6060
6060
3FE0
1FE0
0000
0000
0000
0000
ENDCHAR
STARTCHAR LATIN CAPITAL LETTER I WITH CARON
ENCODING 463
SWIDTH 1500 0
DWIDTH 12 0
BBX 12 24 0 -4
BITMAP
30C0
1980
0F00
0600
0000
0000
0F00
0F00
0600
0600
0600
0600
0600
0600
0600
0600
0600
0600
0F00
0F00
0000
0000
0000
0000
ENDCHAR
STARTCHAR LATIN SMALL LETTER I WITH CARON
ENCODING 464
SWIDTH 1500 0
DWIDTH 12 0
BBX 12 24 0 -4
BITMAP
0000
0000
0000
0000
30C0
1980
0F00
0600
0000
0000
0E00
0E00
0600
0600
0600
0600
0600
0600
0600
0600
0000
0000
0000
0000
ENDCHAR
STARTCHAR LATIN CAPITAL LETTER O WITH CARON
ENCODING 465
SWIDTH 1500 0
DWIDTH 12 0
BBX 12 24 0 -4
BITMAP
30C0
1980
0F00
0600
0000
0000
1F80
3FC0
6060
6060
6060
6060
6060
6060
6060
6060
6060
6060
3FC0
1F80
0000
0000
0000
0000
ENDCHAR
STARTCHAR LATIN SMALL LETTER O WITH CARON
ENCODING 466
SWIDTH 1500 0
DWIDTH 12 0
BBX 12 24 0 -4
BITMAP
0000
0000
0000
0000
30C0
1980
0F00
0600
0000
0000
1F80
3FC0
6060
6060
6060
6060
6060
6060
3FC0
1F80
0000
0000
0000
0000
ENDCHAR
STARTCHAR LATIN CAPITAL LETTER U WITH CARON
ENCODING 467
SWIDTH 1500 0
DWIDTH 12 0
BBX 12 24 0 -4
BITMAP
30C0
1980
0F00
0600
0000
0000
6060
6060
6060
6060
6060
6060
6060
6060
6060
6060
6060
6060
3FC0
1F80
0000
0000
0000
0000
ENDCHAR
STARTCHAR LATIN SMALL LETTER U WITH CARON
ENCODING 468
SWIDTH 1500 0
DWIDTH 12 0
BBX 12 24 0 -4
BITMAP
0000
0000
0000
0000
30C0
1980
0F00
0600
0000
0000
6060
6060
6060
6060
6060
6060
6060
6060
3FE0
1FE0
0000
0000
0000
0000
ENDCHAR
STARTCHAR LATIN CAPITAL LETTER U WITH DIAERESIS AND MACRON
ENCODING 469
SWIDTH 1500 0
DWIDTH 12 0
BBX 12 24 0 -4
BITMAP
3FC0
3FC0
0000
1980
1980
0000
6060
6060
6060
6060
6060
6060
6060
6060
6060
6060
6060
6060
3FC0
1F80
0000
0000
0000
0000
ENDCHAR
STARTCHAR LATIN SMALL LETTER U WITH DIAERESIS AND MACRON
ENCODING 470
SWIDTH 1500 0
DWIDTH 12 0
BBX 12 24 0 -4
BITMAP
0000
0000
3FC0
3FC0
0000
0000
1980
1980
0000
0000
6060
6060
6060
6060
6060
6060
6060
6060
3FE0
1FE0
0000
0000
0000
0000
ENDCHAR
STARTCHAR LATIN CAPITAL LETTER U WITH DIAERESIS AND ACUTE
ENCODING 471
SWIDTH 1500 0
DWIDTH 12 0
BBX 12 24 0 -4
BITMAP
00C0
0180
0300
6660
6060
0000
6060
6060
6060
6060
6060
6060
6060
6060
6060
6060
6060
6060
3FC0
1F80
0000
0000
0000
0000
ENDCHAR
STARTCHAR LATIN SMALL LETTER U WITH DIAERESIS AND ACUTE
ENCODING 472
SWIDTH 1500 0
DWIDTH 12 0
BBX 12 24 0 -4
BITMAP
00C0
0180
0300
0600
0000
0000
1980
1980
0000
0000
6060
6060
6060
6060
6060
6060
6060
6060
3FE0
1FE0
0000
0000
0000
0000
ENDCHAR
STARTCHAR LATIN CAPITAL LETTER U WITH DIAERESIS AND CARON
ENCODING 473
SWIDTH 1500 0
DWIDTH 12 0
BBX 12 24 0 -4
BITMAP
30C0
1980
0F00
6660
6060
0000
6060
6060
6060
6060
6060
6060
6060
6060
6060
6060
6060
6060
3FC0
1F80
0000
0000
0000
0000
ENDCHAR
STARTCHAR LATIN SMALL LETTER U WITH DIAERESIS AND CARON
ENCODING 474
SWIDTH 1500 0
DWIDTH 12 0
BBX 12 24 0 -4
BITMAP
30C0
1980
0F00
0600
0000
0000
1980
1980
0000
0000
6060
6060
6060
6060
6060
6060
6060
6060
3FE0
1FE0
0000
0000
0000
0000
ENDCHAR
STARTCHAR LATIN CAPITAL LETTER U WITH DIAERESIS AND GRAVE
ENCODING 475
SWIDTH 1500 0
DWIDTH 12 0
BBX 12 24 0 -4
BITMAP
3000
1800
0C00
6660
6060
0000
6060
6060
6060
6060
6060
6060
6060
6060
6060
6060
6060
6060
3FC0
1F80
0000
0000
0000
0000
ENDCHAR
STARTCHAR LATIN SMALL LETTER U WITH DIAERESIS AND GRAVE
ENCODING 476
SWIDTH 1500 0
DWIDTH 12 0
BBX 12 24 0 -4
BITMAP
3000
1800
0C00
0600
0000
0000
1980
1980
0000
0000
6060
6060
6060
6060
6060
6060
6060
6060
3FE0
1FE0
0000
0000
0000
0000
ENDCHAR
STARTCHAR LATIN SMALL LETTER TURNED E
ENCODING 477
SWIDTH 1500 0
DWIDTH 12 0
BBX 12 24 0 -4
BITMAP
0000
0000
0000
0000
0000
0000
0000
0000
0000
0000
1F80
1FC0
0060
0060
7FE0
7FE0
6060
6060
3FC0
1F80
0000
0000
0000
0000
ENDCHAR
STARTCHAR LATIN CAPITAL LETTER G WITH STROKE
ENCODING 484
SWIDTH 1500 0
DWIDTH 12 0
BBX 12 24 0 -4
BITMAP
0000
0000
0000
0000
0000
0000
1FE0
3FE0
6000
6000
6000
6000
61E0
61E0
6060
63F0
63F0
6060
3FE0
1FE0
0000
0000
0000
0000
ENDCHAR
STARTCHAR LATIN SMALL LETTER G WITH STROKE
ENCODING 485
SWIDTH 1500 0
DWIDTH 12 0
BBX 12 24 0 -4
BITMAP
0000
0000
0000
0000
0000
0000
0000
0000
0000
0000
1FE0
3FE0
6060
6060
FFF0
FFF0
6060
6060
3FE0
1FE0
0060
0060
0FC0
0F80
ENDCHAR
STARTCHAR LATIN CAPITAL LETTER G WITH CARON
ENCODING 486
SWIDTH 1500 0
DWIDTH 12 0
BBX 12 24 0 -4
BITMAP
30C0
1980
0F00
0600
0000
0000
1FE0
3FE0
6000
6000
6000
6000
61E0
61E0
6060
6060
6060
6060
3FE0
1FE0
0000
0000
0000
0000
ENDCHAR
STARTCHAR LATIN SMALL LETTER G WITH CARON
ENCODING 487
SWIDTH 1500 0
DWIDTH 12 0
BBX 12 24 0 -4
BITMAP
0000
0000
0000
0000
30C0
1980
0F00
0600
0000
0000
1FE0
3FE0
6060
6060
6060
6060
6060
6060
3FE0
1FE0
0060
0060
0FC0
0F80
ENDCHAR
STARTCHAR LATIN CAPITAL LETTER K WITH CARON
ENCODING 488
SWIDTH 1500 0
DWIDTH 12 0
BBX 12 24 0 -4
BITMAP
30C0
1980
0F00
0600
0000
0000
6060
60C0
6180
6300
6600
6C00
7800
7800
6C00
6600
6300
6180
60C0
6060
0000
0000
0000
0000
ENDCHAR
STARTCHAR LATIN SMALL LETTER K WITH CARON
ENCODING 489
SWIDTH 1500 0
DWIDTH 12 0
BBX 12 24 0 -4
BITMAP
30C0
1980
0F00
0600
3000
3000
3000
3000
3000
3000
30C0
3180
3300
3600
3C00
3C00
3600
3300
3180
30C0
0000
0000
0000
0000
ENDCHAR
STARTCHAR LATIN CAPITAL LETTER EZH WITH CARON
ENCODING 494
SWIDTH 1500 0
DWIDTH 12 0
BBX 12 24 0 -4
BITMAP
30C0
1980
0F00
0600
0000
0000
7FE0
7FC0
0180
0300
0600
0300
0180
00C0
0060
0060
0060
0060
7FC0
7F80
0000
0000
0000
0000
ENDCHAR
STARTCHAR LATIN SMALL LETTER EZH WITH CARON
ENCODING 495
SWIDTH 1500 0
DWIDTH 12 0
BBX 12 24 0 -4
BITMAP
0000
0000
0000
0000
30C0
1980
0F00
0600
0000
0000
7FE0
7FC0
0180
0300
0600
0300
0180
00C0
0060
0060
0060
0060
7FC0
7F80
ENDCHAR
STARTCHAR LATIN CAPITAL LETTER A WITH RING ABOVE AND ACUTE
ENCODING 506
SWIDTH 1500 0
DWIDTH 12 0
BBX 12 24 0 -4
BITMAP
0180
0300
0600
0F00
1980
0F00
1F80
3FC0
6060
6060
6060
6060
6060
6060
7FE0
7FE0
6060
6060
6060
6060
0000
0000
0000
0000
ENDCHAR
STARTCHAR LATIN SMALL LETTER A WITH RING ABOVE AND ACUTE
ENCODING 507
SWIDTH 1500 0
DWIDTH 12 0
BBX 12 24 0 -4
BITMAP
00C0
0180
0300
0600
0600
0F00
1980
1980
0F00
0600
1F80
1FC0
0060
0060
1FE0
3FE0
6060
6060
3FE0
1FE0
0000
0000
0000
0000
ENDCHAR
STARTCHAR LATIN CAPITAL LETTER AE WITH ACUTE
ENCODING 508
SWIDTH 1500 0
DWIDTH 12 0
BBX 12 24 0 -4
BITMAP
00C0
0180
0300
0600
0000
0000
3FF0
7FF0
C600
C600
C600
C600
C7C0
C7C0
FE00
FE00
C600
C600
C7F0
C7F0
0000
0000
0000
0000
ENDCHAR
STARTCHAR LATIN SMALL LETTER AE WITH ACUTE
ENCODING 509
SWIDTH 1500 0
DWIDTH 12 0
BBX 12 24 0 -4
BITMAP
0000
0000
0000
0000
00C0
0180
0300
0600
0000
0000
39C0
3FE0
0630
0630
3FF0
7FF0
C600
C600
7FE0
39E0
0000
0000
0000
0000
ENDCHAR
STARTCHAR LATIN CAPITAL LETTER O WITH STROKE AND ACUTE
ENCODING 510
SWIDTH 1500 0
DWIDTH 12 0
BBX 12 24 0 -4
BITMAP
00C0
0180
0300
0600
0000
0000
1FE0
3FE0
61E0
61E0
6360
6360
6660
6660
6C60
6C60
7860
7860
7FC0
7F80
0000
0000
0000
0000
ENDCHAR
STARTCHAR LATIN SMALL LETTER O WITH STROKE AND ACUTE
ENCODING 511
SWIDTH 1500 0
DWIDTH 12 0
BBX 12 24 0 -4
BITMAP
0000
0000
0000
0000
00C0
0180
0300
0600
0000
0000
1FE0
3FE0
61E0
63E0
6760
6E60
7C60
7860
7FC0
7F80
0000
0000
0000
0000
ENDCHAR
STARTCHAR LATIN CAPITAL LETTER S WITH COMMA BELOW
ENCODING 536
SWIDTH 1500 0
DWIDTH 12 0
BBX 12 24 0 -4
BITMAP
0000
0000
0000
0000
0000
0000
1FE0
3FE0
6000
6000
6000
6000
3F80
1FC0
0060
0060
0060
0060
7FC0
7F80
0600
0600
0C00
1800
ENDCHAR
STARTCHAR LATIN SMALL LETTER S WITH COMMA BELOW
ENCODING 537
SWIDTH 1500 0
DWIDTH 12 0
BBX 12 24 0 -4
BITMAP
0000
0000
0000
0000
0000
0000
0000
0000
0000
0000
1FE0
3FE0
6000
6000
3F80
1FC0
0060
0060
7FC0
7F80
0600
0600
0C00
1800
ENDCHAR
STARTCHAR LATIN CAPITAL LETTER T WITH COMMA BELOW
ENCODING 538
SWIDTH 1500 0
DWIDTH 12 0
BBX 12 24 0 -4
BITMAP
0000
0000
0000
0000
0000
0000
7FE0
7FE0
0600
0600
0600
0600
0600
0600
0600
0600
0600
0600
0600
0600
0600
0600
0C00
1800
ENDCHAR
STARTCHAR LATIN SMALL LETTER T WITH COMMA BELOW
ENCODING 539
SWIDTH 1500 0
DWIDTH 12 0
BBX 12 24 0 -4
BITMAP
0000
0000
0000
0000
0C00
0C00
0C00
0C00
0C00
0C00
3F00
3F00
0C00
0C00
0C00
0C00
0C00
0C00
07C0
03C0
0180
0180
0300
0600
ENDCHAR
STARTCHAR LATIN SMALL LETTER TURNED A
ENCODING 592
SWIDTH 1500 0
DWIDTH 12 0
BBX 12 24 0 -4
BITMAP
0000
0000
0000
0000
0000
0000
0000
0000
0000
0000
7F80
7FC0
6060
6060
7FC0
7F80
6000
6000
3F80
1F80
0000
0000
0000
0000
ENDCHAR
STARTCHAR LATIN SMALL LETTER ALPHA
ENCODING 593
SWIDTH 1500 0
DWIDTH 12 0
BBX 12 24 0 -4
BITMAP
0000
0000
0000
0000
0000
0000
0000
0000
0000
0000
1FE0
3FE0
6060
6060
6060
6060
6060
6060
3FE0
1FE0
0000
0000
0000
0000
ENDCHAR
STARTCHAR LATIN SMALL LETTER TURNED ALPHA
ENCODING 594
SWIDTH 1500 0
DWIDTH 12 0
BBX 12 24 0 -4
BITMAP
0000
0000
0000
0000
0000
0000
0000
0000
0000
0000
7F80
7FC0
6060
6060
6060
6060
6060
6060
7FC0
7F80
0000
0000
0000
0000
ENDCHAR
STARTCHAR LATIN SMALL LETTER B WITH HOOK
ENCODING 595
SWIDTH 1500 0
DWIDTH 12 0
BBX 12 24 0 -4
BITMAP
0000
0000
1800
3000
6000
6000
6000
6000
6000
6000
7F80
7FC0
6060
6060
6060
6060
6060
6060
7FC0
7F80
0000
0000
0000
0000
ENDCHAR
STARTCHAR LATIN SMALL LETTER OPEN O
ENCODING 596
SWIDTH 1500 0
DWIDTH 12 0
BBX 12 24 0 -4
BITMAP
0000
0000
0000
0000
0000
0000
0000
0000
0000
0000
7F80
7FC0
0060
0060
0060
0060
0060
0060
7FC0
7F80
0000
0000
0000
0000
ENDCHAR
STARTCHAR LATIN SMALL LETTER C WITH CURL
ENCODING 597
SWIDTH 1500 0
DWIDTH 12 0
BBX 12 24 0 -4
BITMAP
0000
0000
0000
0000
0000
0000
0000
0000
0000
0000
1FE0
3FE0
6000
6000
6000
61C0
63E0
6360
3FE0
1FC0
0300
0300
0000
0000
ENDCHAR
STARTCHAR LATIN SMALL LETTER D WITH TAIL
ENCODING 598
SWIDTH 1500 0
DWIDTH 12 0
BBX 12 24 0 -4
BITMAP
0000
0000
0000
0000
00C0
00C0
00C0
00C0
00C0
00C0
3FC0
7FC0
C0C0
C0C0
C0C0
C0C0
C0C0
C0C0
7FC0
3FC0
00C0
00C0
0060
0030
ENDCHAR
STARTCHAR LATIN SMALL LETTER D WITH HOOK
ENCODING 599
SWIDTH 1500 0
DWIDTH 12 0
BBX 12 24 0 -4
BITMAP
0000
0000
0030
0060
00C0
00C0
00C0
00C0
00C0
00C0
3FC0
7FC0
C0C0
C0C0
C0C0
C0C0
C0C0
C0C0
7FC0
3FC0
0000
0000
0000
0000
ENDCHAR
STARTCHAR LATIN SMALL LETTER REVERSED E
ENCODING 600
SWIDTH 1500 0
DWIDTH 12 0
BBX 12 24 0 -4
BITMAP
0000
0000
0000
0000
0000
0000
0000
0000
0000
0000
1F80
3FC0
6060
6060
7FE0
7FE0
0060
0060
1FC0
1F80
0000
0000
0000
0000
ENDCHAR
STARTCHAR LATIN SMALL LETTER SCHWA
ENCODING 601
SWIDTH 1500 0
DWIDTH 12 0
BBX 12 24 0 -4
BITMAP
0000
0000
0000
0000
0000
0000
0000
0000
0000
0000
1F80
1FC0
0060
0060
7FE0
7FE0
6060
6060
3FC0
1F80
0000
0000
0000
0000
ENDCHAR
STARTCHAR LATIN SMALL LETTER SCHWA WITH HOOK
ENCODING 602
SWIDTH 1500 0
DWIDTH 12 0
BBX 12 24 0 -4
BITMAP
0000
0000
0000
0000
0000
0000
0000
0000
0000
0000
3E00
3F00
0180
0180
FFE0
FFF0
C190
C180
7F00
3E00
0000
0000
0000
0000
ENDCHAR
STARTCHAR LATIN SMALL LETTER OPEN E
ENCODING 603
SWIDTH 1500 0
DWIDTH 12 0
BBX 12 24 0 -4
BITMAP
0000
0000
0000
0000
0000
0000
0000
0000
0000
0000
1FE0
3FE0
6000
6000
3E00
3E00
6000
6000
3FE0
1FE0
0000
0000
0000
0000
ENDCHAR
STARTCHAR LATIN SMALL LETTER REVERSED OPEN E
ENCODING 604
SWIDTH 1500 0
DWIDTH 12 0
BBX 12 24 0 -4
BITMAP
0000
0000
0000
0000
0000
0000
0000
0000
0000
0000
7F80
7FC0
0060
0060
07C0
07C0
0060
0060
7FC0
7F80
0000
0000
0000
0000
ENDCHAR
STARTCHAR LATIN SMALL LETTER REVERSED OPEN E WITH HOOK
ENCODING 605
SWIDTH 1500 0
DWIDTH 12 0
BBX 12 24 0 -4
BITMAP
0000
0000
0000
0000
0000
0000
0000
0000
0000
0000
FE00
FF00
01E0
01F0
1F10
1F00
0180
0180
FF00
FE00
0000
0000
0000
0000
ENDCHAR
STARTCHAR LATIN SMALL LETTER CLOSED REVERSED OPEN E
ENCODING 606
SWIDTH 1500 0
DWIDTH 12 0
BBX 12 24 0 -4
BITMAP
0000
0000
0000
0000
0000
0000
0000
0000
0000
0000
1F80
3FC0
6060
6060
67C0
67C0
6060
6060
3FC0
1F80
0000
0000
0000
0000
ENDCHAR
STARTCHAR LATIN SMALL LETTER DOTLESS J WITH STROKE
ENCODING 607
SWIDTH 1500 0
DWIDTH 12 0
BBX 12 24 0 -4
BITMAP
0000
0000
0000
0000
0000
0000
0000
0000
0000
0000
0E00
0E00
0600
0600
1F80
1F80
0600
0600
0600
0600
0600
0600
0C00
1800
ENDCHAR
STARTCHAR LATIN SMALL LETTER G WITH HOOK
ENCODING 608
SWIDTH 1500 0
DWIDTH 12 0
BBX 12 24 0 -4
BITMAP
0000
0000
0000
0000
0000
0000
0030
0060
00C0
00C0
3FC0
7FC0
C0C0
C0C0
C0C0
C0C0
C0C0
C0C0
7FC0
3FC0
00C0
00C0
1F80
1F00
ENDCHAR
STARTCHAR LATIN SMALL LETTER SCRIPT G
ENCODING 609
SWIDTH 1500 0
DWIDTH 12 0
BBX 12 24 0 -4
BITMAP
0000
0000
0000
0000
0000
0000
0000
0000
0000
0000
1FE0
3FE0
6060
6060
6060
6060
60E0
61E0
3F60
1E60
0060
0060
0FC0
0F80
ENDCHAR
STARTCHAR LATIN LETTER SMALL CAPITAL G
ENCODING 610
SWIDTH 1500 0
DWIDTH 12 0
BBX 12 24 0 -4
BITMAP
0000
0000
0000
0000
0000
0000
0000
0000
0000
0000
1FE0
3FE0
6000
6000
63E0
63E0
6060
6060
3FE0
1FE0
0000
0000
0000
0000
ENDCHAR
STARTCHAR LATIN SMALL LETTER GAMMA
ENCODING 611
SWIDTH 1500 0
DWIDTH 12 0
BBX 12 24 0 -4
BITMAP
0000
0000
0000
0000
0000
0000
0000
0000
0000
0000
6060
6060
6060
30C0
30C0
30C0
1980
1980
0F00
0F00
1980
1980
0F00
0600
ENDCHAR
STARTCHAR LATIN SMALL LETTER RAMS HORN
ENCODING 612
SWIDTH 1500 0
DWIDTH 12 0
BBX 12 24 0 -4
BITMAP
0000
0000
0000
0000
0000
0000
0000
0000
0000
0000
6060
30C0
1980
0F00
0600
0F00
1980
1980
0F00
0600
0000
0000
0000
0000
ENDCHAR
STARTCHAR LATIN SMALL LETTER TURNED H
ENCODING 613
SWIDTH 1500 0
DWIDTH 12 0
BBX 12 24 0 -4
BITMAP
0000
0000
0000
0000
0000
0000
0000
0000
0000
0000
6060
6060
6060
6060
6060
6060
6060
6060
3FE0
1FE0
0060
0060
0060
0060
ENDCHAR
STARTCHAR LATIN SMALL LETTER H WITH HOOK
ENCODING 614
SWIDTH 1500 0
DWIDTH 12 0
BBX 12 24 0 -4
BITMAP
0000
0000
1800
3000
6000
6000
6000
6000
6000
6000
7F80
7FC0
6060
6060
6060
6060
6060
6060
6060
6060
0000
0000
0000
0000
ENDCHAR
STARTCHAR LATIN SMALL LETTER HENG WITH HOOK
ENCODING 615
SWIDTH 1500 0
DWIDTH 12 0
BBX 12 24 0 -4
BITMAP
0000
0000
1800
3800
6000
6000
6000
6000
6000
6000
7F80
7FC0
6060
6060
6060
6060
6060
6060
6060
6060
0060
0060
01C0
0180
ENDCHAR
STARTCHAR LATIN SMALL LETTER I WITH STROKE
ENCODING 616
SWIDTH 1500 0
DWIDTH 12 0
BBX 12 24 0 -4
BITMAP
0000
0000
0000
0000
0000
0000
0600
0600
0000
0000
0E00
0E00
0600
0600
1F80
1F80
0600
0600
0600
0600
0000
0000
0000
0000
ENDCHAR
STARTCHAR LATIN SMALL LETTER IOTA
ENCODING 617
SWIDTH 1500 0
DWIDTH 12 0
BBX 12 24 0 -4
BITMAP
0000
0000
0000
0000
0000
0000
0000
0000
0000
0000
0600
0600
0600
0600
0600
0600
0600
0600
0600
0300
0000
0000
0000
0000
ENDCHAR
STARTCHAR LATIN LETTER SMALL CAPITAL I
ENCODING 618
SWIDTH 1500 0
DWIDTH 12 0
BBX 12 24 0 -4
BITMAP
0000
0000
0000
0000
0000
0000
0000
0000
0000
0000
0F00
0F00
0600
0600
0600
0600
0600
0600
0F00
0F00
0000
0000
0000
0000
ENDCHAR
STARTCHAR LATIN SMALL LETTER L WITH MIDDLE TILDE
ENCODING 619
SWIDTH 1500 0
DWIDTH 12 0
BBX 12 24 0 -4
BITMAP
0000
0000
0000
0000
0600
0600
0600
0600
0600
0600
1E60
3E60
67C0
6780
0600
0600
0600
0600
03E0
01E0
0000
0000
0000
0000
ENDCHAR
STARTCHAR LATIN SMALL LETTER L WITH BELT
ENCODING 620
SWIDTH 1500 0
DWIDTH 12 0
BBX 12 24 0 -4
BITMAP
0000
0000
0000
0000
0600
0600
0600
0600
0600
3E00
7E00
6600
7FE0
3FE0
0600
0600
0600
0600
03E0
01E0
0000
0000
0000
0000
ENDCHAR
STARTCHAR LATIN SMALL LETTER L WITH RETROFLEX HOOK
ENCODING 621
SWIDTH 1500 0
DWIDTH 12 0
BBX 12 24 0 -4
BITMAP
0000
0000
0000
0000
1800
1800
1800
1800
1800
1800
1800
1800
1800
1800
1800
1800
1800
1800
0F80
0780
0180
0180
00C0
0060
ENDCHAR
STARTCHAR LATIN SMALL LETTER LEZH
ENCODING 622
SWIDTH 1500 0
DWIDTH 12 0
BBX 12 24 0 -4
BITMAP
0000
0000
0000
0000
C000
C000
C000
C000
C000
C000
DFF0
DFE0
C0C0
C180
C300
C180
C0C0
C060
7C30
3C30
0030
0030
0FE0
0FC0
ENDCHAR
STARTCHAR LATIN SMALL LETTER TURNED M
ENCODING 623
SWIDTH 1500 0
DWIDTH 12 0
BBX 12 24 0 -4
BITMAP
0000
0000
0000
0000
0000
0000
0000
0000
0000
0000
6060
6060
6660
6660
6660
6660
6660
6660
3FE0
19E0
0000
0000
0000
0000
ENDCHAR
STARTCHAR LATIN SMALL LETTER TURNED M WITH LONG LEG
ENCODING 624
SWIDTH 1500 0
DWIDTH 12 0
BBX 12 24 0 -4
BITMAP
0000
0000
0000
0000
0000
0000
0000
0000
0000
0000
6060
6060
6660
6660
6660
6660
6660
6660
3FE0
19E0
0060
0060
0060
0060
ENDCHAR
STARTCHAR LATIN SMALL LETTER M WITH HOOK
ENCODING 625
SWIDTH 1500 0
DWIDTH 12 0
BBX 12 24 0 -4
BITMAP
0000
0000
0000
0000
0000
0000
0000
0000
0000
0000
7980
7FC0
6660
6660
6660
6660
6660
6660
6060
6060
0060
0060
01C0
0180
ENDCHAR
STARTCHAR LATIN SMALL LETTER N WITH LEFT HOOK
ENCODING 626
SWIDTH 1500 0
DWIDTH 12 0
BBX 12 24 0 -4
BITMAP
0000
0000
0000
0000
0000
0000
0000
0000
0000
0000
3FC0
3FE0
3030
3030
3030
3030
3030
3030
3030
3030
3000
3000
E000
C000
ENDCHAR
STARTCHAR LATIN SMALL LETTER N WITH RETROFLEX HOOK
ENCODING 627
SWIDTH 1500 0
DWIDTH 12 0
BBX 12 24 0 -4
BITMAP
0000
0000
0000
0000
0000
0000
0000
0000
0000
0000
FF00
FF80
C0C0
C0C0
C0C0
C0C0
C0C0
C0C0
C0C0
C0C0
00C0
00C0
0070
0030
ENDCHAR
STARTCHAR LATIN LETTER SMALL CAPITAL N
ENCODING 628
SWIDTH 1500 0
DWIDTH 12 0
BBX 12 24 0 -4
BITMAP
0000
0000
0000
0000
0000
0000
0000
0000
0000
0000
6060
7060
7860
6C60
6660
6360
61E0
60E0
6060
6060
0000
0000
0000
0000
ENDCHAR
STARTCHAR LATIN SMALL LETTER BARRED O
ENCODING 629
SWIDTH 1500 0
DWIDTH 12 0
BBX 12 24 0 -4
BITMAP
0000
0000
0000
0000
0000
0000
0000
0000
0000
0000
1F80
3FC0
6060
6060
7FE0
7FE0
6060
6060
3FC0
1F80
0000
0000
0000
0000
ENDCHAR
STARTCHAR LATIN LETTER SMALL CAPITAL OE
ENCODING 630
SWIDTH 1500 0
DWIDTH 12 0
BBX 12 24 0 -4
BITMAP
0000
0000
0000
0000
0000
0000
0000
0000
0000
0000
3FF0
7FF0
C600
C600
C7C0
C7C0
C600
C600
7FF0
3FF0
0000
0000
0000
0000
ENDCHAR
STARTCHAR LATIN SMALL LETTER CLOSED OMEGA
ENCODING 631
SWIDTH 1500 0
DWIDTH 12 0
BBX 12 24 0 -4
BITMAP
0000
0000
0000
0000
0000
0000
0000
0000
0000
0000
0FC0
1FE0
3030
3030
3330
3330
3330
3330
1FE0
0CC0
0000
0000
0000
0000
ENDCHAR
STARTCHAR LATIN SMALL LETTER PHI
ENCODING 632
SWIDTH 1500 0
DWIDTH 12 0
BBX 12 24 0 -4
BITMAP
0000
0000
0000
0000
0000
0000
0600
0600
0600
0600
1F80
3FC0
6660
6660
6660
6660
6660
6660
3FC0
1F80
0600
0600
0600
0600
ENDCHAR
STARTCHAR LATIN SMALL LETTER TURNED R
ENCODING 633
SWIDTH 1500 0
DWIDTH 12 0
BBX 12 24 0 -4
BITMAP
0000
0000
0000
0000
0000
0000
0000
0000
0000
0000
0060
0060
0060
0060
0060
0060
00E0
01E0
7F60
7E60
0000
0000
0000
0000
ENDCHAR
STARTCHAR LATIN SMALL LETTER TURNED R WITH LONG LEG
ENCODING 634
SWIDTH 1500 0
DWIDTH 12 0
BBX 12 24 0 -4
BITMAP
0000
0000
0000
0000
0000
0000
0060
0060
0060
0060
0060
0060
0060
0060
0060
0060
00E0
01E0
7F60
7E60
0000
0000
0000
0000
ENDCHAR
STARTCHAR LATIN SMALL LETTER TURNED R WITH HOOK
ENCODING 635
SWIDTH 1500 0
DWIDTH 12 0
BBX 12 24 0 -4
BITMAP
0000
0000
0000
0000
0000
0000
0000
0000
0000
0000
00C0
00C0
00C0
00C0
00C0
00C0
01C0
03C0
FEC0
FCC0
00C0
00C0
0060
0030
ENDCHAR
STARTCHAR LATIN SMALL LETTER R WITH LONG LEG
ENCODING 636
SWIDTH 1500 0
DWIDTH 12 0
BBX 12 24 0 -4
BITMAP
0000
0000
0000
0000
0000
0000
0000
0000
0000
0000
67E0
6FE0
7800
7000
6000
6000
6000
6000
6000
6000
6000
6000
6000
6000
ENDCHAR
STARTCHAR LATIN SMALL LETTER R WITH TAIL
ENCODING 637
SWIDTH 1500 0
DWIDTH 12 0
BBX 12 24 0 -4
BITMAP
0000
0000
0000
0000
0000
0000
0000
0000
0000
0000
67E0
6FE0
7800
7000
6000
6000
6000
6000
6000
6000
6000
6000
3000
1800
ENDCHAR
STARTCHAR LATIN SMALL LETTER R WITH FISHHOOK
ENCODING 638
SWIDTH 1500 0
DWIDTH 12 0
BBX 12 24 0 -4
BITMAP
0000
0000
0000
0000
0000
0000
0000
0000
0000
0000
07E0
0FE0
1800
1800
1800
1800
1800
1800
7E00
7E00
0000
0000
0000
0000
ENDCHAR
STARTCHAR LATIN SMALL LETTER REVERSED R WITH FISHHOOK
ENCODING 639
SWIDTH 1500 0
DWIDTH 12 0
BBX 12 24 0 -4
BITMAP
0000
0000
0000
0000
0000
0000
0000
0000
0000
0000
7E00
7F00
0180
0180
0180
0180
0180
0180
07E0
07E0
0000
0000
0000
0000
ENDCHAR
STARTCHAR LATIN LETTER SMALL CAPITAL R
ENCODING 640
SWIDTH 1500 0
DWIDTH 12 0
BBX 12 24 0 -4
BITMAP
0000
0000
0000
0000
0000
0000
0000
0000
0000
0000
7F80
7FC0
6060
6060
7FC0
7F80
6300
6180
60C0
6060
0000
0000
0000
0000
ENDCHAR
STARTCHAR LATIN LETTER SMALL CAPITAL INVERTED R
ENCODING 641
SWIDTH 1500 0
DWIDTH 12 0
BBX 12 24 0 -4
BITMAP
0000
0000
0000
0000
0000
0000
0000
0000
0000
0000
6060
60C0
6180
6300
7F80
7FC0
6060
6060
7FC0
7F80
0000
0000
0000
0000
ENDCHAR
STARTCHAR LATIN SMALL LETTER S WITH HOOK
ENCODING 642
SWIDTH 1500 0
DWIDTH 12 0
BBX 12 24 0 -4
BITMAP
0000
0000
0000
0000
0000
0000
0000
0000
0000
0000
1FE0
3FE0
6000
6000
3F80
1FC0
0060
0060
7FC0
7F80
6000
6000
3000
1800
ENDCHAR
STARTCHAR LATIN SMALL LETTER ESH
ENCODING 643
SWIDTH 1500 0
DWIDTH 12 0
BBX 12 24 0 -4
BITMAP
0000
0000
0000
0000
01E0
03E0
0600
0600
0600
0600
0600
0600
0600
0600
0600
0600
0600
0600
0600
0600
0600
0600
7C00
7800
ENDCHAR
STARTCHAR LATIN SMALL LETTER DOTLESS J WITH STROKE AND HOOK
ENCODING 644
SWIDTH 1500 0
DWIDTH 12 0
BBX 12 24 0 -4
BITMAP
0000
0000
0000
0000
0000
0000
0180
0300
0600
0600
0E00
0E00
0600
0600
1F80
1F80
0600
0600
0600
0600
0600
0600
0C00
1800
ENDCHAR
STARTCHAR LATIN SMALL LETTER SQUAT REVERSED ESH
ENCODING 645
SWIDTH 1500 0
DWIDTH 12 0
BBX 12 24 0 -4
BITMAP
0000
0000
0000
0000
0000
0000
0000
0000
0000
0000
7800
7C00
0600
0600
0600
0600
0600
0600
0600
0600
0600
0600
03E0
01E0
ENDCHAR
STARTCHAR LATIN SMALL LETTER ESH WITH CURL
ENCODING 646
SWIDTH 1500 0
DWIDTH 12 0
BBX 12 24 0 -4
BITMAP
0000
0000
0000
0000
01E0
03E0
0600
0600
0600
0600
0600
0600
0600
0600
0600
0600
0600
0600
0600
1F80
3F80
6600
3C00
1800
ENDCHAR
STARTCHAR LATIN SMALL LETTER TURNED T
ENCODING 647
SWIDTH 1500 0
DWIDTH 12 0
BBX 12 24 0 -4
BITMAP
0000
0000
0000
0000
0000
0000
0000
0000
0000
0000
1E00
1F00
0180
0180
0180
0180
0180
0180
07E0
07E0
0180
0180
0180
0180
ENDCHAR
STARTCHAR LATIN SMALL LETTER T WITH RETROFLEX HOOK
ENCODING 648
SWIDTH 1500 0
DWIDTH 12 0
BBX 12 24 0 -4
BITMAP
0000
0000
0000
0000
0C00
0C00
0C00
0C00
0C00
0C00
3F00
3F00
0C00
0C00
0C00
0C00
0C00
0C00
07C0
03C0
00C0
00C0
0060
0030
ENDCHAR
STARTCHAR LATIN SMALL LETTER U BAR
ENCODING 649
SWIDTH 1500 0
DWIDTH 12 0
BBX 12 24 0 -4
BITMAP
0000
0000
0000
0000
0000
0000
0000
0000
0000
0000
6060
6060
6060
6060
FFF0
FFF0
6060
6060
3FE0
1FE0
0000
0000
0000
0000
ENDCHAR
STARTCHAR LATIN SMALL LETTER UPSILON
ENCODING 650
SWIDTH 1500 0
DWIDTH 12 0
BBX 12 24 0 -4
BITMAP
0000
0000
0000
0000
0000
0000
0000
0000
0000
0000
6060
30C0
1980
30C0
6060
6060
6060
6060
3FC0
1F80
0000
0000
0000
0000
ENDCHAR
STARTCHAR LATIN SMALL LETTER V WITH HOOK
ENCODING 651
SWIDTH 1500 0
DWIDTH 12 0
BBX 12 24 0 -4
BITMAP
0000
0000
0000
0000
0000
0000
0180
00C0
0060
0060
6060
6060
6060
30C0
30C0
1980
1980
0F00
0F00
0600
0000
0000
0000
0000
ENDCHAR
STARTCHAR LATIN SMALL LETTER TURNED V
ENCODING 652
SWIDTH 1500 0
DWIDTH 12 0
BBX 12 24 0 -4
BITMAP
0000
0000
0000
0000
0000
0000
0000
0000
0000
0000
0600
0F00
0F00
1980
1980
30C0
30C0
6060
6060
6060
0000
0000
0000
0000
ENDCHAR
STARTCHAR LATIN SMALL LETTER TURNED W
ENCODING 653
SWIDTH 1500 0
DWIDTH 12 0
BBX 12 24 0 -4
BITMAP
0000
0000
0000
0000
0000
0000
0000
0000
0000
0000
4020
6060
70E0
79E0
6F60
6660
6060
6060
6060
6060
0000
0000
0000
0000
ENDCHAR
STARTCHAR LATIN SMALL LETTER TURNED Y
ENCODING 654
SWIDTH 1500 0
DWIDTH 12 0
BBX 12 24 0 -4
BITMAP
0000
0000
0000
0000
0000
0000
1F00
3F00
6000
6000
7F80
7FC0
6060
6060
6060
6060
6060
6060
6060
6060
0000
0000
0000
0000
ENDCHAR
STARTCHAR LATIN LETTER SMALL CAPITAL Y
ENCODING 655
SWIDTH 1500 0
DWIDTH 12 0
BBX 12 24 0 -4
BITMAP
0000
0000
0000
0000
0000
0000
0000
0000
0000
0000
6060
30C0
1980
0F00
0600
0600
0600
0600
0600
0600
0000
0000
0000
0000
ENDCHAR
STARTCHAR LATIN SMALL LETTER Z WITH RETROFLEX HOOK
ENCODING 656
SWIDTH 1500 0
DWIDTH 12 0
BBX 12 24 0 -4
BITMAP
0000
0000
0000
0000
0000
0000
0000
0000
0000
0000
FFC0
FF80
0300
0600
0C00
1800
3000
6000
FF80
FF80
0180
0180
00C0
0060
ENDCHAR
STARTCHAR LATIN SMALL LETTER Z WITH CURL
ENCODING 657
SWIDTH 1500 0
DWIDTH 12 0
BBX 12 24 0 -4
BITMAP
0000
0000
0000
0000
0000
0000
0000
0000
0000
0000
7FE0
7FC0
0180
0300
0600
0DC0
1BE0
3360
7FE0
7FC0
0300
0300
0000
0000
ENDCHAR
STARTCHAR LATIN SMALL LETTER EZH
ENCODING 658
SWIDTH 1500 0
DWIDTH 12 0
BBX 12 24 0 -4
BITMAP
0000
0000
0000
0000
0000
0000
0000
0000
0000
0000
7FE0
7FC0
0180
0300
0600
0300
0180
00C0
0060
0060
0060
0060
7FC0
7F80
ENDCHAR
STARTCHAR LATIN SMALL LETTER EZH WITH CURL
ENCODING 659
SWIDTH 1500 0
DWIDTH 12 0
BBX 12 24 0 -4
BITMAP
0000
0000
0000
0000
0000
0000
0000
0000
0000
0000
3FF0
3FE0
00C0
0180
0300
0180
00C0
0060
1C30
3E30
3630
3FE0
1FC0
0600
ENDCHAR
STARTCHAR LATIN LETTER GLOTTAL STOP
ENCODING 660
SWIDTH 1500 0
DWIDTH 12 0
BBX 12 24 0 -4
BITMAP
0000
0000
0000
0000
0000
0000
7F80
7FC0
0060
0060
0060
00C0
0180
0300
0600
0600
0600
0600
0600
0600
0000
0000
0000
0000
ENDCHAR
STARTCHAR LATIN LETTER PHARYNGEAL VOICED FRICATIVE
ENCODING 661
SWIDTH 1500 0
DWIDTH 12 0
BBX 12 24 0 -4
BITMAP
0000
0000
0000
0000
0000
0000
1FE0
3FE0
6000
6000
6000
3000
1800
0C00
0600
0600
0600
0600
0600
0600
0000
0000
0000
0000
ENDCHAR
STARTCHAR LATIN LETTER INVERTED GLOTTAL STOP
ENCODING 662
SWIDTH 1500 0
DWIDTH 12 0
BBX 12 24 0 -4
BITMAP
0000
0000
0000
0000
0000
0000
0600
0600
0600
0600
0600
0600
0300
0180
00C0
0060
0060
0060
7FC0
7F80
0000
0000
0000
0000
ENDCHAR
STARTCHAR LATIN LETTER STRETCHED C
ENCODING 663
SWIDTH 1500 0
DWIDTH 12 0
BBX 12 24 0 -4
BITMAP
0000
0000
0000
0000
0000
0000
1FE0
3FE0
6000
6000
6000
6000
6000
6000
6000
6000
6000
6000
6000
6000
6000
6000
3FE0
1FE0
ENDCHAR
STARTCHAR LATIN LETTER BILABIAL CLICK
ENCODING 664
SWIDTH 1500 0
DWIDTH 12 0
BBX 12 24 0 -4
BITMAP
0000
0000
0000
0000
0000
0000
1F80
3FC0
6060
6060
6060
6060
6660
6660
6060
6060
6060
6060
3FC0
1F80
0000
0000
0000
0000
ENDCHAR
STARTCHAR LATIN LETTER SMALL CAPITAL B
ENCODING 665
SWIDTH 1500 0
DWIDTH 12 0
BBX 12 24 0 -4
BITMAP
0000
0000
0000
0000
0000
0000
0000
0000
0000
0000
7F80
7FC0
6060
6060
7FC0
7FC0
6060
6060
7FC0
7F80
0000
0000
0000
0000
ENDCHAR
STARTCHAR LATIN SMALL LETTER CLOSED OPEN E
ENCODING 666
SWIDTH 1500 0
DWIDTH 12 0
BBX 12 24 0 -4
BITMAP
0000
0000
0000
0000
0000
0000
0000
0000
0000
0000
1F80
3FC0
6060
6060
3E60
3E60
6060
6060
3FC0
1F80
0000
0000
0000
0000
ENDCHAR
STARTCHAR LATIN LETTER SMALL CAPITAL G WITH HOOK
ENCODING 667
SWIDTH 1500 0
DWIDTH 12 0
BBX 12 24 0 -4
BITMAP
0000
0000
0000
0000
0000
0000
0060
00C0
0180
0180
1F80
3F80
6000
6000
6780
6780
6180
6180
3F80
1F80
0000
0000
0000
0000
ENDCHAR
STARTCHAR LATIN LETTER SMALL CAPITAL H
ENCODING 668
SWIDTH 1500 0
DWIDTH 12 0
BBX 12 24 0 -4
BITMAP
0000
0000
0000
0000
0000
0000
0000
0000
0000
0000
6060
6060
6060
6060
7FE0
7FE0
6060
6060
6060
6060
0000
0000
0000
0000
ENDCHAR
STARTCHAR LATIN SMALL LETTER J WITH CROSSED-TAIL
ENCODING 669
SWIDTH 1500 0
DWIDTH 12 0
BBX 12 24 0 -4
BITMAP
0000
0000
0000
0000
0000
0000
0600
0600
0000
0000
0E00
0E00
0600
0600
0600
0600
0600
0600
1F80
1F80
0600
0600
0C00
1800
ENDCHAR
STARTCHAR LATIN SMALL LETTER TURNED K
ENCODING 670
SWIDTH 1500 0
DWIDTH 12 0
BBX 12 24 0 -4
BITMAP
0000
0000
0000
0000
0000
0000
0000
0000
0000
0000
30C0
18C0
0CC0
06C0
03C0
03C0
06C0
0CC0
18C0
30C0
00C0
00C0
00C0
00C0
ENDCHAR
STARTCHAR LATIN LETTER SMALL CAPITAL L
ENCODING 671
SWIDTH 1500 0
DWIDTH 12 0
BBX 12 24 0 -4
BITMAP
0000
0000
0000
0000
0000
0000
0000
0000
0000
0000
6000
6000
6000
6000
6000
6000
6000
6000
7FE0
7FE0
0000
0000
0000
0000
ENDCHAR
STARTCHAR LATIN SMALL LETTER Q WITH HOOK
ENCODING 672
SWIDTH 1500 0
DWIDTH 12 0
BBX 12 24 0 -4
BITMAP
0000
0000
0000
0000
0000
0000
0030
0060
00C0
00C0
3FC0
7FC0
C0C0
C0C0
C0C0
C0C0
C0C0
C0C0
7FC0
3FC0
00C0
00C0
00C0
00C0
ENDCHAR
STARTCHAR LATIN LETTER GLOTTAL STOP WITH STROKE
ENCODING 673
SWIDTH 1500 0
DWIDTH 12 0
BBX 12 24 0 -4
BITMAP
0000
0000
0000
0000
0000
0000
7F80
7FC0
0060
0060
0060
00C0
0180
0300
0600
0600
1F80
1F80
0600
0600
0000
0000
0000
0000
ENDCHAR
STARTCHAR LATIN LETTER REVERSED GLOTTAL STOP WITH STROKE
ENCODING 674
SWIDTH 1500 0
DWIDTH 12 0
BBX 12 24 0 -4
BITMAP
0000
0000
0000
0000
0000
0000
1FE0
3FE0
6000
6000
6000
3000
1800
0C00
0600
0600
1F80
1F80
0600
0600
0000
0000
0000
0000
ENDCHAR
STARTCHAR LATIN SMALL LETTER DZ DIGRAPH
ENCODING 675
SWIDTH 1500 0
DWIDTH 12 0
BBX 12 24 0 -4
BITMAP
0000
0000
0000
0000
0C00
0C00
0C00
0C00
0C00
0C00
3FF0
7FF0
CC30
CC60
CCC0
CD80
CF80
CF00
7FF0
3FF0
0000
0000
0000
0000
ENDCHAR
STARTCHAR LATIN SMALL LETTER DEZH DIGRAPH
ENCODING 676
SWIDTH 1500 0
DWIDTH 12 0
BBX 12 24 0 -4
BITMAP
0000
0000
0000
0000
0C00
0C00
0C00
0C00
0C00
0C00
3FF0
7FF0
CC30
CC60
CCC0
CD80
CCC0
CC60
7C30
3C30
0030
0030
0FE0
0FC0
ENDCHAR
STARTCHAR LATIN SMALL LETTER DZ DIGRAPH WITH CURL
ENCODING 677
SWIDTH 1500 0
DWIDTH 12 0
BBX 12 24 0 -4
BITMAP
0000
0000
0000
0000
0C00
0C00
0C00
0C00
0C00
0C00
3FF0
7FF0
CC30
CC60
CCC0
CD80
CF60
CEF0
7FD0
3FF0
00C0
00C0
0000
0000
ENDCHAR
STARTCHAR LATIN SMALL LETTER TS DIGRAPH
ENCODING 678
SWIDTH 1500 0
DWIDTH 12 0
BBX 12 24 0 -4
BITMAP
0000
0000
0000
0000
3000
3000
3000
3000
3000
3000
FCF0
FDF0
3300
3300
31C0
30E0
3030
3030
1FE0
0FC0
0000
0000
0000
0000
ENDCHAR
STARTCHAR LATIN SMALL LETTER TESH DIGRAPH
ENCODING 679
SWIDTH 1500 0
DWIDTH 12 0
BBX 12 24 0 -4
BITMAP
0000
0000
0000
0000
3070
30F0
3180
3180
3180
3180
FD80
FD80
3180
3180
3180
3180
3180
3180
1F80
0F80
0180
0180
0F00
0E00
ENDCHAR
STARTCHAR LATIN SMALL LETTER TC DIGRAPH WITH CURL
ENCODING 680
SWIDTH 1500 0
DWIDTH 12 0
BBX 12 24 0 -4
BITMAP
0000
0000
0000
0000
3000
3000
3000
3000
3000
3000
FCF0
FDF0
3300
3300
3300
3300
3360
33F0
1FD0
0FF0
00C0
00C0
0000
0000
ENDCHAR
STARTCHAR LATIN SMALL LETTER FENG DIGRAPH
ENCODING 681
SWIDTH 1500 0
DWIDTH 12 0
BBX 12 24 0 -4
BITMAP
0000
0000
0000
0000
1E00
3E00
6000
6000
6000
6000
7980
7FC0
6660
6660
6660
6660
6660
6660
6660
6060
0060
0060
01C0
0180
ENDCHAR
STARTCHAR LATIN SMALL LETTER LS DIGRAPH
ENCODING 682
SWIDTH 1500 0
DWIDTH 12 0
BBX 12 24 0 -4
BITMAP
0000
0000
0000
0000
C000
C000
C000
C000
C000
C000
C3F0
C7F0
CC00
CC00
C7C0
C3E0
C030
C030
7FE0
3FC0
0000
0000
0000
0000
ENDCHAR
STARTCHAR LATIN SMALL LETTER LZ DIGRAPH
ENCODING 683
SWIDTH 1500 0
DWIDTH 12 0
BBX 12 24 0 -4
BITMAP
0000
0000
0000
0000
C000
C000
C000
C000
C000
C000
CFF0
CFF0
C060
C0C0
C180
C300
C600
CC00
7FF0
3FF0
0000
0000
0000
0000
ENDCHAR
STARTCHAR LATIN LETTER BILABIAL PERCUSSIVE
ENCODING 684
SWIDTH 1500 0
DWIDTH 12 0
BBX 12 24 0 -4
BITMAP
0000
0000
0000
0000
0000
0000
0000
0000
0000
0000
C630
6F60
39C0
1080
0000
0000
C630
6F60
39C0
1080
0000
0000
0000
0000
ENDCHAR
STARTCHAR LATIN LETTER BIDENTAL PERCUSSIVE
ENCODING 685
SWIDTH 1500 0
DWIDTH 12 0
BBX 12 24 0 -4
BITMAP
0000
0000
0000
0000
0000
0000
0000
0000
0000
0000
7FE0
7FE0
6060
6060
0000
0000
7FE0
7FE0
6060
6060
0000
0000
0000
0000
ENDCHAR
STARTCHAR LATIN SMALL LETTER TURNED H WITH FISHHOOK
ENCODING 686
SWIDTH 1500 0
DWIDTH 12 0
BBX 12 24 0 -4
BITMAP
0000
0000
0000
0000
0000
0000
0000
0000
C000
6000
3030
3030
3030
3030
3030
3030
1FF0
0FF0
0030
0030
0030
0030
0030
0030
ENDCHAR
STARTCHAR LATIN SMALL LETTER TURNED H WITH FISHHOOK AND TAIL
ENCODING 687
SWIDTH 1500 0
DWIDTH 12 0
BBX 12 24 0 -4
BITMAP
0000
0000
0000
0000
0000
0000
0000
0000
C000
6000
30C0
30C0
30C0
30C0
30C0
30C0
30C0
1FC0
0FC0
00C0
00C0
00C0
0060
0030
ENDCHAR
STARTCHAR MODIFIER LETTER SMALL H
ENCODING 688
SWIDTH 1500 0
DWIDTH 12 0
BBX 12 24 0 -4
BITMAP
6000
6000
6000
6000
7F80
7FC0
6060
6060
6060
6060
6060
6060
6060
6060
0000
0000
0000
0000
0000
0000
0000
0000
0000
0000
ENDCHAR
STARTCHAR MODIFIER LETTER SMALL H WITH HOOK
ENCODING 689
SWIDTH 1500 0
DWIDTH 12 0
BBX 12 24 0 -4
BITMAP
1800
3000
6000
6000
6000
6000
7F80
7FC0
6060
6060
6060
6060
6060
6060
0000
0000
0000
0000
0000
0000
0000
0000
0000
0000
ENDCHAR
STARTCHAR MODIFIER LETTER SMALL J
ENCODING 690
SWIDTH 1500 0
DWIDTH 12 0
BBX 12 24 0 -4
BITMAP
0600
0600
0000
0000
0E00
0E00
0600
0600
0600
0600
0600
0600
0600
0600
0600
0600
0C00
1800
0000
0000
0000
0000
0000
0000
ENDCHAR
STARTCHAR MODIFIER LETTER SMALL R
ENCODING 691
SWIDTH 1500 0
DWIDTH 12 0
BBX 12 24 0 -4
BITMAP
0000
0000
0000
0000
67E0
6FE0
7800
7000
6000
6000
6000
6000
6000
6000
0000
0000
0000
0000
0000
0000
0000
0000
0000
0000
ENDCHAR
STARTCHAR MODIFIER LETTER SMALL TURNED R
ENCODING 692
SWIDTH 1500 0
DWIDTH 12 0
BBX 12 24 0 -4
BITMAP
0000
0000
0000
0000
0060
0060
0060
0060
0060
0060
00E0
01E0
7F60
7E60
0000
0000
0000
0000
0000
0000
0000
0000
0000
0000
ENDCHAR
STARTCHAR MODIFIER LETTER SMALL TURNED R WITH HOOK
ENCODING 693
SWIDTH 1500 0
DWIDTH 12 0
BBX 12 24 0 -4
BITMAP
0000
0000
0000
0000
00C0
00C0
00C0
00C0
00C0
00C0
01C0
03C0
FEC0
FCC0
0060
0030
0000
0000
0000
0000
0000
0000
0000
0000
ENDCHAR
STARTCHAR MODIFIER LETTER SMALL CAPITAL INVERTED R
ENCODING 694
SWIDTH 1500 0
DWIDTH 12 0
BBX 12 24 0 -4
BITMAP
0000
0000
0000
0000
6060
60C0
6180
6300
7F80
7FC0
6060
6060
7FC0
7F80
0000
0000
0000
0000
0000
0000
0000
0000
0000
0000
ENDCHAR
STARTCHAR MODIFIER LETTER SMALL W
ENCODING 695
SWIDTH 1500 0
DWIDTH 12 0
BBX 12 24 0 -4
BITMAP
0000
0000
0000
0000
6060
6060
6060
6060
6660
6F60
7FE0
78E0
6060
4020
0000
0000
0000
0000
0000
0000
0000
0000
0000
0000
ENDCHAR
STARTCHAR MODIFIER LETTER SMALL Y
ENCODING 696
SWIDTH 1500 0
DWIDTH 12 0
BBX 12 24 0 -4
BITMAP
0000
0000
0000
0000
6060
6060
6060
6060
6060
6060
6060
6060
3FE0
1FE0
0060
0060
0FC0
0F80
0000
0000
0000
0000
0000
0000
ENDCHAR
STARTCHAR MODIFIER LETTER PRIME
ENCODING 697
SWIDTH 1500 0
DWIDTH 12 0
BBX 12 24 0 -4
BITMAP
00C0
0180
0300
0600
0C00
1800
0000
0000
0000
0000
0000
0000
0000
0000
0000
0000
0000
0000
0000
0000
0000
0000
0000
0000
ENDCHAR
STARTCHAR MODIFIER LETTER DOUBLE PRIME
ENCODING 698
SWIDTH 1500 0
DWIDTH 12 0
BBX 12 24 0 -4
BITMAP
0630
0C60
18C0
3180
6300
C600
0000
0000
0000
0000
0000
0000
0000
0000
0000
0000
0000
0000
0000
0000
0000
0000
0000
0000
ENDCHAR
STARTCHAR MODIFIER LETTER TURNED COMMA
ENCODING 699
SWIDTH 1500 0
DWIDTH 12 0
BBX 12 24 0 -4
BITMAP
0180
0300
0600
0600
0600
0000
0000
0000
0000
0000
0000
0000
0000
0000
0000
0000
0000
0000
0000
0000
0000
0000
0000
0000
ENDCHAR
STARTCHAR MODIFIER LETTER APOSTROPHE
ENCODING 700
SWIDTH 1500 0
DWIDTH 12 0
BBX 12 24 0 -4
BITMAP
0600
0600
0600
0C00
1800
0000
0000
0000
0000
0000
0000
0000
0000
0000
0000
0000
0000
0000
0000
0000
0000
0000
0000
0000
ENDCHAR
STARTCHAR MODIFIER LETTER REVERSED COMMA
ENCODING 701
SWIDTH 1500 0
DWIDTH 12 0
BBX 12 24 0 -4
BITMAP
0600
0600
0600
0300
0180
0000
0000
0000
0000
0000
0000
0000
0000
0000
0000
0000
0000
0000
0000
0000
0000
0000
0000
0000
ENDCHAR
STARTCHAR MODIFIER LETTER RIGHT HALF RING
ENCODING 702
SWIDTH 1500 0
DWIDTH 12 0
BBX 12 24 0 -4
BITMAP
0600
0700
0180
0180
0700
0600
0000
0000
0000
0000
0000
0000
0000
0000
0000
0000
0000
0000
0000
0000
0000
0000
0000
0000
ENDCHAR
STARTCHAR MODIFIER LETTER LEFT HALF RING
ENCODING 703
SWIDTH 1500 0
DWIDTH 12 0
BBX 12 24 0 -4
BITMAP
0600
0E00
1800
1800
0E00
0600
0000
0000
0000
0000
0000
0000
0000
0000
0000
0000
0000
0000
0000
0000
0000
0000
0000
0000
ENDCHAR
STARTCHAR MODIFIER LETTER GLOTTAL STOP
ENCODING 704
SWIDTH 1500 0
DWIDTH 12 0
BBX 12 24 0 -4
BITMAP
3FC0
3FE0
0030
0030
0030
0060
00C0
0180
0300
0300
0300
0300
0300
0300
0000
0000
0000
0000
0000
0000
0000
0000
0000
0000
ENDCHAR
STARTCHAR MODIFIER LETTER REVERSED GLOTTAL STOP
ENCODING 705
SWIDTH 1500 0
DWIDTH 12 0
BBX 12 24 0 -4
BITMAP
0FF0
1FF0
3000
3000
3000
1800
0C00
0600
0300
0300
0300
0300
0300
0300
0000
0000
0000
0000
0000
0000
0000
0000
0000
0000
ENDCHAR
STARTCHAR MODIFIER LETTER LEFT ARROWHEAD
ENCODING 706
SWIDTH 1500 0
DWIDTH 12 0
BBX 12 24 0 -4
BITMAP
0000
0000
0000
0000
0000
0000
03C0
0FC0
7E00
7E00
0FC0
03C0
0000
0000
0000
0000
0000
0000
0000
0000
0000
0000
0000
0000
ENDCHAR
STARTCHAR MODIFIER LETTER RIGHT ARROWHEAD
ENCODING 707
SWIDTH 1500 0
DWIDTH 12 0
BBX 12 24 0 -4
BITMAP
0000
0000
0000
0000
0000
0000
3C00
3F00
07E0
07E0
3F00
3C00
0000
0000
0000
0000
0000
0000
0000
0000
0000
0000
0000
0000
ENDCHAR
STARTCHAR MODIFIER LETTER UP ARROWHEAD
ENCODING 708
SWIDTH 1500 0
DWIDTH 12 0
BBX 12 24 0 -4
BITMAP
0000
0000
0000
0000
0000
0000
0600
0F00
1980
0000
0000
0000
0000
0000
0000
0000
0000
0000
0000
0000
0000
0000
0000
0000
ENDCHAR
STARTCHAR MODIFIER LETTER DOWN ARROWHEAD
ENCODING 709
SWIDTH 1500 0
DWIDTH 12 0
BBX 12 24 0 -4
BITMAP
0000
0000
0000
0000
0000
0000
1980
0F00
0600
0000
0000
0000
0000
0000
0000
0000
0000
0000
0000
0000
0000
0000
0000
0000
ENDCHAR
STARTCHAR MODIFIER LETTER CIRCUMFLEX ACCENT
ENCODING 710
SWIDTH 1500 0
DWIDTH 12 0
BBX 12 24 0 -4
BITMAP
0600
0F00
1980
30C0
0000
0000
0000
0000
0000
0000
0000
0000
0000
0000
0000
0000
0000
0000
0000
0000
0000
0000
0000
0000
ENDCHAR
STARTCHAR CARON
ENCODING 711
SWIDTH 1500 0
DWIDTH 12 0
BBX 12 24 0 -4
BITMAP
30C0
1980
0F00
0600
0000
0000
0000
0000
0000
0000
0000
0000
0000
0000
0000
0000
0000
0000
0000
0000
0000
0000
0000
0000
ENDCHAR
STARTCHAR MODIFIER LETTER VERTICAL LINE
ENCODING 712
SWIDTH 1500 0
DWIDTH 12 0
BBX 12 24 0 -4
BITMAP
0600
0600
0600
0600
0600
0600
0000
0000
0000
0000
0000
0000
0000
0000
0000
0000
0000
0000
0000
0000
0000
0000
0000
0000
ENDCHAR
STARTCHAR MODIFIER LETTER MACRON
ENCODING 713
SWIDTH 1500 0
DWIDTH 12 0
BBX 12 24 0 -4
BITMAP
0000
0000
1F80
1F80
0000
0000
0000
0000
0000
0000
0000
0000
0000
0000
0000
0000
0000
0000
0000
0000
0000
0000
0000
0000
ENDCHAR
STARTCHAR MODIFIER LETTER ACUTE ACCENT
ENCODING 714
SWIDTH 1500 0
DWIDTH 12 0
BBX 12 24 0 -4
BITMAP
00C0
0180
0300
0600
0000
0000
0000
0000
0000
0000
0000
0000
0000
0000
0000
0000
0000
0000
0000
0000
0000
0000
0000
0000
ENDCHAR
STARTCHAR MODIFIER LETTER GRAVE ACCENT
ENCODING 715
SWIDTH 1500 0
DWIDTH 12 0
BBX 12 24 0 -4
BITMAP
3000
1800
0C00
0600
0000
0000
0000
0000
0000
0000
0000
0000
0000
0000
0000
0000
0000
0000
0000
0000
0000
0000
0000
0000
ENDCHAR
STARTCHAR MODIFIER LETTER LOW VERTICAL LINE
ENCODING 716
SWIDTH 1500 0
DWIDTH 12 0
BBX 12 24 0 -4
BITMAP
0000
0000
0000
0000
0000
0000
0000
0000
0000
0000
0000
0000
0000
0000
0000
0000
0000
0000
0600
0600
0600
0600
0600
0600
ENDCHAR
STARTCHAR MODIFIER LETTER LOW MACRON
ENCODING 717
SWIDTH 1500 0
DWIDTH 12 0
BBX 12 24 0 -4
BITMAP
0000
0000
0000
0000
0000
0000
0000
0000
0000
0000
0000
0000
0000
0000
0000
0000
0000
0000
0000
0000
0000
0000
1F80
1F80
ENDCHAR
STARTCHAR MODIFIER LETTER LOW GRAVE ACCENT
ENCODING 718
SWIDTH 1500 0
DWIDTH 12 0
BBX 12 24 0 -4
BITMAP
0000
0000
0000
0000
0000
0000
0000
0000
0000
0000
0000
0000
0000
0000
0000
0000
0000
0000
0000
0000
0600
0300
0180
00C0
ENDCHAR
STARTCHAR MODIFIER LETTER LOW ACUTE ACCENT
ENCODING 719
SWIDTH 1500 0
DWIDTH 12 0
BBX 12 24 0 -4
BITMAP
0000
0000
0000
0000
0000
0000
0000
0000
0000
0000
0000
0000
0000
0000
0000
0000
0000
0000
0000
0000
0600
0C00
1800
3000
ENDCHAR
STARTCHAR MODIFIER LETTER TRIANGULAR COLON
ENCODING 720
SWIDTH 1500 0
DWIDTH 12 0
BBX 12 24 0 -4
BITMAP
0000
0000
0000
0000
0000
0000
0000
0000
0000
0000
1F80
0F00
0600
0000
0000
0000
0000
0600
0F00
1F80
0000
0000
0000
0000
ENDCHAR
STARTCHAR MODIFIER LETTER HALF TRIANGULAR COLON
ENCODING 721
SWIDTH 1500 0
DWIDTH 12 0
BBX 12 24 0 -4
BITMAP
0000
0000
0000
0000
0000
0000
0000
0000
0000
0000
0000
0000
0000
1F80
0F00
0600
0000
0000
0000
0000
0000
0000
0000
0000
ENDCHAR
STARTCHAR MODIFIER LETTER CENTRED RIGHT HALF RING
ENCODING 722
SWIDTH 1500 0
DWIDTH 12 0
BBX 12 24 0 -4
BITMAP
0000
0000
0000
0000
0000
0000
0000
0000
0000
0000
0000
0000
0600
0700
0180
0180
0700
0600
0000
0000
0000
0000
0000
0000
ENDCHAR
STARTCHAR MODIFIER LETTER CENTRED LEFT HALF RING
ENCODING 723
SWIDTH 1500 0
DWIDTH 12 0
BBX 12 24 0 -4
BITMAP
0000
0000
0000
0000
0000
0000
0000
0000
0000
0000
0000
0000
0600
0E00
1800
1800
0E00
0600
0000
0000
0000
0000
0000
0000
ENDCHAR
STARTCHAR MODIFIER LETTER UP TACK
ENCODING 724
SWIDTH 1500 0
DWIDTH 12 0
BBX 12 24 0 -4
BITMAP
0000
0000
0000
0000
0000
0000
0000
0000
0000
0000
0600
0600
0600
0600
7FE0
7FE0
0000
0000
0000
0000
0000
0000
0000
0000
ENDCHAR
STARTCHAR MODIFIER LETTER DOWN TACK
ENCODING 725
SWIDTH 1500 0
DWIDTH 12 0
BBX 12 24 0 -4
BITMAP
0000
0000
0000
0000
0000
0000
0000
0000
0000
0000
0000
0000
0000
0000
7FE0
7FE0
0600
0600
0600
0600
0000
0000
0000
0000
ENDCHAR
STARTCHAR MODIFIER LETTER PLUS SIGN
ENCODING 726
SWIDTH 1500 0
DWIDTH 12 0
BBX 12 24 0 -4
BITMAP
0000
0000
0000
0000
0000
0000
0000
0000
0000
0000
0600
0600
0600
0600
7FE0
7FE0
0600
0600
0600
0600
0000
0000
0000
0000
ENDCHAR
STARTCHAR MODIFIER LETTER MINUS SIGN
ENCODING 727
SWIDTH 1500 0
DWIDTH 12 0
BBX 12 24 0 -4
BITMAP
0000
0000
0000
0000
0000
0000
0000
0000
0000
0000
0000
0000
0000
0000
7FE0
7FE0
0000
0000
0000
0000
0000
0000
0000
0000
ENDCHAR
STARTCHAR BREVE
ENCODING 728
SWIDTH 1500 0
DWIDTH 12 0
BBX 12 24 0 -4
BITMAP
6060
3FC0
1F80
0000
0000
0000
0000
0000
0000
0000
0000
0000
0000
0000
0000
0000
0000
0000
0000
0000
0000
0000
0000
0000
ENDCHAR
STARTCHAR DOT ABOVE
ENCODING 729
SWIDTH 1500 0
DWIDTH 12 0
BBX 12 24 0 -4
BITMAP
0000
0000
0600
0600
0000
0000
0000
0000
0000
0000
0000
0000
0000
0000
0000
0000
0000
0000
0000
0000
0000
0000
0000
0000
ENDCHAR
STARTCHAR RING ABOVE
ENCODING 730
SWIDTH 1500 0
DWIDTH 12 0
BBX 12 24 0 -4
BITMAP
0600
0F00
1980
1980
0F00
0600
0000
0000
0000
0000
0000
0000
0000
0000
0000
0000
0000
0000
0000
0000
0000
0000
0000
0000
ENDCHAR
STARTCHAR OGONEK
ENCODING 731
SWIDTH 1500 0
DWIDTH 12 0
BBX 12 24 0 -4
BITMAP
0000
0000
0000
0000
0000
0000
0000
0000
0000
0000
0000
0000
0000
0000
0000
0000
0000
0000
0000
0000
0060
00C0
00C0
0060
ENDCHAR
STARTCHAR SMALL TILDE
ENCODING 732
SWIDTH 1500 0
DWIDTH 12 0
BBX 12 24 0 -4
BITMAP
3E60
67C0
0000
0000
0000
0000
0000
0000
0000
0000
0000
0000
0000
0000
0000
0000
0000
0000
0000
0000
0000
0000
0000
0000
ENDCHAR
STARTCHAR DOUBLE ACUTE ACCENT
ENCODING 733
SWIDTH 1500 0
DWIDTH 12 0
BBX 12 24 0 -4
BITMAP
0330
0660
0CC0
1980
0000
0000
0000
0000
0000
0000
0000
0000
0000
0000
0000
0000
0000
0000
0000
0000
0000
0000
0000
0000
ENDCHAR
STARTCHAR MODIFIER LETTER RHOTIC HOOK
ENCODING 734
SWIDTH 1500 0
DWIDTH 12 0
BBX 12 24 0 -4
BITMAP
0000
0000
0000
0000
0000
0000
0000
0000
0000
0000
3000
7800
CC00
8C00
0C30
0C30
07E0
03C0
0000
0000
0000
0000
0000
0000
ENDCHAR
STARTCHAR MODIFIER LETTER CROSS ACCENT
ENCODING 735
SWIDTH 1500 0
DWIDTH 12 0
BBX 12 24 0 -4
BITMAP
1980
0F00
0600
0F00
1980
0000
0000
0000
0000
0000
0000
0000
0000
0000
0000
0000
0000
0000
0000
0000
0000
0000
0000
0000
ENDCHAR
STARTCHAR MODIFIER LETTER SMALL GAMMA
ENCODING 736
SWIDTH 1500 0
DWIDTH 12 0
BBX 12 24 0 -4
BITMAP
0000
0000
0000
0000
0000
0000
6060
30C0
1980
0F00
0600
0F00
1980
1980
0F00
0600
0000
0000
0000
0000
0000
0000
0000
0000
ENDCHAR
STARTCHAR MODIFIER LETTER SMALL L
ENCODING 737
SWIDTH 1500 0
DWIDTH 12 0
BBX 12 24 0 -4
BITMAP
0000
0000
0C00
0C00
0C00
0C00
0C00
0C00
0C00
0C00
0C00
0C00
0700
0300
0000
0000
0000
0000
0000
0000
0000
0000
0000
0000
ENDCHAR
STARTCHAR MODIFIER LETTER SMALL S
ENCODING 738
SWIDTH 1500 0
DWIDTH 12 0
BBX 12 24 0 -4
BITMAP
0000
0000
0000
0000
0000
0000
0FC0
1FC0
3000
1F00
0F80
00C0
3F80
3F00
0000
0000
0000
0000
0000
0000
0000
0000
0000
0000
ENDCHAR
STARTCHAR MODIFIER LETTER SMALL X
ENCODING 739
SWIDTH 1500 0
DWIDTH 12 0
BBX 12 24 0 -4
BITMAP
0000
0000
0000
0000
0000
0000
30C0
1980
0F00
1980
30C0
0000
0000
0000
0000
0000
0000
0000
0000
0000
0000
0000
0000
0000
ENDCHAR
STARTCHAR MODIFIER LETTER SMALL REVERSED GLOTTAL STOP
ENCODING 740
SWIDTH 1500 0
DWIDTH 12 0
BBX 12 24 0 -4
BITMAP
0000
0000
0000
0000
0000
0000
0FC0
1FC0
3000
1800
0C00
0600
0300
0300
0000
0000
0000
0000
0000
0000
0000
0000
0000
0000
ENDCHAR
STARTCHAR MODIFIER LETTER EXTRA-HIGH TONE BAR
ENCODING 741
SWIDTH 1500 0
DWIDTH 12 0
BBX 12 24 0 -4
BITMAP
0000
0000
0000
0000
0000
0000
0000
0000
0000
0000
7FE0
7FE0
0060
0060
0060
0060
0060
0060
0060
0060
0000
0000
0000
0000
ENDCHAR
STARTCHAR MODIFIER LETTER HIGH TONE BAR
ENCODING 742
SWIDTH 1500 0
DWIDTH 12 0
BBX 12 24 0 -4
BITMAP
0000
0000
0000
0000
0000
0000
0000
0000
0000
0000
0060
0060
7FE0
7FE0
0060
0060
0060
0060
0060
0060
0000
0000
0000
0000
ENDCHAR
STARTCHAR MODIFIER LETTER MID TONE BAR
ENCODING 743
SWIDTH 1500 0
DWIDTH 12 0
BBX 12 24 0 -4
BITMAP
0000
0000
0000
0000
0000
0000
0000
0000
0000
0000
0060
0060
0060
0060
7FE0
7FE0
0060
0060
0060
0060
0000
0000
0000
0000
ENDCHAR
STARTCHAR MODIFIER LETTER LOW TONE BAR
ENCODING 744
SWIDTH 1500 0
DWIDTH 12 0
BBX 12 24 0 -4
BITMAP
0000
0000
0000
0000
0000
0000
0000
0000
0000
0000
0060
0060
0060
0060
0060
0060
7FE0
7FE0
0060
0060
0000
0000
0000
0000
ENDCHAR
STARTCHAR MODIFIER LETTER EXTRA-LOW TONE BAR
ENCODING 745
SWIDTH 1500 0
DWIDTH 12 0
BBX 12 24 0 -4
BITMAP
0000
0000
0000
0000
0000
0000
0000
0000
0000
0000
0060
0060
0060
0060
0060
0060
0060
0060
7FE0
7FE0
0000
0000
0000
0000
ENDCHAR
STARTCHAR MODIFIER LETTER YIN DEPARTING TONE MARK
ENCODING 746
SWIDTH 1500 0
DWIDTH 12 0
BBX 12 24 0 -4
BITMAP
0000
0000
0000
0000
0000
0000
0000
0000
0000
0000
6000
6000
6000
6000
6000
6000
6000
6000
7FE0
7FE0
0000
0000
0000
0000
ENDCHAR
STARTCHAR MODIFIER LETTER YANG DEPARTING TONE MARK
ENCODING 747
SWIDTH 1500 0
DWIDTH 12 0
BBX 12 24 0 -4
BITMAP
0000
0000
0000
0000
0000
0000
0000
0000
0000
0000
6000
6000
6000
6000
7FE0
7FE0
6000
6000
6000
6000
0000
0000
0000
0000
ENDCHAR
STARTCHAR MODIFIER LETTER VOICING
ENCODING 748
SWIDTH 1500 0
DWIDTH 12 0
BBX 12 24 0 -4
BITMAP
0000
0000
0000
0000
0000
0000
0000
0000
0000
0000
0000
0000
0000
0000
0000
0000
0000
0000
0000
0000
1980
1980
0F00
0600
ENDCHAR
STARTCHAR MODIFIER LETTER UNASPIRATED
ENCODING 749
SWIDTH 1500 0
DWIDTH 12 0
BBX 12 24 0 -4
BITMAP
7FE0
7FE0
0000
7FE0
7FE0
0000
0000
0000
0000
0000
0000
0000
0000
0000
0000
0000
0000
0000
0000
0000
0000
0000
0000
0000
ENDCHAR
STARTCHAR MODIFIER LETTER DOUBLE APOSTROPHE
ENCODING 750
SWIDTH 1500 0
DWIDTH 12 0
BBX 12 24 0 -4
BITMAP
0CC0
0CC0
0CC0
1980
3300
0000
0000
0000
0000
0000
0000
0000
0000
0000
0000
0000
0000
0000
0000
0000
0000
0000
0000
0000
ENDCHAR
STARTCHAR GREEK YPOGEGRAMMENI
ENCODING 890
SWIDTH 1500 0
DWIDTH 12 0
BBX 12 24 0 -4
BITMAP
0000
0000
0000
0000
0000
0000
0000
0000
0000
0000
0000
0000
0000
0000
0000
0000
0000
0000
0000
0000
0600
0600
0600
0600
ENDCHAR
STARTCHAR GREEK QUESTION MARK
ENCODING 894
SWIDTH 1500 0
DWIDTH 12 0
BBX 12 24 0 -4
BITMAP
0000
0000
0000
0000
0000
0000
0000
0000
0000
0000
0600
0600
0000
0000
0000
0000
0000
0000
0600
0600
0C00
1800
0000
0000
ENDCHAR
STARTCHAR GREEK TONOS
ENCODING 900
SWIDTH 1500 0
DWIDTH 12 0
BBX 12 24 0 -4
BITMAP
00C0
0180
0300
0600
0000
0000
0000
0000
0000
0000
0000
0000
0000
0000
0000
0000
0000
0000
0000
0000
0000
0000
0000
0000
ENDCHAR
STARTCHAR GREEK DIALYTIKA TONOS
ENCODING 901
SWIDTH 1500 0
DWIDTH 12 0
BBX 12 24 0 -4
BITMAP
00C0
0180
0300
0600
6060
6060
0000
0000
0000
0000
0000
0000
0000
0000
0000
0000
0000
0000
0000
0000
0000
0000
0000
0000
ENDCHAR
STARTCHAR GREEK CAPITAL LETTER ALPHA WITH TONOS
ENCODING 902
SWIDTH 1500 0
DWIDTH 12 0
BBX 12 24 0 -4
BITMAP
0000
0000
0000
0000
1800
3000
6FC0
DFE0
3030
3030
3030
3030
3030
3030
3FF0
3FF0
3030
3030
3030
3030
0000
0000
0000
0000
ENDCHAR
STARTCHAR GREEK CAPITAL LETTER EPSILON WITH TONOS
ENCODING 904
SWIDTH 1500 0
DWIDTH 12 0
BBX 12 24 0 -4
BITMAP
0000
0000
0000
0000
1800
3000
6FF0
DFF0
3000
3000
3000
3000
3F00
3F00
3000
3000
3000
3000
3FF0
3FF0
0000
0000
0000
0000
ENDCHAR
STARTCHAR GREEK CAPITAL LETTER ETA WITH TONOS
ENCODING 905
SWIDTH 1500 0
DWIDTH 12 0
BBX 12 24 0 -4
BITMAP
0000
0000
0000
0000
1800
3000
6030
D030
3030
3030
3030
3030
3FF0
3FF0
3030
3030
3030
3030
3030
3030
0000
0000
0000
0000
ENDCHAR
STARTCHAR GREEK CAPITAL LETTER IOTA WITH TONOS
ENCODING 906
SWIDTH 1500 0
DWIDTH 12 0
BBX 12 24 0 -4
BITMAP
0000
0000
0000
0000
0600
0C00
1BC0
33C0
0180
0180
0180
0180
0180
0180
0180
0180
0180
0180
03C0
03C0
0000
0000
0000
0000
ENDCHAR
STARTCHAR GREEK CAPITAL LETTER OMICRON WITH TONOS
ENCODING 908
SWIDTH 1500 0
DWIDTH 12 0
BBX 12 24 0 -4
BITMAP
0000
0000
0000
0000
1800
3000
6FC0
DFE0
3030
3030
3030
3030
3030
3030
3030
3030
3030
3030
1FE0
0FC0
0000
0000
0000
0000
ENDCHAR
STARTCHAR GREEK CAPITAL LETTER UPSILON WITH TONOS
ENCODING 910
SWIDTH 1500 0
DWIDTH 12 0
BBX 12 24 0 -4
BITMAP
0000
0000
0000
0000
1800
3000
6030
D030
3030
3030
1860
0CC0
0780
0300
0300
0300
0300
0300
0300
0300
0000
0000
0000
0000
ENDCHAR
STARTCHAR GREEK CAPITAL LETTER OMEGA WITH TONOS
ENCODING 911
SWIDTH 1500 0
DWIDTH 12 0
BBX 12 24 0 -4
BITMAP
0000
0000
0000
0000
1800
3000
6FC0
DFE0
3030
3030
3030
3030
3030
3030
3030
3030
1CE0
0CC0
3CF0
3CF0
0000
0000
0000
0000
ENDCHAR
STARTCHAR GREEK SMALL LETTER IOTA WITH DIALYTIKA AND TONOS
ENCODING 912
SWIDTH 1500 0
DWIDTH 12 0
BBX 12 24 0 -4
BITMAP
00C0
0180
0300
0600
0000
0000
1980
1980
0000
0000
0600
0600
0600
0600
0600
0600
0600
0600
0600
0300
0000
0000
0000
0000
ENDCHAR
STARTCHAR GREEK CAPITAL LETTER ALPHA
ENCODING 913
SWIDTH 1500 0
DWIDTH 12 0
BBX 12 24 0 -4
BITMAP
0000
0000
0000
0000
0000
0000
1F80
3FC0
6060
6060
6060
6060
6060
6060
7FE0
7FE0
6060
6060
6060
6060
0000
0000
0000
0000
ENDCHAR
STARTCHAR GREEK CAPITAL LETTER BETA
ENCODING 914
SWIDTH 1500 0
DWIDTH 12 0
BBX 12 24 0 -4
BITMAP
0000
0000
0000
0000
0000
0000
7F80
7FC0
6060
6060
6060
6060
7FC0
7FC0
6060
6060
6060
6060
7FC0
7F80
0000
0000
0000
0000
ENDCHAR
STARTCHAR GREEK CAPITAL LETTER GAMMA
ENCODING 915
SWIDTH 1500 0
DWIDTH 12 0
BBX 12 24 0 -4
BITMAP
0000
0000
0000
0000
0000
0000
7FE0
7FE0
6000
6000
6000
6000
6000
6000
6000
6000
6000
6000
6000
6000
0000
0000
0000
0000
ENDCHAR
STARTCHAR GREEK CAPITAL LETTER DELTA
ENCODING 916
SWIDTH 1500 0
DWIDTH 12 0
BBX 12 24 0 -4
BITMAP
0000
0000
0000
0000
0000
0000
0600
0600
0F00
0F00
1980
1980
30C0
30C0
6060
6060
6060
6060
7FE0
7FE0
0000
0000
0000
0000
ENDCHAR
STARTCHAR GREEK CAPITAL LETTER EPSILON
ENCODING 917
SWIDTH 1500 0
DWIDTH 12 0
BBX 12 24 0 -4
BITMAP
0000
0000
0000
0000
0000
0000
7FE0
7FE0
6000
6000
6000
6000
7E00
7E00
6000
6000
6000
6000
7FE0
7FE0
0000
0000
0000
0000
ENDCHAR
STARTCHAR GREEK CAPITAL LETTER ZETA
ENCODING 918
SWIDTH 1500 0
DWIDTH 12 0
BBX 12 24 0 -4
BITMAP
0000
0000
0000
0000
0000
0000
7FE0
7FE0
0060
00C0
0180
0300
0600
0C00
1800
3000
6000
4000
7FE0
7FE0
0000
0000
0000
0000
ENDCHAR
STARTCHAR GREEK CAPITAL LETTER ETA
ENCODING 919
SWIDTH 1500 0
DWIDTH 12 0
BBX 12 24 0 -4
BITMAP
0000
0000
0000
0000
0000
0000
6060
6060
6060
6060
6060
6060
7FE0
7FE0
6060
6060
6060
6060
6060
6060
0000
0000
0000
0000
ENDCHAR
STARTCHAR GREEK CAPITAL LETTER THETA
ENCODING 920
SWIDTH 1500 0
DWIDTH 12 0
BBX 12 24 0 -4
BITMAP
0000
0000
0000
0000
0000
0000
1F80
3FC0
6060
6060
6060
6060
7FE0
7FE0
6060
6060
6060
6060
3FC0
1F80
0000
0000
0000
0000
ENDCHAR
STARTCHAR GREEK CAPITAL LETTER IOTA
ENCODING 921
SWIDTH 1500 0
DWIDTH 12 0
BBX 12 24 0 -4
BITMAP
0000
0000
0000
0000
0000
0000
0F00
0F00
0600
0600
0600
0600
0600
0600
0600
0600
0600
0600
0F00
0F00
0000
0000
0000
0000
ENDCHAR
STARTCHAR GREEK CAPITAL LETTER KAPPA
ENCODING 922
SWIDTH 1500 0
DWIDTH 12 0
BBX 12 24 0 -4
BITMAP
0000
0000
0000
0000
0000
0000
6060
60C0
6180
6300
6600
6C00
7800
7800
6C00
6600
6300
6180
60C0
6060
0000
0000
0000
0000
ENDCHAR
STARTCHAR GREEK CAPITAL LETTER LAMDA
ENCODING 923
SWIDTH 1500 0
DWIDTH 12 0
BBX 12 24 0 -4
BITMAP
0000
0000
0000
0000
0000
0000
0600
0600
0F00
0F00
0F00
1980
1980
1980
30C0
30C0
30C0
6060
6060
6060
0000
0000
0000
0000
ENDCHAR
STARTCHAR GREEK CAPITAL LETTER MU
ENCODING 924
SWIDTH 1500 0
DWIDTH 12 0
BBX 12 24 0 -4
BITMAP
0000
0000
0000
0000
0000
0000
4020
6060
70E0
79E0
6F60
6660
6060
6060
6060
6060
6060
6060
6060
6060
0000
0000
0000
0000
ENDCHAR
STARTCHAR GREEK CAPITAL LETTER NU
ENCODING 925
SWIDTH 1500 0
DWIDTH 12 0
BBX 12 24 0 -4
BITMAP
0000
0000
0000
0000
0000
0000
6060
6060
6060
7060
7860
6C60
6660
6360
61E0
60E0
6060
6060
6060
6060
0000
0000
0000
0000
ENDCHAR
STARTCHAR GREEK CAPITAL LETTER XI
ENCODING 926
SWIDTH 1500 0
DWIDTH 12 0
BBX 12 24 0 -4
BITMAP
0000
0000
0000
0000
0000
0000
7FE0
7FE0
0000
0000
0000
0000
1F80
1F80
0000
0000
0000
0000
7FE0
7FE0
0000
0000
0000
0000
ENDCHAR
STARTCHAR GREEK CAPITAL LETTER OMICRON
ENCODING 927
SWIDTH 1500 0
DWIDTH 12 0
BBX 12 24 0 -4
BITMAP
0000
0000
0000
0000
0000
0000
1F80
3FC0
6060
6060
6060
6060
6060
6060
6060
6060
6060
6060
3FC0
1F80
0000
0000
0000
0000
ENDCHAR
STARTCHAR GREEK CAPITAL LETTER PI
ENCODING 928
SWIDTH 1500 0
DWIDTH 12 0
BBX 12 24 0 -4
BITMAP
0000
0000
0000
0000
0000
0000
7FE0
7FE0
6060
6060
6060
6060
6060
6060
6060
6060
6060
6060
6060
6060
0000
0000
0000
0000
ENDCHAR
STARTCHAR GREEK CAPITAL LETTER RHO
ENCODING 929
SWIDTH 1500 0
DWIDTH 12 0
BBX 12 24 0 -4
BITMAP
0000
0000
0000
0000
0000
0000
7F80
7FC0
6060
6060
6060
6060
6060
6060
7FC0
7F80
6000
6000
6000
6000
0000
0000
0000
0000
ENDCHAR
STARTCHAR GREEK CAPITAL LETTER SIGMA
ENCODING 931
SWIDTH 1500 0
DWIDTH 12 0
BBX 12 24 0 -4
BITMAP
0000
0000
0000
0000
0000
0000
7FE0
7FE0
6000
3000
1800
0C00
0600
0600
0C00
1800
3000
6000
7FE0
7FE0
0000
0000
0000
0000
ENDCHAR
STARTCHAR GREEK CAPITAL LETTER TAU
ENCODING 932
SWIDTH 1500 0
DWIDTH 12 0
BBX 12 24 0 -4
BITMAP
0000
0000
0000
0000
0000
0000
7FE0
7FE0
0600
0600
0600
0600
0600
0600
0600
0600
0600
0600
0600
0600
0000
0000
0000
0000
ENDCHAR
STARTCHAR GREEK CAPITAL LETTER UPSILON
ENCODING 933
SWIDTH 1500 0
DWIDTH 12 0
BBX 12 24 0 -4
BITMAP
0000
0000
0000
0000
0000
0000
6060
6060
6060
6060
30C0
1980
0F00
0600
0600
0600
0600
0600
0600
0600
0000
0000
0000
0000
ENDCHAR
STARTCHAR GREEK CAPITAL LETTER PHI
ENCODING 934
SWIDTH 1500 0
DWIDTH 12 0
BBX 12 24 0 -4
BITMAP
0000
0000
0000
0000
0000
0000
0600
0600
1F80
3FC0
6660
6660
6660
6660
6660
6660
3FC0
1F80
0600
0600
0000
0000
0000
0000
ENDCHAR
STARTCHAR GREEK CAPITAL LETTER CHI
ENCODING 935
SWIDTH 1500 0
DWIDTH 12 0
BBX 12 24 0 -4
BITMAP
0000
0000
0000
0000
0000
0000
6060
6060
6060
30C0
1980
0F00
0600
0600
0F00
1980
30C0
6060
6060
6060
0000
0000
0000
0000
ENDCHAR
STARTCHAR GREEK CAPITAL LETTER PSI
ENCODING 936
SWIDTH 1500 0
DWIDTH 12 0
BBX 12 24 0 -4
BITMAP
0000
0000
0000
0000
0000
0000
6660
6660
6660
6660
6660
6660
3FC0
1F80
0600
0600
0600
0600
0600
0600
0000
0000
0000
0000
ENDCHAR
STARTCHAR GREEK CAPITAL LETTER OMEGA
ENCODING 937
SWIDTH 1500 0
DWIDTH 12 0
BBX 12 24 0 -4
BITMAP
0000
0000
0000
0000
0000
0000
1F80
3FC0
6060
6060
6060
6060
6060
6060
6060
6060
39C0
1980
79E0
79E0
0000
0000
0000
0000
ENDCHAR
STARTCHAR GREEK CAPITAL LETTER IOTA WITH DIALYTIKA
ENCODING 938
SWIDTH 1500 0
DWIDTH 12 0
BBX 12 24 0 -4
BITMAP
0000
0000
1980
1980
0000
0000
0F00
0F00
0600
0600
0600
0600
0600
0600
0600
0600
0600
0600
0F00
0F00
0000
0000
0000
0000
ENDCHAR
STARTCHAR GREEK CAPITAL LETTER UPSILON WITH DIALYTIKA
ENCODING 939
SWIDTH 1500 0
DWIDTH 12 0
BBX 12 24 0 -4
BITMAP
0000
0000
1980
1980
0000
0000
6060
6060
6060
6060
30C0
1980
0F00
0600
0600
0600
0600
0600
0600
0600
0000
0000
0000
0000
ENDCHAR
STARTCHAR GREEK SMALL LETTER ALPHA WITH TONOS
ENCODING 940
SWIDTH 1500 0
DWIDTH 12 0
BBX 12 24 0 -4
BITMAP
0000
0000
0000
0000
00C0
0180
0300
0600
0000
0000
1F60
3FE0
60C0
60C0
60C0
60C0
60C0
60C0
3FE0
1F60
0000
0000
0000
0000
ENDCHAR
STARTCHAR GREEK SMALL LETTER EPSILON WITH TONOS
ENCODING 941
SWIDTH 1500 0
DWIDTH 12 0
BBX 12 24 0 -4
BITMAP
0000
0000
0000
0000
00C0
0180
0300
0600
0000
0000
1FE0
3FE0
6000
6000
3E00
3E00
6000
6000
3FE0
1FE0
0000
0000
0000
0000
ENDCHAR
STARTCHAR GREEK SMALL LETTER ETA WITH TONOS
ENCODING 942
SWIDTH 1500 0
DWIDTH 12 0
BBX 12 24 0 -4
BITMAP
0000
0000
0000
0000
00C0
0180
0300
0600
0000
0000
7F80
7FC0
6060
6060
6060
6060
6060
6060
6060
6060
0060
0060
0060
0060
ENDCHAR
STARTCHAR GREEK SMALL LETTER IOTA WITH TONOS
ENCODING 943
SWIDTH 1500 0
DWIDTH 12 0
BBX 12 24 0 -4
BITMAP
0000
0000
0000
0000
00C0
0180
0300
0600
0000
0000
0600
0600
0600
0600
0600
0600
0600
0600
0600
0300
0000
0000
0000
0000
ENDCHAR
STARTCHAR GREEK SMALL LETTER UPSILON WITH DIALYTIKA AND TONOS
ENCODING 944
SWIDTH 1500 0
DWIDTH 12 0
BBX 12 24 0 -4
BITMAP
00C0
0180
0300
0600
0000
0000
1980
1980
0000
0000
6060
6060
6060
6060
6060
6060
6060
6060
3FC0
1F80
0000
0000
0000
0000
ENDCHAR
STARTCHAR GREEK SMALL LETTER ALPHA
ENCODING 945
SWIDTH 1500 0
DWIDTH 12 0
BBX 12 24 0 -4
BITMAP
0000
0000
0000
0000
0000
0000
0000
0000
0000
0000
1F60
3FE0
60C0
60C0
60C0
60C0
60C0
60C0
3FE0
1F60
0000
0000
0000
0000
ENDCHAR
STARTCHAR GREEK SMALL LETTER BETA
ENCODING 946
SWIDTH 1500 0
DWIDTH 12 0
BBX 12 24 0 -4
BITMAP
0000
0000
0000
0000
1E00
3F00
6180
6180
6180
6300
6600
6600
6300
6180
60C0
6060
6060
6060
6FC0
6F80
6000
6000
6000
6000
ENDCHAR
STARTCHAR GREEK SMALL LETTER GAMMA
ENCODING 947
SWIDTH 1500 0
DWIDTH 12 0
BBX 12 24 0 -4
BITMAP
0000
0000
0000
0000
0000
0000
0000
0000
0000
0000
6060
6060
30C0
30C0
1980
1980
0F00
0F00
0600
0600
0600
0600
0600
0600
ENDCHAR
STARTCHAR GREEK SMALL LETTER DELTA
ENCODING 948
SWIDTH 1500 0
DWIDTH 12 0
BBX 12 24 0 -4
BITMAP
0000
0000
0000
0000
1F80
3F80
6000
6000
3800
0E00
1F80
3FC0
6060
6060
6060
6060
6060
6060
3FC0
1F80
0000
0000
0000
0000
ENDCHAR
STARTCHAR GREEK SMALL LETTER EPSILON
ENCODING 949
SWIDTH 1500 0
DWIDTH 12 0
BBX 12 24 0 -4
BITMAP
0000
0000
0000
0000
0000
0000
0000
0000
0000
0000
1FE0
3FE0
6000
6000
3E00
3E00
6000
6000
3FE0
1FE0
0000
0000
0000
0000
ENDCHAR
STARTCHAR GREEK SMALL LETTER ZETA
ENCODING 950
SWIDTH 1500 0
DWIDTH 12 0
BBX 12 24 0 -4
BITMAP
0000
0000
0000
0000
7FE0
7FE0
0060
00C0
0180
0300
0600
0C00
1800
3000
6000
6000
6000
6000
3F80
1FC0
0060
0060
0000
0000
ENDCHAR
STARTCHAR GREEK SMALL LETTER ETA
ENCODING 951
SWIDTH 1500 0
DWIDTH 12 0
BBX 12 24 0 -4
BITMAP
0000
0000
0000
0000
0000
0000
0000
0000
0000
0000
7F80
7FC0
6060
6060
6060
6060
6060
6060
6060
6060
0060
0060
0060
0060
ENDCHAR
STARTCHAR GREEK SMALL LETTER THETA
ENCODING 952
SWIDTH 1500 0
DWIDTH 12 0
BBX 12 24 0 -4
BITMAP
0000
0000
0000
0000
1F80
3FC0
6060
6060
6060
6060
6060
7FE0
7FE0
6060
6060
6060
6060
6060
3FC0
1F80
0000
0000
0000
0000
ENDCHAR
STARTCHAR GREEK SMALL LETTER IOTA
ENCODING 953
SWIDTH 1500 0
DWIDTH 12 0
BBX 12 24 0 -4
BITMAP
0000
0000
0000
0000
0000
0000
0000
0000
0000
0000
0600
0600
0600
0600
0600
0600
0600
0600
0600
0300
0000
0000
0000
0000
ENDCHAR
STARTCHAR GREEK SMALL LETTER KAPPA
ENCODING 954
SWIDTH 1500 0
DWIDTH 12 0
BBX 12 24 0 -4
BITMAP
0000
0000
0000
0000
0000
0000
0000
0000
0000
0000
30C0
3180
3300
3600
3C00
3C00
3600
3300
3180
30C0
0000
0000
0000
0000
ENDCHAR
STARTCHAR GREEK SMALL LETTER LAMDA
ENCODING 955
SWIDTH 1500 0
DWIDTH 12 0
BBX 12 24 0 -4
BITMAP
0000
0000
0000
0000
1800
1C00
0600
0600
0300
0300
0700
0780
0D80
0D80
18C0
18C0
30C0
3060
6060
6060
0000
0000
0000
0000
ENDCHAR
STARTCHAR GREEK SMALL LETTER MU
ENCODING 956
SWIDTH 1500 0
DWIDTH 12 0
BBX 12 24 0 -4
BITMAP
0000
0000
0000
0000
0000
0000
0000
0000
0000
0000
6060
6060
6060
6060
6060
6060
6060
6060
7FC0
7F80
6000
6000
6000
6000
ENDCHAR
STARTCHAR GREEK SMALL LETTER NU
ENCODING 957
SWIDTH 1500 0
DWIDTH 12 0
BBX 12 24 0 -4
BITMAP
0000
0000
0000
0000
0000
0000
0000
0000
0000
0000
6060
6060
3060
3060
1860
18C0
0CC0
0D80
0700
0600
0000
0000
0000
0000
ENDCHAR
STARTCHAR GREEK SMALL LETTER XI
ENCODING 958
SWIDTH 1500 0
DWIDTH 12 0
BBX 12 24 0 -4
BITMAP
0000
0000
0000
0000
1FE0
1FE0
0600
0C00
1800
0C00
0780
0F80
1800
3000
6000
6000
6000
6000
3F80
1FC0
0060
0060
0000
0000
ENDCHAR
STARTCHAR GREEK SMALL LETTER OMICRON
ENCODING 959
SWIDTH 1500 0
DWIDTH 12 0
BBX 12 24 0 -4
BITMAP
0000
0000
0000
0000
0000
0000
0000
0000
0000
0000
1F80
3FC0
6060
6060
6060
6060
6060
6060
3FC0
1F80
0000
0000
0000
0000
ENDCHAR
STARTCHAR GREEK SMALL LETTER PI
ENCODING 960
SWIDTH 1500 0
DWIDTH 12 0
BBX 12 24 0 -4
BITMAP
0000
0000
0000
0000
0000
0000
0000
0000
0000
0000
7FE0
7FE0
1980
1980
1980
1980
1980
1980
71E0
60E0
0000
0000
0000
0000
ENDCHAR
STARTCHAR GREEK SMALL LETTER RHO
ENCODING 961
SWIDTH 1500 0
DWIDTH 12 0
BBX 12 24 0 -4
BITMAP
0000
0000
0000
0000
0000
0000
0000
0000
0000
0000
1F80
3FC0
6060
6060
6060
6060
6060
6060
7FC0
7F80
6000
6000
6000
6000
ENDCHAR
STARTCHAR GREEK SMALL LETTER FINAL SIGMA
ENCODING 962
SWIDTH 1500 0
DWIDTH 12 0
BBX 12 24 0 -4
BITMAP
0000
0000
0000
0000
0000
0000
0000
0000
0000
0000
1FE0
3FE0
6000
6000
6000
6000
6000
6000
3F80
1FC0
0060
0060
0000
0000
ENDCHAR
STARTCHAR GREEK SMALL LETTER SIGMA
ENCODING 963
SWIDTH 1500 0
DWIDTH 12 0
BBX 12 24 0 -4
BITMAP
0000
0000
0000
0000
0000
0000
0000
0000
0000
0000
1FE0
3FE0
60C0
6060
6060
6060
6060
6060
3FC0
1F80
0000
0000
0000
0000
ENDCHAR
STARTCHAR GREEK SMALL LETTER TAU
ENCODING 964
SWIDTH 1500 0
DWIDTH 12 0
BBX 12 24 0 -4
BITMAP
0000
0000
0000
0000
0000
0000
0000
0000
0000
0000
7FE0
7FE0
0600
0600
0600
0600
0600
0600
0600
0300
0000
0000
0000
0000
ENDCHAR
STARTCHAR GREEK SMALL LETTER UPSILON
ENCODING 965
SWIDTH 1500 0
DWIDTH 12 0
BBX 12 24 0 -4
BITMAP
0000
0000
0000
0000
0000
0000
0000
0000
0000
0000
6060
6060
6060
6060
6060
6060
6060
6060
3FC0
1F80
0000
0000
0000
0000
ENDCHAR
STARTCHAR GREEK SMALL LETTER PHI
ENCODING 966
SWIDTH 1500 0
DWIDTH 12 0
BBX 12 24 0 -4
BITMAP
0000
0000
0000
0000
0000
0000
0000
0000
0000
0000
0180
63C0
6660
6660
6660
6660
6660
6660
3FC0
1F80
0600
0600
0600
0600
ENDCHAR
STARTCHAR GREEK SMALL LETTER CHI
ENCODING 967
SWIDTH 1500 0
DWIDTH 12 0
BBX 12 24 0 -4
BITMAP
0000
0000
0000
0000
0000
0000
0000
0000
0000
0000
7860
7C60
0660
0660
06C0
0780
0700
0E00
1E00
3600
6600
6600
63E0
61E0
ENDCHAR
STARTCHAR GREEK SMALL LETTER PSI
ENCODING 968
SWIDTH 1500 0
DWIDTH 12 0
BBX 12 24 0 -4
BITMAP
0000
0000
0000
0000
0000
0000
0600
0600
0600
0600
6660
6660
6660
6660
6660
6660
6660
6660
3FC0
1F80
0600
0600
0600
0600
ENDCHAR
STARTCHAR GREEK SMALL LETTER OMEGA
ENCODING 969
SWIDTH 1500 0
DWIDTH 12 0
BBX 12 24 0 -4
BITMAP
0000
0000
0000
0000
0000
0000
0000
0000
0000
0000
1080
30C0
6060
6060
6660
6660
6660
6660
3FC0
1980
0000
0000
0000
0000
ENDCHAR
STARTCHAR GREEK SMALL LETTER IOTA WITH DIALYTIKA
ENCODING 970
SWIDTH 1500 0
DWIDTH 12 0
BBX 12 24 0 -4
BITMAP
0000
0000
0000
0000
0000
0000
1980
1980
0000
0000
0600
0600
0600
0600
0600
0600
0600
0600
0600
0300
0000
0000
0000
0000
ENDCHAR
STARTCHAR GREEK SMALL LETTER UPSILON WITH DIALYTIKA
ENCODING 971
SWIDTH 1500 0
DWIDTH 12 0
BBX 12 24 0 -4
BITMAP
0000
0000
0000
0000
0000
0000
1980
1980
0000
0000
6060
6060
6060
6060
6060
6060
6060
6060
3FC0
1F80
0000
0000
0000
0000
ENDCHAR
STARTCHAR GREEK SMALL LETTER OMICRON WITH TONOS
ENCODING 972
SWIDTH 1500 0
DWIDTH 12 0
BBX 12 24 0 -4
BITMAP
0000
0000
0000
0000
00C0
0180
0300
0600
0000
0000
1F80
3FC0
6060
6060
6060
6060
6060
6060
3FC0
1F80
0000
0000
0000
0000
ENDCHAR
STARTCHAR GREEK SMALL LETTER UPSILON WITH TONOS
ENCODING 973
SWIDTH 1500 0
DWIDTH 12 0
BBX 12 24 0 -4
BITMAP
0000
0000
0000
0000
00C0
0180
0300
0600
0000
0000
6060
6060
6060
6060
6060
6060
6060
6060
3FC0
1F80
0000
0000
0000
0000
ENDCHAR
STARTCHAR GREEK SMALL LETTER OMEGA WITH TONOS
ENCODING 974
SWIDTH 1500 0
DWIDTH 12 0
BBX 12 24 0 -4
BITMAP
0000
0000
0000
0000
00C0
0180
0300
0600
0000
0000
1080
30C0
6060
6060
6660
6660
6660
6660
3FC0
1980
0000
0000
0000
0000
ENDCHAR
STARTCHAR CYRILLIC CAPITAL LETTER IE WITH GRAVE
ENCODING 1024
SWIDTH 1500 0
DWIDTH 12 0
BBX 12 24 0 -4
BITMAP
3000
1800
0C00
0600
0000
0000
7FE0
7FE0
6000
6000
6000
6000
7E00
7E00
6000
6000
6000
6000
7FE0
7FE0
0000
0000
0000
0000
ENDCHAR
STARTCHAR CYRILLIC CAPITAL LETTER IO
ENCODING 1025
SWIDTH 1500 0
DWIDTH 12 0
BBX 12 24 0 -4
BITMAP
0000
0000
1980
1980
0000
0000
7FE0
7FE0
6000
6000
6000
6000
7E00
7E00
6000
6000
6000
6000
7FE0
7FE0
0000
0000
0000
0000
ENDCHAR
STARTCHAR CYRILLIC CAPITAL LETTER DJE
ENCODING 1026
SWIDTH 1500 0
DWIDTH 12 0
BBX 12 24 0 -4
BITMAP
0000
0000
0000
0000
0000
0000
FE00
FE00
3000
3000
3000
3000
3FC0
3FE0
3030
3030
3030
3030
3030
3030
00E0
00C0
0000
0000
ENDCHAR
STARTCHAR CYRILLIC CAPITAL LETTER GJE
ENCODING 1027
SWIDTH 1500 0
DWIDTH 12 0
BBX 12 24 0 -4
BITMAP
00C0
0180
0300
0600
0000
0000
7FE0
7FE0
6000
6000
6000
6000
6000
6000
6000
6000
6000
6000
6000
6000
0000
0000
0000
0000
ENDCHAR
STARTCHAR CYRILLIC CAPITAL LETTER UKRAINIAN IE
ENCODING 1028
SWIDTH 1500 0
DWIDTH 12 0
BBX 12 24 0 -4
BITMAP
0000
0000
0000
0000
0000
0000
1FE0
3FE0
6000
6000
6000
6000
7E00
7E00
6000
6000
6000
6000
3FE0
1FE0
0000
0000
0000
0000
ENDCHAR
STARTCHAR CYRILLIC CAPITAL LETTER DZE
ENCODING 1029
SWIDTH 1500 0
DWIDTH 12 0
BBX 12 24 0 -4
BITMAP
0000
0000
0000
0000
0000
0000
1FE0
3FE0
6000
6000
6000
6000
3F80
1FC0
0060
0060
0060
0060
7FC0
7F80
0000
0000
0000
0000
ENDCHAR
STARTCHAR CYRILLIC CAPITAL LETTER BYELORUSSIAN-UKRAINIAN I
ENCODING 1030
SWIDTH 1500 0
DWIDTH 12 0
BBX 12 24 0 -4
BITMAP
0000
0000
0000
0000
0000
0000
0F00
0F00
0600
0600
0600
0600
0600
0600
0600
0600
0600
0600
0F00
0F00
0000
0000
0000
0000
ENDCHAR
STARTCHAR CYRILLIC CAPITAL LETTER YI
ENCODING 1031
SWIDTH 1500 0
DWIDTH 12 0
BBX 12 24 0 -4
BITMAP
0000
0000
1980
1980
0000
0000
0F00
0F00
0600
0600
0600
0600
0600
0600
0600
0600
0600
0600
0F00
0F00
0000
0000
0000
0000
ENDCHAR
STARTCHAR CYRILLIC CAPITAL LETTER JE
ENCODING 1032
SWIDTH 1500 0
DWIDTH 12 0
BBX 12 24 0 -4
BITMAP
0000
0000
0000
0000
0000
0000
0060
0060
0060
0060
0060
0060
0060
0060
0060
0060
6060
6060
3FC0
1F80
0000
0000
0000
0000
ENDCHAR
STARTCHAR CYRILLIC CAPITAL LETTER LJE
ENCODING 1033
SWIDTH 1500 0
DWIDTH 12 0
BBX 12 24 0 -4
BITMAP
0000
0000
0000
0000
0000
0000
0F00
1F00
3300
3300
3300
3300
33C0
33E0
3330
3330
3330
3330
E3E0
C3C0
0000
0000
0000
0000
ENDCHAR
STARTCHAR CYRILLIC CAPITAL LETTER NJE
ENCODING 1034
SWIDTH 1500 0
DWIDTH 12 0
BBX 12 24 0 -4
BITMAP
0000
0000
0000
0000
0000
0000
C600
C600
C600
C600
C600
C600
FFC0
FFE0
C630
C630
C630
C630
C7E0
C7C0
0000
0000
0000
0000
ENDCHAR
STARTCHAR CYRILLIC CAPITAL LETTER TSHE
ENCODING 1035
SWIDTH 1500 0
DWIDTH 12 0
BBX 12 24 0 -4
BITMAP
0000
0000
0000
0000
0000
0000
FE00
FE00
3000
3000
3000
3000
3FC0
3FE0
3030
3030
3030
3030
3030
3030
0000
0000
0000
0000
ENDCHAR
STARTCHAR CYRILLIC CAPITAL LETTER KJE
ENCODING 1036
SWIDTH 1500 0
DWIDTH 12 0
BBX 12 24 0 -4
BITMAP
00C0
0180
0300
0600
0000
0000
6060
60C0
6180
6300
6600
6C00
7800
7800
6C00
6600
6300
6180
60C0
6060
0000
0000
0000
0000
ENDCHAR
STARTCHAR CYRILLIC CAPITAL LETTER I WITH GRAVE
ENCODING 1037
SWIDTH 1500 0
DWIDTH 12 0
BBX 12 24 0 -4
BITMAP
3000
1800
0C00
0600
0000
0000
6060
6060
6060
6060
60E0
61E0
6360
6660
6C60
7860
7060
6060
6060
6060
0000
0000
0000
0000
ENDCHAR
STARTCHAR CYRILLIC CAPITAL LETTER SHORT U
ENCODING 1038
SWIDTH 1500 0
DWIDTH 12 0
BBX 12 24 0 -4
BITMAP
0000
30C0
1F80
0F00
0000
0000
6060
6060
6060
6060
6060
6060
3FE0
1FE0
0060
0060
0060
0060
0FC0
0F80
0000
0000
0000
0000
ENDCHAR
STARTCHAR CYRILLIC CAPITAL LETTER DZHE
ENCODING 1039
SWIDTH 1500 0
DWIDTH 12 0
BBX 12 24 0 -4
BITMAP
0000
0000
0000
0000
0000
0000
6060
6060
6060
6060
6060
6060
6060
6060
6060
6060
6060
6060
7FE0
7FE0
0600
0600
0000
0000
ENDCHAR
STARTCHAR CYRILLIC CAPITAL LETTER A
ENCODING 1040
SWIDTH 1500 0
DWIDTH 12 0
BBX 12 24 0 -4
BITMAP
0000
0000
0000
0000
0000
0000
1F80
3FC0
6060
6060
6060
6060
6060
6060
7FE0
7FE0
6060
6060
6060
6060
0000
0000
0000
0000
ENDCHAR
STARTCHAR CYRILLIC CAPITAL LETTER BE
ENCODING 1041
SWIDTH 1500 0
DWIDTH 12 0
BBX 12 24 0 -4
BITMAP
0000
0000
0000
0000
0000
0000
7F80
7F80
6000
6000
6000
6000
7F80
7FC0
6060
6060
6060
6060
7FC0
7F80
0000
0000
0000
0000
ENDCHAR
STARTCHAR CYRILLIC CAPITAL LETTER VE
ENCODING 1042
SWIDTH 1500 0
DWIDTH 12 0
BBX 12 24 0 -4
BITMAP
0000
0000
0000
0000
0000
0000
7F80
7FC0
6060
6060
6060
6060
7FC0
7FC0
6060
6060
6060
6060
7FC0
7F80
0000
0000
0000
0000
ENDCHAR
STARTCHAR CYRILLIC CAPITAL LETTER GHE
ENCODING 1043
SWIDTH 1500 0
DWIDTH 12 0
BBX 12 24 0 -4
BITMAP
0000
0000
0000
0000
0000
0000
7FE0
7FE0
6000
6000
6000
6000
6000
6000
6000
6000
6000
6000
6000
6000
0000
0000
0000
0000
ENDCHAR
STARTCHAR CYRILLIC CAPITAL LETTER DE
ENCODING 1044
SWIDTH 1500 0
DWIDTH 12 0
BBX 12 24 0 -4
BITMAP
0000
0000
0000
0000
0000
0000
0FC0
1FC0
30C0
30C0
30C0
30C0
30C0
30C0
30C0
30C0
30C0
30C0
FFF0
FFF0
C030
C030
0000
0000
ENDCHAR
STARTCHAR CYRILLIC CAPITAL LETTER IE
ENCODING 1045
SWIDTH 1500 0
DWIDTH 12 0
BBX 12 24 0 -4
BITMAP
0000
0000
0000
0000
0000
0000
7FE0
7FE0
6000
6000
6000
6000
7E00
7E00
6000
6000
6000
6000
7FE0
7FE0
0000
0000
0000
0000
ENDCHAR
STARTCHAR CYRILLIC CAPITAL LETTER ZHE
ENCODING 1046
SWIDTH 1500 0
DWIDTH 12 0
BBX 12 24 0 -4
BITMAP
0000
0000
0000
0000
0000
0000
C630
E670
6660
6660
6660
6660
3FC0
3FC0
6660
6660
6660
6660
E670
C630
0000
0000
0000
0000
ENDCHAR
STARTCHAR CYRILLIC CAPITAL LETTER ZE
ENCODING 1047
SWIDTH 1500 0
DWIDTH 12 0
BBX 12 24 0 -4
BITMAP
0000
0000
0000
0000
0000
0000
7F80
7FC0
0060
0060
0060
0060
07C0
07C0
0060
0060
0060
0060
7FC0
7F80
0000
0000
0000
0000
ENDCHAR
STARTCHAR CYRILLIC CAPITAL LETTER I
ENCODING 1048
SWIDTH 1500 0
DWIDTH 12 0
BBX 12 24 0 -4
BITMAP
0000
0000
0000
0000
0000
0000
6060
6060
6060
6060
60E0
61E0
6360
6660
6C60
7860
7060
6060
6060
6060
0000
0000
0000
0000
ENDCHAR
STARTCHAR CYRILLIC CAPITAL LETTER SHORT I
ENCODING 1049
SWIDTH 1500 0
DWIDTH 12 0
BBX 12 24 0 -4
BITMAP
0000
30C0
1F80
0F00
0000
0000
6060
6060
6060
6060
60E0
61E0
6360
6660
6C60
7860
7060
6060
6060
6060
0000
0000
0000
0000
ENDCHAR
STARTCHAR CYRILLIC CAPITAL LETTER KA
ENCODING 1050
SWIDTH 1500 0
DWIDTH 12 0
BBX 12 24 0 -4
BITMAP
0000
0000
0000
0000
0000
0000
6060
60C0
6180
6300
6600
6C00
7800
7800
6C00
6600
6300
6180
60C0
6060
0000
0000
0000
0000
ENDCHAR
STARTCHAR CYRILLIC CAPITAL LETTER EL
ENCODING 1051
SWIDTH 1500 0
DWIDTH 12 0
BBX 12 24 0 -4
BITMAP
0000
0000
0000
0000
0000
0000
07E0
0FE0
1860
1860
1860
1860
1860
1860
1860
1860
1860
1860
7060
6060
0000
0000
0000
0000
ENDCHAR
STARTCHAR CYRILLIC CAPITAL LETTER EM
ENCODING 1052
SWIDTH 1500 0
DWIDTH 12 0
BBX 12 24 0 -4
BITMAP
0000
0000
0000
0000
0000
0000
4020
6060
70E0
79E0
6F60
6660
6060
6060
6060
6060
6060
6060
6060
6060
0000
0000
0000
0000
ENDCHAR
STARTCHAR CYRILLIC CAPITAL LETTER EN
ENCODING 1053
SWIDTH 1500 0
DWIDTH 12 0
BBX 12 24 0 -4
BITMAP
0000
0000
0000
0000
0000
0000
6060
6060
6060
6060
6060
6060
7FE0
7FE0
6060
6060
6060
6060
6060
6060
0000
0000
0000
0000
ENDCHAR
STARTCHAR CYRILLIC CAPITAL LETTER O
ENCODING 1054
SWIDTH 1500 0
DWIDTH 12 0
BBX 12 24 0 -4
BITMAP
0000
0000
0000
0000
0000
0000
1F80
3FC0
6060
6060
6060
6060
6060
6060
6060
6060
6060
6060
3FC0
1F80
0000
0000
0000
0000
ENDCHAR
STARTCHAR CYRILLIC CAPITAL LETTER PE
ENCODING 1055
SWIDTH 1500 0
DWIDTH 12 0
BBX 12 24 0 -4
BITMAP
0000
0000
0000
0000
0000
0000
7FE0
7FE0
6060
6060
6060
6060
6060
6060
6060
6060
6060
6060
6060
6060
0000
0000
0000
0000
ENDCHAR
STARTCHAR CYRILLIC CAPITAL LETTER ER
ENCODING 1056
SWIDTH 1500 0
DWIDTH 12 0
BBX 12 24 0 -4
BITMAP
0000
0000
0000
0000
0000
0000
7F80
7FC0
6060
6060
6060
6060
6060
6060
7FC0
7F80
6000
6000
6000
6000
0000
0000
0000
0000
ENDCHAR
STARTCHAR CYRILLIC CAPITAL LETTER ES
ENCODING 1057
SWIDTH 1500 0
DWIDTH 12 0
BBX 12 24 0 -4
BITMAP
0000
0000
0000
0000
0000
0000
1FE0
3FE0
6000
6000
6000
6000
6000
6000
6000
6000
6000
6000
3FE0
1FE0
0000
0000
0000
0000
ENDCHAR
STARTCHAR CYRILLIC CAPITAL LETTER TE
ENCODING 1058
SWIDTH 1500 0
DWIDTH 12 0
BBX 12 24 0 -4
BITMAP
0000
0000
0000
0000
0000
0000
7FE0
7FE0
0600
0600
0600
0600
0600
0600
0600
0600
0600
0600
0600
0600
0000
0000
0000
0000
ENDCHAR
STARTCHAR CYRILLIC CAPITAL LETTER U
ENCODING 1059
SWIDTH 1500 0
DWIDTH 12 0
BBX 12 24 0 -4
BITMAP
0000
0000
0000
0000
0000
0000
6060
6060
6060
6060
6060
6060
3FE0
1FE0
0060
0060
0060
0060
0FC0
0F80
0000
0000
0000
0000
ENDCHAR
STARTCHAR CYRILLIC CAPITAL LETTER EF
ENCODING 1060
SWIDTH 1500 0
DWIDTH 12 0
BBX 12 24 0 -4
BITMAP
0000
0000
0000
0000
0000
0000
0600
0600
1F80
3FC0
6660
6660
6660
6660
6660
6660
3FC0
1F80
0600
0600
0000
0000
0000
0000
ENDCHAR
STARTCHAR CYRILLIC CAPITAL LETTER HA
ENCODING 1061
SWIDTH 1500 0
DWIDTH 12 0
BBX 12 24 0 -4
BITMAP
0000
0000
0000
0000
0000
0000
6060
6060
6060
30C0
1980
0F00
0600
0600
0F00
1980
30C0
6060
6060
6060
0000
0000
0000
0000
ENDCHAR
STARTCHAR CYRILLIC CAPITAL LETTER TSE
ENCODING 1062
SWIDTH 1500 0
DWIDTH 12 0
BBX 12 24 0 -4
BITMAP
0000
0000
0000
0000
0000
0000
C0C0
C0C0
C0C0
C0C0
C0C0
C0C0
C0C0
C0C0
C0C0
C0C0
C0C0
C0C0
FFC0
FFF0
0030
0030
0000
0000
ENDCHAR
STARTCHAR CYRILLIC CAPITAL LETTER CHE
ENCODING 1063
SWIDTH 1500 0
DWIDTH 12 0
BBX 12 24 0 -4
BITMAP
0000
0000
0000
0000
0000
0000
6060
6060
6060
6060
6060
6060
3FE0
1FE0
0060
0060
0060
0060
0060
0060
0000
0000
0000
0000
ENDCHAR
STARTCHAR CYRILLIC CAPITAL LETTER SHA
ENCODING 1064
SWIDTH 1500 0
DWIDTH 12 0
BBX 12 24 0 -4
BITMAP
0000
0000
0000
0000
0000
0000
6660
6660
6660
6660
6660
6660
6660
6660
6660
6660
6660
6660
7FE0
7FE0
0000
0000
0000
0000
ENDCHAR
STARTCHAR CYRILLIC CAPITAL LETTER SHCHA
ENCODING 1065
SWIDTH 1500 0
DWIDTH 12 0
BBX 12 24 0 -4
BITMAP
0000
0000
0000
0000
0000
0000
CCC0
CCC0
CCC0
CCC0
CCC0
CCC0
CCC0
CCC0
CCC0
CCC0
CCC0
CCC0
FFC0
FFF0
0030
0030
0000
0000
ENDCHAR
STARTCHAR CYRILLIC CAPITAL LETTER HARD SIGN
ENCODING 1066
SWIDTH 1500 0
DWIDTH 12 0
BBX 12 24 0 -4
BITMAP
0000
0000
0000
0000
0000
0000
F000
F000
3000
3000
3000
3000
3FC0
3FE0
3030
3030
3030
3030
3FE0
3FC0
0000
0000
0000
0000
ENDCHAR
STARTCHAR CYRILLIC CAPITAL LETTER YERU
ENCODING 1067
SWIDTH 1500 0
DWIDTH 12 0
BBX 12 24 0 -4
BITMAP
0000
0000
0000
0000
0000
0000
C030
C030
C030
C030
C030
C030
FE30
FF30
C1B0
C1B0
C1B0
C1B0
FF30
FE30
0000
0000
0000
0000
ENDCHAR
STARTCHAR CYRILLIC CAPITAL LETTER SOFT SIGN
ENCODING 1068
SWIDTH 1500 0
DWIDTH 12 0
BBX 12 24 0 -4
BITMAP
0000
0000
0000
0000
0000
0000
6000
6000
6000
6000
6000
6000
7F80
7FC0
6060
6060
6060
6060
7FC0
7F80
0000
0000
0000
0000
ENDCHAR
STARTCHAR CYRILLIC CAPITAL LETTER E
ENCODING 1069
SWIDTH 1500 0
DWIDTH 12 0
BBX 12 24 0 -4
BITMAP
0000
0000
0000
0000
0000
0000
7F80
7FC0
0060
0060
0060
0060
07E0
07E0
0060
0060
0060
0060
7FC0
7F80
0000
0000
0000
0000
ENDCHAR
STARTCHAR CYRILLIC CAPITAL LETTER YU
ENCODING 1070
SWIDTH 1500 0
DWIDTH 12 0
BBX 12 24 0 -4
BITMAP
0000
0000
0000
0000
0000
0000
C7C0
CFE0
D830
D830
D830
D830
F830
F830
D830
D830
D830
D830
CFE0
C7C0
0000
0000
0000
0000
ENDCHAR
STARTCHAR CYRILLIC CAPITAL LETTER YA
ENCODING 1071
SWIDTH 1500 0
DWIDTH 12 0
BBX 12 24 0 -4
BITMAP
0000
0000
0000
0000
0000
0000
1FE0
3FE0
6060
6060
6060
6060
6060
6060
3FE0
1FE0
0C60
1860
3060
6060
0000
0000
0000
0000
ENDCHAR
STARTCHAR CYRILLIC SMALL LETTER A
ENCODING 1072
SWIDTH 1500 0
DWIDTH 12 0
BBX 12 24 0 -4
BITMAP
0000
0000
0000
0000
0000
0000
0000
0000
0000
0000
1F80
1FC0
0060
0060
1FE0
3FE0
6060
6060
3FE0
1FE0
0000
0000
0000
0000
ENDCHAR
STARTCHAR CYRILLIC SMALL LETTER BE
ENCODING 1073
SWIDTH 1500 0
DWIDTH 12 0
BBX 12 24 0 -4
BITMAP
0000
0000
0000
0060
07C0
1F80
1800
3000
3000
6000
7F80
7FC0
6060
6060
6060
6060
6060
6060
3FC0
1F80
0000
0000
0000
0000
ENDCHAR
STARTCHAR CYRILLIC SMALL LETTER VE
ENCODING 1074
SWIDTH 1500 0
DWIDTH 12 0
BBX 12 24 0 -4
BITMAP
0000
0000
0000
0000
0000
0000
0000
0000
0000
0000
7F80
7FC0
6060
6060
7FC0
7FC0
6060
6060
7FC0
7F80
0000
0000
0000
0000
ENDCHAR
STARTCHAR CYRILLIC SMALL LETTER GHE
ENCODING 1075
SWIDTH 1500 0
DWIDTH 12 0
BBX 12 24 0 -4
BITMAP
0000
0000
0000
0000
0000
0000
0000
0000
0000
0000
7FE0
7FE0
6000
6000
6000
6000
6000
6000
6000
6000
0000
0000
0000
0000
ENDCHAR
STARTCHAR CYRILLIC SMALL LETTER DE
ENCODING 1076
SWIDTH 1500 0
DWIDTH 12 0
BBX 12 24 0 -4
BITMAP
0000
0000
0000
0000
0000
0000
0000
0000
0000
0000
0FC0
1FC0
30C0
30C0
30C0
30C0
30C0
30C0
7FE0
7FE0
6060
6060
0000
0000
ENDCHAR
STARTCHAR CYRILLIC SMALL LETTER IE
ENCODING 1077
SWIDTH 1500 0
DWIDTH 12 0
BBX 12 24 0 -4
BITMAP
0000
0000
0000
0000
0000
0000
0000
0000
0000
0000
1F80
3FC0
6060
6060
7FE0
7FE0
6000
6000
3F80
1F80
0000
0000
0000
0000
ENDCHAR
STARTCHAR CYRILLIC SMALL LETTER ZHE
ENCODING 1078
SWIDTH 1500 0
DWIDTH 12 0
BBX 12 24 0 -4
BITMAP
0000
0000
0000
0000
0000
0000
0000
0000
0000
0000
C630
6660
6660
6660
3FC0
3FC0
6660
6660
6660
C630
0000
0000
0000
0000
ENDCHAR
STARTCHAR CYRILLIC SMALL LETTER ZE
ENCODING 1079
SWIDTH 1500 0
DWIDTH 12 0
BBX 12 24 0 -4
BITMAP
0000
0000
0000
0000
0000
0000
0000
0000
0000
0000
7F80
7FC0
0060
0060
07C0
07C0
0060
0060
7FC0
7F80
0000
0000
0000
0000
ENDCHAR
STARTCHAR CYRILLIC SMALL LETTER I
ENCODING 1080
SWIDTH 1500 0
DWIDTH 12 0
BBX 12 24 0 -4
BITMAP
0000
0000
0000
0000
0000
0000
0000
0000
0000
0000
6060
6060
60E0
61E0
6360
6660
6C60
7860
7060
6060
0000
0000
0000
0000
ENDCHAR
STARTCHAR CYRILLIC SMALL LETTER SHORT I
ENCODING 1081
SWIDTH 1500 0
DWIDTH 12 0
BBX 12 24 0 -4
BITMAP
0000
0000
0000
0000
0000
30C0
1F80
0F00
0000
0000
6060
6060
60E0
61E0
6360
6660
6C60
7860
7060
6060
0000
0000
0000
0000
ENDCHAR
STARTCHAR CYRILLIC SMALL LETTER KA
ENCODING 1082
SWIDTH 1500 0
DWIDTH 12 0
BBX 12 24 0 -4
BITMAP
0000
0000
0000
0000
0000
0000
0000
0000
0000
0000
30C0
3180
3300
3600
3C00
3C00
3600
3300
3180
30C0
0000
0000
0000
0000
ENDCHAR
STARTCHAR CYRILLIC SMALL LETTER EL
ENCODING 1083
SWIDTH 1500 0
DWIDTH 12 0
BBX 12 24 0 -4
BITMAP
0000
0000
0000
0000
0000
0000
0000
0000
0000
0000
07E0
0FE0
1860
1860
1860
1860
1860
1860
7060
6060
0000
0000
0000
0000
ENDCHAR
STARTCHAR CYRILLIC SMALL LETTER EM
ENCODING 1084
SWIDTH 1500 0
DWIDTH 12 0
BBX 12 24 0 -4
BITMAP
0000
0000
0000
0000
0000
0000
0000
0000
0000
0000
4020
6060
70E0
79E0
6F60
6660
6060
6060
6060
6060
0000
0000
0000
0000
ENDCHAR
STARTCHAR CYRILLIC SMALL LETTER EN
ENCODING 1085
SWIDTH 1500 0
DWIDTH 12 0
BBX 12 24 0 -4
BITMAP
0000
0000
0000
0000
0000
0000
0000
0000
0000
0000
6060
6060
6060
6060
7FE0
7FE0
6060
6060
6060
6060
0000
0000
0000
0000
ENDCHAR
STARTCHAR CYRILLIC SMALL LETTER O
ENCODING 1086
SWIDTH 1500 0
DWIDTH 12 0
BBX 12 24 0 -4
BITMAP
0000
0000
0000
0000
0000
0000
0000
0000
0000
0000
1F80
3FC0
6060
6060
6060
6060
6060
6060
3FC0
1F80
0000
0000
0000
0000
ENDCHAR
STARTCHAR CYRILLIC SMALL LETTER PE
ENCODING 1087
SWIDTH 1500 0
DWIDTH 12 0
BBX 12 24 0 -4
BITMAP
0000
0000
0000
0000
0000
0000
0000
0000
0000
0000
7FE0
7FE0
6060
6060
6060
6060
6060
6060
6060
6060
0000
0000
0000
0000
ENDCHAR
STARTCHAR CYRILLIC SMALL LETTER ER
ENCODING 1088
SWIDTH 1500 0
DWIDTH 12 0
BBX 12 24 0 -4
BITMAP
0000
0000
0000
0000
0000
0000
0000
0000
0000
0000
7F80
7FC0
6060
6060
6060
6060
6060
6060
7FC0
7F80
6000
6000
6000
6000
ENDCHAR
STARTCHAR CYRILLIC SMALL LETTER ES
ENCODING 1089
SWIDTH 1500 0
DWIDTH 12 0
BBX 12 24 0 -4
BITMAP
0000
0000
0000
0000
0000
0000
0000
0000
0000
0000
1FE0
3FE0
6000
6000
6000
6000
6000
6000
3FE0
1FE0
0000
0000
0000
0000
ENDCHAR
STARTCHAR CYRILLIC SMALL LETTER TE
ENCODING 1090
SWIDTH 1500 0
DWIDTH 12 0
BBX 12 24 0 -4
BITMAP
0000
0000
0000
0000
0000
0000
0000
0000
0000
0000
7FE0
7FE0
0600
0600
0600
0600
0600
0600
0600
0600
0000
0000
0000
0000
ENDCHAR
STARTCHAR CYRILLIC SMALL LETTER U
ENCODING 1091
SWIDTH 1500 0
DWIDTH 12 0
BBX 12 24 0 -4
BITMAP
0000
0000
0000
0000
0000
0000
0000
0000
0000
0000
6060
6060
6060
6060
6060
6060
6060
6060
3FE0
1FE0
0060
0060
0FC0
0F80
ENDCHAR
STARTCHAR CYRILLIC SMALL LETTER EF
ENCODING 1092
SWIDTH 1500 0
DWIDTH 12 0
BBX 12 24 0 -4
BITMAP
0000
0000
0000
0000
0000
0000
0600
0600
0600
0600
1F80
3FC0
6660
6660
6660
6660
6660
6660
3FC0
1F80
0600
0600
0600
0600
ENDCHAR
STARTCHAR CYRILLIC SMALL LETTER HA
ENCODING 1093
SWIDTH 1500 0
DWIDTH 12 0
BBX 12 24 0 -4
BITMAP
0000
0000
0000
0000
0000
0000
0000
0000
0000
0000
6060
30C0
1980
0F00
0600
0600
0F00
1980
30C0
6060
0000
0000
0000
0000
ENDCHAR
STARTCHAR CYRILLIC SMALL LETTER TSE
ENCODING 1094
SWIDTH 1500 0
DWIDTH 12 0
BBX 12 24 0 -4
BITMAP
0000
0000
0000
0000
0000
0000
0000
0000
0000
0000
6180
6180
6180
6180
6180
6180
6180
6180
7F80
7FE0
0060
0060
0000
0000
ENDCHAR
STARTCHAR CYRILLIC SMALL LETTER CHE
ENCODING 1095
SWIDTH 1500 0
DWIDTH 12 0
BBX 12 24 0 -4
BITMAP
0000
0000
0000
0000
0000
0000
0000
0000
0000
0000
6060
6060
6060
6060
3FE0
1FE0
0060
0060
0060
0060
0000
0000
0000
0000
ENDCHAR
STARTCHAR CYRILLIC SMALL LETTER SHA
ENCODING 1096
SWIDTH 1500 0
DWIDTH 12 0
BBX 12 24 0 -4
BITMAP
0000
0000
0000
0000
0000
0000
0000
0000
0000
0000
6660
6660
6660
6660
6660
6660
6660
6660
7FE0
7FE0
0000
0000
0000
0000
ENDCHAR
STARTCHAR CYRILLIC SMALL LETTER SHCHA
ENCODING 1097
SWIDTH 1500 0
DWIDTH 12 0
BBX 12 24 0 -4
BITMAP
0000
0000
0000
0000
0000
0000
0000
0000
0000
0000
CCC0
CCC0
CCC0
CCC0
CCC0
CCC0
CCC0
CCC0
FFC0
FFF0
0030
0030
0000
0000
ENDCHAR
STARTCHAR CYRILLIC SMALL LETTER HARD SIGN
ENCODING 1098
SWIDTH 1500 0
DWIDTH 12 0
BBX 12 24 0 -4
BITMAP
0000
0000
0000
0000
0000
0000
0000
0000
0000
0000
F000
F000
3000
3000
3FC0
3FE0
3030
3030
3FE0
3FC0
0000
0000
0000
0000
ENDCHAR
STARTCHAR CYRILLIC SMALL LETTER YERU
ENCODING 1099
SWIDTH 1500 0
DWIDTH 12 0
BBX 12 24 0 -4
BITMAP
0000
0000
0000
0000
0000
0000
0000
0000
0000
0000
C030
C030
C030
C030
FE30
FF30
C1B0
C1B0
FF30
FE30
0000
0000
0000
0000
ENDCHAR
STARTCHAR CYRILLIC SMALL LETTER SOFT SIGN
ENCODING 1100
SWIDTH 1500 0
DWIDTH 12 0
BBX 12 24 0 -4
BITMAP
0000
0000
0000
0000
0000
0000
0000
0000
0000
0000
6000
6000
6000
6000
7F80
7FC0
6060
6060
7FC0
7F80
0000
0000
0000
0000
ENDCHAR
STARTCHAR CYRILLIC SMALL LETTER E
ENCODING 1101
SWIDTH 1500 0
DWIDTH 12 0
BBX 12 24 0 -4
BITMAP
0000
0000
0000
0000
0000
0000
0000
0000
0000
0000
7F80
7FC0
0060
0060
07E0
07E0
0060
0060
7FC0
7F80
0000
0000
0000
0000
ENDCHAR
STARTCHAR CYRILLIC SMALL LETTER YU
ENCODING 1102
SWIDTH 1500 0
DWIDTH 12 0
BBX 12 24 0 -4
BITMAP
0000
0000
0000
0000
0000
0000
0000
0000
0000
0000
C7C0
CFE0
D830
D830
F830
F830
D830
D830
CFE0
C7C0
0000
0000
0000
0000
ENDCHAR
STARTCHAR CYRILLIC SMALL LETTER YA
ENCODING 1103
SWIDTH 1500 0
DWIDTH 12 0
BBX 12 24 0 -4
BITMAP
0000
0000
0000
0000
0000
0000
0000
0000
0000
0000
1FE0
3FE0
6060
6060
3FE0
1FE0
0C60
1860
3060
6060
0000
0000
0000
0000
ENDCHAR
STARTCHAR CYRILLIC SMALL LETTER IE WITH GRAVE
ENCODING 1104
SWIDTH 1500 0
DWIDTH 12 0
BBX 12 24 0 -4
BITMAP
0000
0000
0000
0000
3000
1800
0C00
0600
0000
0000
1F80
3FC0
6060
6060
7FE0
7FE0
6000
6000
3F80
1F80
0000
0000
0000
0000
ENDCHAR
STARTCHAR CYRILLIC SMALL LETTER IO
ENCODING 1105
SWIDTH 1500 0
DWIDTH 12 0
BBX 12 24 0 -4
BITMAP
0000
0000
0000
0000
0000
0000
1980
1980
0000
0000
1F80
3FC0
6060
6060
7FE0
7FE0
6000
6000
3F80
1F80
0000
0000
0000
0000
ENDCHAR
STARTCHAR CYRILLIC SMALL LETTER DJE
ENCODING 1106
SWIDTH 1500 0
DWIDTH 12 0
BBX 12 24 0 -4
BITMAP
0000
0000
0000
0000
3000
3000
FE00
FE00
3000
3000
3FC0
3FE0
3030
3030
3030
3030
3030
3030
3030
3030
0030
0030
00E0
00C0
ENDCHAR
STARTCHAR CYRILLIC SMALL LETTER GJE
ENCODING 1107
SWIDTH 1500 0
DWIDTH 12 0
BBX 12 24 0 -4
BITMAP
0000
0000
0000
0000
00C0
0180
0300
0600
0000
0000
7FE0
7FE0
6000
6000
6000
6000
6000
6000
6000
6000
0000
0000
0000
0000
ENDCHAR
STARTCHAR CYRILLIC SMALL LETTER UKRAINIAN IE
ENCODING 1108
SWIDTH 1500 0
DWIDTH 12 0
BBX 12 24 0 -4
BITMAP
0000
0000
0000
0000
0000
0000
0000
0000
0000
0000
1FE0
3FE0
6000
6000
7E00
7E00
6000
6000
3FE0
1FE0
0000
0000
0000
0000
ENDCHAR
STARTCHAR CYRILLIC SMALL LETTER DZE
ENCODING 1109
SWIDTH 1500 0
DWIDTH 12 0
BBX 12 24 0 -4
BITMAP
0000
0000
0000
0000
0000
0000
0000
0000
0000
0000
1FE0
3FE0
6000
6000
3F80
1FC0
0060
0060
7FC0
7F80
0000
0000
0000
0000
ENDCHAR
STARTCHAR CYRILLIC SMALL LETTER BYELORUSSIAN-UKRAINIAN I
ENCODING 1110
SWIDTH 1500 0
DWIDTH 12 0
BBX 12 24 0 -4
BITMAP
0000
0000
0000
0000
0000
0000
0600
0600
0000
0000
0E00
0E00
0600
0600
0600
0600
0600
0600
0600
0600
0000
0000
0000
0000
ENDCHAR
STARTCHAR CYRILLIC SMALL LETTER YI
ENCODING 1111
SWIDTH 1500 0
DWIDTH 12 0
BBX 12 24 0 -4
BITMAP
0000
0000
0000
0000
0000
0000
1980
1980
0000
0000
0E00
0E00
0600
0600
0600
0600
0600
0600
0600
0600
0000
0000
0000
0000
ENDCHAR
STARTCHAR CYRILLIC SMALL LETTER JE
ENCODING 1112
SWIDTH 1500 0
DWIDTH 12 0
BBX 12 24 0 -4
BITMAP
0000
0000
0000
0000
0000
0000
0600
0600
0000
0000
0E00
0E00
0600
0600
0600
0600
0600
0600
0600
0600
0600
0600
0C00
1800
ENDCHAR
STARTCHAR CYRILLIC SMALL LETTER LJE
ENCODING 1113
SWIDTH 1500 0
DWIDTH 12 0
BBX 12 24 0 -4
BITMAP
0000
0000
0000
0000
0000
0000
0000
0000
0000
0000
0F00
1F00
3300
3300
33C0
33E0
3330
3330
E3E0
C3C0
0000
0000
0000
0000
ENDCHAR
STARTCHAR CYRILLIC SMALL LETTER NJE
ENCODING 1114
SWIDTH 1500 0
DWIDTH 12 0
BBX 12 24 0 -4
BITMAP
0000
0000
0000
0000
0000
0000
0000
0000
0000
0000
C600
C600
C600
C600
FFC0
FFE0
C630
C630
C7E0
C7C0
0000
0000
0000
0000
ENDCHAR
STARTCHAR CYRILLIC SMALL LETTER TSHE
ENCODING 1115
SWIDTH 1500 0
DWIDTH 12 0
BBX 12 24 0 -4
BITMAP
0000
0000
0000
0000
3000
3000
FE00
FE00
3000
3000
3FC0
3FE0
3030
3030
3030
3030
3030
3030
3030
3030
0000
0000
0000
0000
ENDCHAR
STARTCHAR CYRILLIC SMALL LETTER KJE
ENCODING 1116
SWIDTH 1500 0
DWIDTH 12 0
BBX 12 24 0 -4
BITMAP
0000
0000
0000
0000
00C0
0180
0300
0600
0000
0000
30C0
3180
3300
3600
3C00
3C00
3600
3300
3180
30C0
0000
0000
0000
0000
ENDCHAR
STARTCHAR CYRILLIC SMALL LETTER I WITH GRAVE
ENCODING 1117
SWIDTH 1500 0
DWIDTH 12 0
BBX 12 24 0 -4
BITMAP
0000
0000
0000
0000
3000
1800
0C00
0600
0000
0000
6060
6060
60E0
61E0
6360
6660
6C60
7860
7060
6060
0000
0000
0000
0000
ENDCHAR
STARTCHAR CYRILLIC SMALL LETTER SHORT U
ENCODING 1118
SWIDTH 1500 0
DWIDTH 12 0
BBX 12 24 0 -4
BITMAP
0000
0000
0000
0000
0000
30C0
1F80
0F00
0000
0000
6060
6060
6060
6060
6060
6060
6060
6060
3FE0
1FE0
0060
0060
0FC0
0F80
ENDCHAR
STARTCHAR CYRILLIC SMALL LETTER DZHE
ENCODING 1119
SWIDTH 1500 0
DWIDTH 12 0
BBX 12 24 0 -4
BITMAP
0000
0000
0000
0000
0000
0000
0000
0000
0000
0000
6060
6060
6060
6060
6060
6060
6060
6060
7FE0
7FE0
0600
0600
0600
0600
ENDCHAR
STARTCHAR CYRILLIC CAPITAL LETTER YAT
ENCODING 1122
SWIDTH 1500 0
DWIDTH 12 0
BBX 12 24 0 -4
BITMAP
0000
0000
0000
0000
0000
0000
3000
FE00
FE00
3000
3000
3000
3FC0
3FE0
3030
3030
3030
3030
3FE0
3FC0
0000
0000
0000
0000
ENDCHAR
STARTCHAR CYRILLIC SMALL LETTER YAT
ENCODING 1123
SWIDTH 1500 0
DWIDTH 12 0
BBX 12 24 0 -4
BITMAP
0000
0000
0000
0000
0000
0000
0000
0000
0000
0000
3000
FE00
FE00
3000
3FC0
3FE0
3030
3030
3FE0
3FC0
0000
0000
0000
0000
ENDCHAR
STARTCHAR CYRILLIC CAPITAL LETTER SHORT I WITH TAIL
ENCODING 1162
SWIDTH 1500 0
DWIDTH 12 0
BBX 12 24 0 -4
BITMAP
0000
6180
3F00
1E00
0000
0000
C0C0
C0C0
C0C0
C0C0
C1C0
C3C0
C6C0
CCC0
D8C0
F0C0
E0C0
C0C0
C0C0
C0F0
0030
0030
0000
0000
ENDCHAR
STARTCHAR CYRILLIC SMALL LETTER SHORT I WITH TAIL
ENCODING 1163
SWIDTH 1500 0
DWIDTH 12 0
BBX 12 24 0 -4
BITMAP
0000
0000
0000
0000
0000
6180
3F00
1E00
0000
0000
C0C0
C0C0
C1C0
C3C0
C6C0
CCC0
D8C0
F0C0
E0C0
C0F0
0030
0030
0000
0000
ENDCHAR
STARTCHAR CYRILLIC CAPITAL LETTER SEMISOFT SIGN
ENCODING 1164
SWIDTH 1500 0
DWIDTH 12 0
BBX 12 24 0 -4
BITMAP
0000
0000
0000
0000
0000
0000
3000
FE00
FE00
3000
3000
3000
3FC0
3FE0
3030
3030
3030
3030
3FE0
3FC0
0000
0000
0000
0000
ENDCHAR
STARTCHAR CYRILLIC SMALL LETTER SEMISOFT SIGN
ENCODING 1165
SWIDTH 1500 0
DWIDTH 12 0
BBX 12 24 0 -4
BITMAP
0000
0000
0000
0000
0000
0000
0000
0000
0000
0000
3000
FE00
FE00
3000
3FC0
3FE0
3030
3030
3FE0
3FC0
0000
0000
0000
0000
ENDCHAR
STARTCHAR CYRILLIC CAPITAL LETTER ER WITH TICK
ENCODING 1166
SWIDTH 1500 0
DWIDTH 12 0
BBX 12 24 0 -4
BITMAP
0000
0000
0000
0000
0000
0000
7F80
7FC0
6060
6060
6060
6060
6360
61A0
7EC0
7F60
6000
6000
6000
6000
0000
0000
0000
0000
ENDCHAR
STARTCHAR CYRILLIC SMALL LETTER ER WITH TICK
ENCODING 1167
SWIDTH 1500 0
DWIDTH 12 0
BBX 12 24 0 -4
BITMAP
0000
0000
0000
0000
0000
0000
0000
0000
0000
0000
7F80
7FC0
6060
6060
6060
6060
6360
61A0
7EC0
7F60
6000
6000
6000
6000
ENDCHAR
STARTCHAR CYRILLIC CAPITAL LETTER GHE WITH UPTURN
ENCODING 1168
SWIDTH 1500 0
DWIDTH 12 0
BBX 12 24 0 -4
BITMAP
0000
0000
0000
0000
0060
0060
7FE0
7FE0
6000
6000
6000
6000
6000
6000
6000
6000
6000
6000
6000
6000
0000
0000
0000
0000
ENDCHAR
STARTCHAR CYRILLIC SMALL LETTER GHE WITH UPTURN
ENCODING 1169
SWIDTH 1500 0
DWIDTH 12 0
BBX 12 24 0 -4
BITMAP
0000
0000
0000
0000
0000
0000
0000
0000
0060
0060
7FE0
7FE0
6000
6000
6000
6000
6000
6000
6000
6000
0000
0000
0000
0000
ENDCHAR
STARTCHAR CYRILLIC CAPITAL LETTER GHE WITH STROKE
ENCODING 1170
SWIDTH 1500 0
DWIDTH 12 0
BBX 12 24 0 -4
BITMAP
0000
0000
0000
0000
0000
0000
3FF0
3FF0
3000
3000
3000
3000
FF00
FF00
3000
3000
3000
3000
3000
3000
0000
0000
0000
0000
ENDCHAR
STARTCHAR CYRILLIC SMALL LETTER GHE WITH STROKE
ENCODING 1171
SWIDTH 1500 0
DWIDTH 12 0
BBX 12 24 0 -4
BITMAP
0000
0000
0000
0000
0000
0000
0000
0000
0000
0000
3FF0
3FF0
3000
3000
FF00
FF00
3000
3000
3000
3000
0000
0000
0000
0000
ENDCHAR
STARTCHAR CYRILLIC CAPITAL LETTER ZHE WITH DESCENDER
ENCODING 1174
SWIDTH 1500 0
DWIDTH 12 0
BBX 12 24 0 -4
BITMAP
0000
0000
0000
0000
0000
0000
C630
E670
6660
6660
6660
6660
3FC0
3FC0
6660
6660
6660
6660
E670
C630
0030
0030
0000
0000
ENDCHAR
STARTCHAR CYRILLIC SMALL LETTER ZHE WITH DESCENDER
ENCODING 1175
SWIDTH 1500 0
DWIDTH 12 0
BBX 12 24 0 -4
BITMAP
0000
0000
0000
0000
0000
0000
0000
0000
0000
0000
C630
6660
6660
6660
3FC0
3FC0
6660
6660
6660
C630
0030
0030
0000
0000
ENDCHAR
STARTCHAR CYRILLIC CAPITAL LETTER ZE WITH DESCENDER
ENCODING 1176
SWIDTH 1500 0
DWIDTH 12 0
BBX 12 24 0 -4
BITMAP
0000
0000
0000
0000
0000
0000
7F80
7FC0
0060
0060
0060
0060
07C0
07C0
0060
0060
0060
0060
7FC0
7F80
0600
0600
0000
0000
ENDCHAR
STARTCHAR CYRILLIC SMALL LETTER ZE WITH DESCENDER
ENCODING 1177
SWIDTH 1500 0
DWIDTH 12 0
BBX 12 24 0 -4
BITMAP
0000
0000
0000
0000
0000
0000
0000
0000
0000
0000
7F80
7FC0
0060
0060
07C0
07C0
0060
0060
7FC0
7F80
0600
0600
0000
0000
ENDCHAR
STARTCHAR CYRILLIC CAPITAL LETTER KA WITH DESCENDER
ENCODING 1178
SWIDTH 1500 0
DWIDTH 12 0
BBX 12 24 0 -4
BITMAP
0000
0000
0000
0000
0000
0000
6060
60C0
6180
6300
6600
6C00
7800
7800
6C00
6600
6300
6180
60C0
6060
0060
0060
0000
0000
ENDCHAR
STARTCHAR CYRILLIC SMALL LETTER KA WITH DESCENDER
ENCODING 1179
SWIDTH 1500 0
DWIDTH 12 0
BBX 12 24 0 -4
BITMAP
0000
0000
0000
0000
0000
0000
0000
0000
0000
0000
30C0
3180
3300
3600
3C00
3C00
3600
3300
3180
30C0
00C0
00C0
0000
0000
ENDCHAR
STARTCHAR CYRILLIC CAPITAL LETTER KA WITH VERTICAL STROKE
ENCODING 1180
SWIDTH 1500 0
DWIDTH 12 0
BBX 12 24 0 -4
BITMAP
0000
0000
0000
0000
0000
0000
6060
60C0
6D80
6F00
6E00
6C00
7C00
7C00
6C00
6E00
6F00
6D80
60C0
6060
0000
0000
0000
0000
ENDCHAR
STARTCHAR CYRILLIC SMALL LETTER KA WITH VERTICAL STROKE
ENCODING 1181
SWIDTH 1500 0
DWIDTH 12 0
BBX 12 24 0 -4
BITMAP
0000
0000
0000
0000
0000
0000
0000
0000
0000
0000
6060
60C0
6D80
6F00
7E00
7E00
6F00
6D80
60C0
6060
0000
0000
0000
0000
ENDCHAR
STARTCHAR CYRILLIC CAPITAL LETTER BASHKIR KA
ENCODING 1184
SWIDTH 1500 0
DWIDTH 12 0
BBX 12 24 0 -4
BITMAP
0000
0000
0000
0000
0000
0000
F030
F060
30C0
3180
3300
3600
3C00
3C00
3600
3300
3180
30C0
3060
3030
0000
0000
0000
0000
ENDCHAR
STARTCHAR CYRILLIC SMALL LETTER BASHKIR KA
ENCODING 1185
SWIDTH 1500 0
DWIDTH 12 0
BBX 12 24 0 -4
BITMAP
0000
0000
0000
0000
0000
0000
0000
0000
0000
0000
7860
78C0
1980
1B00
1E00
1E00
1B00
1980
18C0
1860
0000
0000
0000
0000
ENDCHAR
STARTCHAR CYRILLIC CAPITAL LETTER EN WITH DESCENDER
ENCODING 1186
SWIDTH 1500 0
DWIDTH 12 0
BBX 12 24 0 -4
BITMAP
0000
0000
0000
0000
0000
0000
C0C0
C0C0
C0C0
C0C0
C0C0
C0C0
FFC0
FFC0
C0C0
C0C0
C0C0
C0C0
C0C0
C0F0
0030
0030
0000
0000
ENDCHAR
STARTCHAR CYRILLIC SMALL LETTER EN WITH DESCENDER
ENCODING 1187
SWIDTH 1500 0
DWIDTH 12 0
BBX 12 24 0 -4
BITMAP
0000
0000
0000
0000
0000
0000
0000
0000
0000
0000
C0C0
C0C0
C0C0
C0C0
FFC0
FFC0
C0C0
C0C0
C0C0
C0F0
0030
0030
0000
0000
ENDCHAR
STARTCHAR CYRILLIC CAPITAL LETTER ES WITH DESCENDER
ENCODING 1194
SWIDTH 1500 0
DWIDTH 12 0
BBX 12 24 0 -4
BITMAP
0000
0000
0000
0000
0000
0000
1FE0
3FE0
6000
6000
6000
6000
6000
6000
6000
6000
6000
6000
3FE0
1FE0
0600
0600
0000
0000
ENDCHAR
STARTCHAR CYRILLIC SMALL LETTER ES WITH DESCENDER
ENCODING 1195
SWIDTH 1500 0
DWIDTH 12 0
BBX 12 24 0 -4
BITMAP
0000
0000
0000
0000
0000
0000
0000
0000
0000
0000
1FE0
3FE0
6000
6000
6000
6000
6000
6000
3FE0
1FE0
0600
0600
0000
0000
ENDCHAR
STARTCHAR CYRILLIC CAPITAL LETTER STRAIGHT U
ENCODING 1198
SWIDTH 1500 0
DWIDTH 12 0
BBX 12 24 0 -4
BITMAP
0000
0000
0000
0000
0000
0000
6060
6060
6060
6060
30C0
1980
0F00
0600
0600
0600
0600
0600
0600
0600
0000
0000
0000
0000
ENDCHAR
STARTCHAR CYRILLIC SMALL LETTER STRAIGHT U
ENCODING 1199
SWIDTH 1500 0
DWIDTH 12 0
BBX 12 24 0 -4
BITMAP
0000
0000
0000
0000
0000
0000
0000
0000
0000
0000
6060
6060
30C0
30C0
1980
1980
0F00
0F00
0600
0600
0600
0600
0600
0600
ENDCHAR
STARTCHAR CYRILLIC CAPITAL LETTER STRAIGHT U WITH STROKE
ENCODING 1200
SWIDTH 1500 0
DWIDTH 12 0
BBX 12 24 0 -4
BITMAP
0000
0000
0000
0000
0000
0000
6060
6060
6060
6060
30C0
1980
0F00
0600
0600
1F80
1F80
0600
0600
0600
0000
0000
0000
0000
ENDCHAR
STARTCHAR CYRILLIC SMALL LETTER STRAIGHT U WITH STROKE
ENCODING 1201
SWIDTH 1500 0
DWIDTH 12 0
BBX 12 24 0 -4
BITMAP
0000
0000
0000
0000
0000
0000
0000
0000
0000
0000
6060
6060
30C0
30C0
1980
1980
0F00
0F00
0600
0600
1F80
1F80
0600
0600
ENDCHAR
STARTCHAR CYRILLIC CAPITAL LETTER SHHA
ENCODING 1210
SWIDTH 1500 0
DWIDTH 12 0
BBX 12 24 0 -4
BITMAP
0000
0000
0000
0000
0000
0000
6000
6000
6000
6000
6000
6000
7F80
7FC0
6060
6060
6060
6060
6060
6060
0000
0000
0000
0000
ENDCHAR
STARTCHAR CYRILLIC SMALL LETTER SHHA
ENCODING 1211
SWIDTH 1500 0
DWIDTH 12 0
BBX 12 24 0 -4
BITMAP
0000
0000
0000
0000
0000
0000
0000
0000
0000
0000
6000
6000
6000
6000
7F80
7FC0
6060
6060
6060
6060
0000
0000
0000
0000
ENDCHAR
STARTCHAR CYRILLIC LETTER PALOCHKA
ENCODING 1216
SWIDTH 1500 0
DWIDTH 12 0
BBX 12 24 0 -4
BITMAP
0000
0000
0000
0000
0000
0000
0F00
0F00
0600
0600
0600
0600
0600
0600
0600
0600
0600
0600
0F00
0F00
0000
0000
0000
0000
ENDCHAR
STARTCHAR CYRILLIC CAPITAL LETTER EL WITH TAIL
ENCODING 1221
SWIDTH 1500 0
DWIDTH 12 0
BBX 12 24 0 -4
BITMAP
0000
0000
0000
0000
0000
0000
0FC0
1FC0
30C0
30C0
30C0
30C0
30C0
30C0
30C0
30C0
30C0
30C0
E0C0
C0F0
0030
0030
0000
0000
ENDCHAR
STARTCHAR CYRILLIC SMALL LETTER EL WITH TAIL
ENCODING 1222
SWIDTH 1500 0
DWIDTH 12 0
BBX 12 24 0 -4
BITMAP
0000
0000
0000
0000
0000
0000
0000
0000
0000
0000
0FC0
1FC0
30C0
30C0
30C0
30C0
30C0
30C0
E0C0
C0F0
0030
0030
0000
0000
ENDCHAR
STARTCHAR CYRILLIC CAPITAL LETTER EN WITH HOOK
ENCODING 1223
SWIDTH 1500 0
DWIDTH 12 0
BBX 12 24 0 -4
BITMAP
0000
0000
0000
0000
0000
0000
6060
6060
6060
6060
6060
6060
7FE0
7FE0
6060
6060
6060
6060
6060
6060
0060
0060
01C0
0180
ENDCHAR
STARTCHAR CYRILLIC SMALL LETTER EN WITH HOOK
ENCODING 1224
SWIDTH 1500 0
DWIDTH 12 0
BBX 12 24 0 -4
BITMAP
0000
0000
0000
0000
0000
0000
0000
0000
0000
0000
6060
6060
6060
6060
7FE0
7FE0
6060
6060
6060
6060
0060
0060
01C0
0180
ENDCHAR
STARTCHAR CYRILLIC CAPITAL LETTER EN WITH TAIL
ENCODING 1225
SWIDTH 1500 0
DWIDTH 12 0
BBX 12 24 0 -4
BITMAP
0000
0000
0000
0000
0000
0000
C0C0
C0C0
C0C0
C0C0
C0C0
C0C0
FFC0
FFC0
C0C0
C0C0
C0C0
C0C0
C0C0
C0F0
0030
0030
0000
0000
ENDCHAR
STARTCHAR CYRILLIC SMALL LETTER EN WITH TAIL
ENCODING 1226
SWIDTH 1500 0
DWIDTH 12 0
BBX 12 24 0 -4
BITMAP
0000
0000
0000
0000
0000
0000
0000
0000
0000
0000
C0C0
C0C0
C0C0
C0C0
FFC0
FFC0
C0C0
C0C0
C0C0
C0F0
0030
0030
0000
0000
ENDCHAR
STARTCHAR CYRILLIC CAPITAL LETTER EM WITH TAIL
ENCODING 1229
SWIDTH 1500 0
DWIDTH 12 0
BBX 12 24 0 -4
BITMAP
0000
0000
0000
0000
0000
0000
8040
C0C0
E1C0
F3C0
DEC0
CCC0
C0C0
C0C0
C0C0
C0C0
C0C0
C0C0
C0C0
C0F0
0030
0030
0000
0000
ENDCHAR
STARTCHAR CYRILLIC SMALL LETTER EM WITH TAIL
ENCODING 1230
SWIDTH 1500 0
DWIDTH 12 0
BBX 12 24 0 -4
BITMAP
0000
0000
0000
0000
0000
0000
0000
0000
0000
0000
8040
C0C0
E1C0
F3C0
DEC0
CCC0
C0C0
C0C0
C0C0
C0F0
0030
0030
0000
0000
ENDCHAR
STARTCHAR CYRILLIC SMALL LETTER PALOCHKA
ENCODING 1231
SWIDTH 1500 0
DWIDTH 12 0
BBX 12 24 0 -4
BITMAP
0000
0000
0000
0000
1800
1800
1800
1800
1800
1800
1800
1800
1800
1800
1800
1800
1800
1800
0F80
0780
0000
0000
0000
0000
ENDCHAR
STARTCHAR CYRILLIC CAPITAL LETTER A WITH BREVE
ENCODING 1232
SWIDTH 1500 0
DWIDTH 12 0
BBX 12 24 0 -4
BITMAP
0000
6060
3FC0
1F80
0000
0000
1F80
3FC0
6060
6060
6060
6060
6060
6060
7FE0
7FE0
6060
6060
6060
6060
0000
0000
0000
0000
ENDCHAR
STARTCHAR CYRILLIC SMALL LETTER A WITH BREVE
ENCODING 1233
SWIDTH 1500 0
DWIDTH 12 0
BBX 12 24 0 -4
BITMAP
0000
0000
0000
0000
0000
30C0
1F80
0F00
0000
0000
1F80
1FC0
0060
0060
1FE0
3FE0
6060
6060
3FE0
1FE0
0000
0000
0000
0000
ENDCHAR
STARTCHAR CYRILLIC CAPITAL LETTER A WITH DIAERESIS
ENCODING 1234
SWIDTH 1500 0
DWIDTH 12 0
BBX 12 24 0 -4
BITMAP
0000
0000
1980
1980
0000
0000
1F80
3FC0
6060
6060
6060
6060
6060
6060
7FE0
7FE0
6060
6060
6060
6060
0000
0000
0000
0000
ENDCHAR
STARTCHAR CYRILLIC SMALL LETTER A WITH DIAERESIS
ENCODING 1235
SWIDTH 1500 0
DWIDTH 12 0
BBX 12 24 0 -4
BITMAP
0000
0000
0000
0000
0000
0000
1980
1980
0000
0000
1F80
1FC0
0060
0060
1FE0
3FE0
6060
6060
3FE0
1FE0
0000
0000
0000
0000
ENDCHAR
STARTCHAR CYRILLIC CAPITAL LIGATURE A IE
ENCODING 1236
SWIDTH 1500 0
DWIDTH 12 0
BBX 12 24 0 -4
BITMAP
0000
0000
0000
0000
0000
0000
3FF0
7FF0
C600
C600
C600
C600
C7C0
C7C0
FE00
FE00
C600
C600
C7F0
C7F0
0000
0000
0000
0000
ENDCHAR
STARTCHAR CYRILLIC SMALL LIGATURE A IE
ENCODING 1237
SWIDTH 1500 0
DWIDTH 12 0
BBX 12 24 0 -4
BITMAP
0000
0000
0000
0000
0000
0000
0000
0000
0000
0000
39C0
3FE0
0630
0630
3FF0
7FF0
C600
C600
7FE0
39E0
0000
0000
0000
0000
ENDCHAR
STARTCHAR CYRILLIC CAPITAL LETTER IE WITH BREVE
ENCODING 1238
SWIDTH 1500 0
DWIDTH 12 0
BBX 12 24 0 -4
BITMAP
0000
6060
3FC0
1F80
0000
0000
7FE0
7FE0
6000
6000
6000
6000
7E00
7E00
6000
6000
6000
6000
7FE0
7FE0
0000
0000
0000
0000
ENDCHAR
STARTCHAR CYRILLIC SMALL LETTER IE WITH BREVE
ENCODING 1239
SWIDTH 1500 0
DWIDTH 12 0
BBX 12 24 0 -4
BITMAP
0000
0000
0000
0000
0000
6060
3FC0
1F80
0000
0000
1F80
3FC0
6060
6060
7FE0
7FE0
6000
6000
3F80
1F80
0000
0000
0000
0000
ENDCHAR
STARTCHAR CYRILLIC CAPITAL LETTER SCHWA
ENCODING 1240
SWIDTH 1500 0
DWIDTH 12 0
BBX 12 24 0 -4
BITMAP
0000
0000
0000
0000
0000
0000
1F80
1FC0
0060
0060
0060
0060
7FE0
7FE0
6060
6060
6060
6060
3FC0
1F80
0000
0000
0000
0000
ENDCHAR
STARTCHAR CYRILLIC SMALL LETTER SCHWA
ENCODING 1241
SWIDTH 1500 0
DWIDTH 12 0
BBX 12 24 0 -4
BITMAP
0000
0000
0000
0000
0000
0000
0000
0000
0000
0000
1F80
1FC0
0060
0060
7FE0
7FE0
6060
6060
3FC0
1F80
0000
0000
0000
0000
ENDCHAR
STARTCHAR CYRILLIC CAPITAL LETTER I WITH MACRON
ENCODING 1250
SWIDTH 1500 0
DWIDTH 12 0
BBX 12 24 0 -4
BITMAP
0000
0000
3FC0
3FC0
0000
0000
6060
6060
6060
6060
60E0
61E0
6360
6660
6C60
7860
7060
6060
6060
6060
0000
0000
0000
0000
ENDCHAR
STARTCHAR CYRILLIC SMALL LETTER I WITH MACRON
ENCODING 1251
SWIDTH 1500 0
DWIDTH 12 0
BBX 12 24 0 -4
BITMAP
0000
0000
0000
0000
0000
0000
3FC0
3FC0
0000
0000
6060
6060
60E0
61E0
6360
6660
6C60
7860
7060
6060
0000
0000
0000
0000
ENDCHAR
STARTCHAR CYRILLIC CAPITAL LETTER O WITH DIAERESIS
ENCODING 1254
SWIDTH 1500 0
DWIDTH 12 0
BBX 12 24 0 -4
BITMAP
0000
0000
1980
1980
0000
0000
1F80
3FC0
6060
6060
6060
6060
6060
6060
6060
6060
6060
6060
3FC0
1F80
0000
0000
0000
0000
ENDCHAR
STARTCHAR CYRILLIC SMALL LETTER O WITH DIAERESIS
ENCODING 1255
SWIDTH 1500 0
DWIDTH 12 0
BBX 12 24 0 -4
BITMAP
0000
0000
0000
0000
0000
0000
1980
1980
0000
0000
1F80
3FC0
6060
6060
6060
6060
6060
6060
3FC0
1F80
0000
0000
0000
0000
ENDCHAR
STARTCHAR CYRILLIC CAPITAL LETTER BARRED O
ENCODING 1256
SWIDTH 1500 0
DWIDTH 12 0
BBX 12 24 0 -4
BITMAP
0000
0000
0000
0000
0000
0000
1F80
3FC0
6060
6060
6060
6060
7FE0
7FE0
6060
6060
6060
6060
3FC0
1F80
0000
0000
0000
0000
ENDCHAR
STARTCHAR CYRILLIC SMALL LETTER BARRED O
ENCODING 1257
SWIDTH 1500 0
DWIDTH 12 0
BBX 12 24 0 -4
BITMAP
0000
0000
0000
0000
0000
0000
0000
0000
0000
0000
1F80
3FC0
6060
6060
7FE0
7FE0
6060
6060
3FC0
1F80
0000
0000
0000
0000
ENDCHAR
STARTCHAR CYRILLIC CAPITAL LETTER E WITH DIAERESIS
ENCODING 1260
SWIDTH 1500 0
DWIDTH 12 0
BBX 12 24 0 -4
BITMAP
0000
0000
1980
1980
0000
0000
7F80
7FC0
0060
0060
0060
0060
07E0
07E0
0060
0060
0060
0060
7FC0
7F80
0000
0000
0000
0000
ENDCHAR
STARTCHAR CYRILLIC SMALL LETTER E WITH DIAERESIS
ENCODING 1261
SWIDTH 1500 0
DWIDTH 12 0
BBX 12 24 0 -4
BITMAP
0000
0000
0000
0000
0000
0000
1980
1980
0000
0000
7F80
7FC0
0060
0060
07E0
07E0
0060
0060
7FC0
7F80
0000
0000
0000
0000
ENDCHAR
STARTCHAR CYRILLIC CAPITAL LETTER U WITH MACRON
ENCODING 1262
SWIDTH 1500 0
DWIDTH 12 0
BBX 12 24 0 -4
BITMAP
0000
0000
3FC0
3FC0
0000
0000
6060
6060
6060
6060
6060
6060
3FE0
1FE0
0060
0060
0060
0060
0FC0
0F80
0000
0000
0000
0000
ENDCHAR
STARTCHAR CYRILLIC SMALL LETTER U WITH MACRON
ENCODING 1263
SWIDTH 1500 0
DWIDTH 12 0
BBX 12 24 0 -4
BITMAP
0000
0000
0000
0000
0000
0000
3FC0
3FC0
0000
0000
6060
6060
6060
6060
6060
6060
6060
6060
3FE0
1FE0
0060
0060
0FC0
0F80
ENDCHAR
STARTCHAR CYRILLIC CAPITAL LETTER U WITH DIAERESIS
ENCODING 1264
SWIDTH 1500 0
DWIDTH 12 0
BBX 12 24 0 -4
BITMAP
0000
0000
1980
1980
0000
0000
6060
6060
6060
6060
6060
6060
3FE0
1FE0
0060
0060
0060
0060
0FC0
0F80
0000
0000
0000
0000
ENDCHAR
STARTCHAR CYRILLIC SMALL LETTER U WITH DIAERESIS
ENCODING 1265
SWIDTH 1500 0
DWIDTH 12 0
BBX 12 24 0 -4
BITMAP
0000
0000
0000
0000
0000
0000
1980
1980
0000
0000
6060
6060
6060
6060
6060
6060
6060
6060
3FE0
1FE0
0060
0060
0FC0
0F80
ENDCHAR
STARTCHAR CYRILLIC CAPITAL LETTER U WITH DOUBLE ACUTE
ENCODING 1266
SWIDTH 1500 0
DWIDTH 12 0
BBX 12 24 0 -4
BITMAP
0330
0660
0CC0
1980
0000
0000
6060
6060
6060
6060
6060
6060
3FE0
1FE0
0060
0060
0060
0060
0FC0
0F80
0000
0000
0000
0000
ENDCHAR
STARTCHAR CYRILLIC SMALL LETTER U WITH DOUBLE ACUTE
ENCODING 1267
SWIDTH 1500 0
DWIDTH 12 0
BBX 12 24 0 -4
BITMAP
0000
0000
0000
0000
0330
0660
0CC0
1980
0000
0000
6060
6060
6060
6060
6060
6060
6060
6060
3FE0
1FE0
0060
0060
0FC0
0F80
ENDCHAR
STARTCHAR CYRILLIC CAPITAL LETTER YERU WITH DIAERESIS
ENCODING 1272
SWIDTH 1500 0
DWIDTH 12 0
BBX 12 24 0 -4
BITMAP
0000
0000
1980
1980
0000
0000
C030
C030
C030
C030
C030
C030
FE30
FF30
C1B0
C1B0
C1B0
C1B0
FF30
FE30
0000
0000
0000
0000
ENDCHAR
STARTCHAR CYRILLIC SMALL LETTER YERU WITH DIAERESIS
ENCODING 1273
SWIDTH 1500 0
DWIDTH 12 0
BBX 12 24 0 -4
BITMAP
0000
0000
0000
0000
0000
0000
1980
1980
0000
0000
C030
C030
C030
C030
FE30
FF30
C1B0
C1B0
FF30
FE30
0000
0000
0000
0000
ENDCHAR
STARTCHAR ARMENIAN CAPITAL LETTER AYB
ENCODING 1329
SWIDTH 1500 0
DWIDTH 12 0
BBX 12 24 0 -4
BITMAP
0000
0000
0000
0000
0000
0000
6060
6060
6060
6060
6060
6060
6060
6060
6C60
6660
6360
61A0
3EC0
1F60
0000
0000
0000
0000
ENDCHAR
STARTCHAR ARMENIAN CAPITAL LETTER BEN
ENCODING 1330
SWIDTH 1500 0
DWIDTH 12 0
BBX 12 24 0 -4
BITMAP
0000
0000
0000
0000
0000
0000
1FE0
3FE0
6000
6000
6000
6000
6000
6000
7FE0
7FE0
6000
6000
6000
6000
0000
0000
0000
0000
ENDCHAR
STARTCHAR ARMENIAN CAPITAL LETTER GIM
ENCODING 1331
SWIDTH 1500 0
DWIDTH 12 0
BBX 12 24 0 -4
BITMAP
0000
0000
0000
0000
0000
0000
1E00
3F00
6180
6180
6180
6180
6180
6180
3FE0
1FE0
0180
0180
0180
0180
0000
0000
0000
0000
ENDCHAR
STARTCHAR ARMENIAN CAPITAL LETTER DA
ENCODING 1332
SWIDTH 1500 0
DWIDTH 12 0
BBX 12 24 0 -4
BITMAP
0000
0000
0000
0000
0000
0000
7E00
7F00
0180
0180
0180
0180
0180
0180
01E0
01E0
0180
0180
0180
0180
0000
0000
0000
0000
ENDCHAR
STARTCHAR ARMENIAN CAPITAL LETTER ECH
ENCODING 1333
SWIDTH 1500 0
DWIDTH 12 0
BBX 12 24 0 -4
BITMAP
0000
0000
0000
0000
0000
0000
6000
6000
6000
6000
7FE0
7FE0
6000
6000
6000
6000
6000
6000
3FE0
1FE0
0000
0000
0000
0000
ENDCHAR
STARTCHAR ARMENIAN CAPITAL LETTER ZA
ENCODING 1334
SWIDTH 1500 0
DWIDTH 12 0
BBX 12 24 0 -4
BITMAP
0000
0000
0000
0000
0000
0000
1F80
3FC0
6060
6060
6060
6060
0060
0060
0060
0060
60C0
6180
7FE0
7FE0
0000
0000
0000
0000
ENDCHAR
STARTCHAR ARMENIAN CAPITAL LETTER EH
ENCODING 1335
SWIDTH 1500 0
DWIDTH 12 0
BBX 12 24 0 -4
BITMAP
0000
0000
0000
0000
0000
0000
6000
6000
6000
6000
7FE0
7FE0
6000
6000
6000
6000
6000
6000
7F80
7F80
0000
0000
0000
0000
ENDCHAR
STARTCHAR ARMENIAN CAPITAL LETTER ET
ENCODING 1336
SWIDTH 1500 0
DWIDTH 12 0
BBX 12 24 0 -4
BITMAP
0000
0000
0000
0000
0000
0000
1FE0
3FE0
6000
6000
6000
6000
6000
6000
6000
6000
6000
6000
7FE0
7FE0
0000
0000
0000
0000
ENDCHAR
STARTCHAR ARMENIAN CAPITAL LETTER TO
ENCODING 1337
SWIDTH 1500 0
DWIDTH 12 0
BBX 12 24 0 -4
BITMAP
0000
0000
0000
0000
0000
0000
1F80
3FC0
6060
6060
6060
63E0
67E0
6C60
6C60
6C60
6C60
6C60
67C0
6380
0000
0000
0000
0000
ENDCHAR
STARTCHAR ARMENIAN CAPITAL LETTER ZHE
ENCODING 1338
SWIDTH 1500 0
DWIDTH 12 0
BBX 12 24 0 -4
BITMAP
0000
0000
0000
0000
0000
0000
0180
0180
0180
0180
1FE0
3FE0
6180
6180
6180
6180
6180
6180
3F00
1E00
0000
0000
0000
0000
ENDCHAR
STARTCHAR ARMENIAN CAPITAL LETTER INI
ENCODING 1339
SWIDTH 1500 0
DWIDTH 12 0
BBX 12 24 0 -4
BITMAP
0000
0000
0000
0000
0000
0000
6000
6000
6000
6000
7F80
7FC0
6060
6060
6060
6060
6000
6000
6000
6000
0000
0000
0000
0000
ENDCHAR
STARTCHAR ARMENIAN CAPITAL LETTER LIWN
ENCODING 1340
SWIDTH 1500 0
DWIDTH 12 0
BBX 12 24 0 -4
BITMAP
0000
0000
0000
0000
0000
0000
6000
6000
6000
6000
6000
6000
6000
6000
6000
6000
6000
6000
7FE0
7FE0
0000
0000
0000
0000
ENDCHAR
STARTCHAR ARMENIAN CAPITAL LETTER XEH
ENCODING 1341
SWIDTH 1500 0
DWIDTH 12 0
BBX 12 24 0 -4
BITMAP
0000
0000
0000
0000
0000
0000
6000
6000
6000
6000
7E60
7E60
6660
6660
6660
6660
6660
6660
63C0
6180
0000
0000
0000
0000
ENDCHAR
STARTCHAR ARMENIAN CAPITAL LETTER CA
ENCODING 1342
SWIDTH 1500 0
DWIDTH 12 0
BBX 12 24 0 -4
BITMAP
0000
0000
0000
0000
0000
0000
60E0
61E0
6300
6600
7F80
7F80
3060
6060
6060
6060
6060
6060
3FC0
1F80
0000
0000
0000
0000
ENDCHAR
STARTCHAR ARMENIAN CAPITAL LETTER KEN
ENCODING 1343
SWIDTH 1500 0
DWIDTH 12 0
BBX 12 24 0 -4
BITMAP
0000
0000
0000
0000
0000
0000
6000
6000
6000
6000
6060
6060
6060
6060
3FE0
1FE0
0060
0060
0060
0060
0000
0000
0000
0000
ENDCHAR
STARTCHAR ARMENIAN CAPITAL LETTER HO
ENCODING 1344
SWIDTH 1500 0
DWIDTH 12 0
BBX 12 24 0 -4
BITMAP
0000
0000
0000
0000
0000
0000
0180
01C0
0060
0060
0060
01E0
0780
1E00
7800
7800
1E00
0780
01E0
0060
0000
0000
0000
0000
ENDCHAR
STARTCHAR ARMENIAN CAPITAL LETTER JA
ENCODING 1345
SWIDTH 1500 0
DWIDTH 12 0
BBX 12 24 0 -4
BITMAP
0000
0000
0000
0000
0000
0000
1F80
3FC0
6060
6060
0060
0060
0060
0060
1E60
3F60
61C0
61C0
3F60
1E60
0000
0000
0000
0000
ENDCHAR
STARTCHAR ARMENIAN CAPITAL LETTER GHAD
ENCODING 1346
SWIDTH 1500 0
DWIDTH 12 0
BBX 12 24 0 -4
BITMAP
0000
0000
0000
0000
0000
0000
7E00
7F00
0180
0180
0180
0180
0180
0180
0180
0180
0180
0180
01E0
01E0
0000
0000
0000
0000
ENDCHAR
STARTCHAR ARMENIAN CAPITAL LETTER CHEH
ENCODING 1347
SWIDTH 1500 0
DWIDTH 12 0
BBX 12 24 0 -4
BITMAP
0000
0000
0000
0000
0000
0000
43E0
67E0
3C00
1C00
1C00
1E00
3300
3180
60C0
6060
6060
6060
7FE0
7FE0
0000
0000
0000
0000
ENDCHAR
STARTCHAR ARMENIAN CAPITAL LETTER MEN
ENCODING 1348
SWIDTH 1500 0
DWIDTH 12 0
BBX 12 24 0 -4
BITMAP
0000
0000
0000
0000
0000
0000
61E0
61E0
6180
6180
6180
6180
6180
6180
6180
6180
6180
6180
3F00
1E00
0000
0000
0000
0000
ENDCHAR
STARTCHAR ARMENIAN CAPITAL LETTER YI
ENCODING 1349
SWIDTH 1500 0
DWIDTH 12 0
BBX 12 24 0 -4
BITMAP
0000
0000
0000
0000
0000
0000
7F80
7FC0
0060
0060
0060
0060
7FC0
7FC0
0060
0060
0060
0060
7FC0
7F80
0000
0000
0000
0000
ENDCHAR
STARTCHAR ARMENIAN CAPITAL LETTER NOW
ENCODING 1350
SWIDTH 1500 0
DWIDTH 12 0
BBX 12 24 0 -4
BITMAP
0000
0000
0000
0000
0000
0000
7800
7800
1800
1800
1800
1800
1800
1800
1860
1860
1860
1860
0FC0
0780
0000
0000
0000
0000
ENDCHAR
STARTCHAR ARMENIAN CAPITAL LETTER SHA
ENCODING 1351
SWIDTH 1500 0
DWIDTH 12 0
BBX 12 24 0 -4
BITMAP
0000
0000
0000
0000
0000
0000
7000
7C00
0F00
0380
1FE0
3FE0
6000
6000
6000
6000
6060
6060
3FC0
1F80
0000
0000
0000
0000
ENDCHAR
STARTCHAR ARMENIAN CAPITAL LETTER VO
ENCODING 1352
SWIDTH 1500 0
DWIDTH 12 0
BBX 12 24 0 -4
BITMAP
0000
0000
0000
0000
0000
0000
1F80
3FC0
6060
6060
6060
6060
6060
6060
6060
6060
6060
6060
6060
6060
0000
0000
0000
0000
ENDCHAR
STARTCHAR ARMENIAN CAPITAL LETTER CHA
ENCODING 1353
SWIDTH 1500 0
DWIDTH 12 0
BBX 12 24 0 -4
BITMAP
0000
0000
0000
0000
0000
0000
1F80
3FC0
6060
6060
0060
0060
0060
0060
0FC0
7F80
7800
1E00
0780
0180
0000
0000
0000
0000
ENDCHAR
STARTCHAR ARMENIAN CAPITAL LETTER PEH
ENCODING 1354
SWIDTH 1500 0
DWIDTH 12 0
BBX 12 24 0 -4
BITMAP
0000
0000
0000
0000
0000
0000
7F80
7FC0
0660
0660
0660
0660
0660
0660
0060
0060
0060
0060
0060
0060
0000
0000
0000
0000
ENDCHAR
STARTCHAR ARMENIAN CAPITAL LETTER JHEH
ENCODING 1355
SWIDTH 1500 0
DWIDTH 12 0
BBX 12 24 0 -4
BITMAP
0000
0000
0000
0000
0000
0000
1F80
3FC0
6060
6060
6060
6060
3060
1860
0C60
0660
63C0
6780
7FE0
7FE0
0000
0000
0000
0000
ENDCHAR
STARTCHAR ARMENIAN CAPITAL LETTER RA
ENCODING 1356
SWIDTH 1500 0
DWIDTH 12 0
BBX 12 24 0 -4
BITMAP
0000
0000
0000
0000
0000
0000
1E00
3F00
6180
6180
6180
6180
6180
6180
61E0
61E0
6180
6180
6180
6180
0000
0000
0000
0000
ENDCHAR
STARTCHAR ARMENIAN CAPITAL LETTER SEH
ENCODING 1357
SWIDTH 1500 0
DWIDTH 12 0
BBX 12 24 0 -4
BITMAP
0000
0000
0000
0000
0000
0000
6060
6060
6060
6060
6060
6060
6060
6060
6060
6060
6060
6060
3FC0
1F80
0000
0000
0000
0000
ENDCHAR
STARTCHAR ARMENIAN CAPITAL LETTER VEW
ENCODING 1358
SWIDTH 1500 0
DWIDTH 12 0
BBX 12 24 0 -4
BITMAP
0000
0000
0000
0000
0000
0000
0180
0180
0180
0180
6180
6180
6180
6180
3F80
1F80
0180
0180
01E0
01E0
0000
0000
0000
0000
ENDCHAR
STARTCHAR ARMENIAN CAPITAL LETTER TIWN
ENCODING 1359
SWIDTH 1500 0
DWIDTH 12 0
BBX 12 24 0 -4
BITMAP
0000
0000
0000
0000
0000
0000
1FE0
3FE0
6000
6000
6000
6000
3F80
1FC0
0060
0060
0060
0060
7FC0
7F80
0000
0000
0000
0000
ENDCHAR
STARTCHAR ARMENIAN CAPITAL LETTER REH
ENCODING 1360
SWIDTH 1500 0
DWIDTH 12 0
BBX 12 24 0 -4
BITMAP
0000
0000
0000
0000
0000
0000
1FE0
3FE0
6000
6000
6000
6000
6000
6000
6000
6000
6000
6000
6000
6000
0000
0000
0000
0000
ENDCHAR
STARTCHAR ARMENIAN CAPITAL LETTER CO
ENCODING 1361
SWIDTH 1500 0
DWIDTH 12 0
BBX 12 24 0 -4
BITMAP
0000
0000
0000
0000
0000
0000
1F80
3FC0
6060
6060
6060
6060
7FC0
7FC0
0060
0060
0060
0060
7F80
7F80
0000
0000
0000
0000
ENDCHAR
STARTCHAR ARMENIAN CAPITAL LETTER YIWN
ENCODING 1362
SWIDTH 1500 0
DWIDTH 12 0
BBX 12 24 0 -4
BITMAP
0000
0000
0000
0000
0000
0000
6000
6000
6000
6000
7FE0
7FE0
6000
6000
6000
6000
6000
6000
6000
6000
0000
0000
0000
0000
ENDCHAR
STARTCHAR ARMENIAN CAPITAL LETTER PIWR
ENCODING 1363
SWIDTH 1500 0
DWIDTH 12 0
BBX 12 24 0 -4
BITMAP
0000
0000
0000
0000
0000
0000
0600
0600
1F80
3FC0
6660
6660
6660
6660
6660
6660
3FC0
1F80
0600
0600
0000
0000
0000
0000
ENDCHAR
STARTCHAR ARMENIAN CAPITAL LETTER KEH
ENCODING 1364
SWIDTH 1500 0
DWIDTH 12 0
BBX 12 24 0 -4
BITMAP
0000
0000
0000
0000
0000
0000
0780
0FC0
1860
1860
1860
1860
1FC0
1F80
1800
1800
7FE0
7FE0
1800
1800
0000
0000
0000
0000
ENDCHAR
STARTCHAR ARMENIAN CAPITAL LETTER OH
ENCODING 1365
SWIDTH 1500 0
DWIDTH 12 0
BBX 12 24 0 -4
BITMAP
0000
0000
0000
0000
0000
0000
1F80
3FC0
6060
6060
6060
6060
6060
6060
6060
6060
6060
6060
3FC0
1F80
0000
0000
0000
0000
ENDCHAR
STARTCHAR ARMENIAN CAPITAL LETTER FEH
ENCODING 1366
SWIDTH 1500 0
DWIDTH 12 0
BBX 12 24 0 -4
BITMAP
0000
0000
0000
0000
0000
0000
1E00
3E00
6600
6600
6600
6600
3F80
1FC0
0660
0660
0660
0660
7FC0
7F80
0000
0000
0000
0000
ENDCHAR
STARTCHAR ARMENIAN MODIFIER LETTER LEFT HALF RING
ENCODING 1369
SWIDTH 1500 0
DWIDTH 12 0
BBX 12 24 0 -4
BITMAP
0000
0000
0000
0000
0600
0E00
1800
1800
0E00
0600
0000
0000
0000
0000
0000
0000
0000
0000
0000
0000
0000
0000
0000
0000
ENDCHAR
STARTCHAR ARMENIAN APOSTROPHE
ENCODING 1370
SWIDTH 1500 0
DWIDTH 12 0
BBX 12 24 0 -4
BITMAP
0000
0000
0000
0000
0300
0300
0300
0600
0C00
0000
0000
0000
0000
0000
0000
0000
0000
0000
0000
0000
0000
0000
0000
0000
ENDCHAR
STARTCHAR ARMENIAN EMPHASIS MARK
ENCODING 1371
SWIDTH 1500 0
DWIDTH 12 0
BBX 12 24 0 -4
BITMAP
0000
0000
00C0
0180
0300
0600
0C00
1800
0000
0000
0000
0000
0000
0000
0000
0000
0000
0000
0000
0000
0000
0000
0000
0000
ENDCHAR
STARTCHAR ARMENIAN EXCLAMATION MARK
ENCODING 1372
SWIDTH 1500 0
DWIDTH 12 0
BBX 12 24 0 -4
BITMAP
0000
0000
0060
0060
1FC0
3F80
6000
6000
0000
0000
0000
0000
0000
0000
0000
0000
0000
0000
0000
0000
0000
0000
0000
0000
ENDCHAR
STARTCHAR ARMENIAN COMMA
ENCODING 1373
SWIDTH 1500 0
DWIDTH 12 0
BBX 12 24 0 -4
BITMAP
0000
0000
1800
0C00
0600
0300
0180
00C0
0000
0000
0000
0000
0000
0000
0000
0000
0000
0000
0000
0000
0000
0000
0000
0000
ENDCHAR
STARTCHAR ARMENIAN QUESTION MARK
ENCODING 1374
SWIDTH 1500 0
DWIDTH 12 0
BBX 12 24 0 -4
BITMAP
0000
0000
1F80
3FC0
6060
6060
67C0
6780
0000
0000
0000
0000
0000
0000
0000
0000
0000
0000
0000
0000
0000
0000
0000
0000
ENDCHAR
STARTCHAR ARMENIAN ABBREVIATION MARK
ENCODING 1375
SWIDTH 1500 0
DWIDTH 12 0
BBX 12 24 0 -4
BITMAP
0000
0000
0000
0000
6000
6000
7FE0
7FE0
0000
0000
0000
0000
0000
0000
0000
0000
0000
0000
0000
0000
0000
0000
0000
0000
ENDCHAR
STARTCHAR ARMENIAN SMALL LETTER AYB
ENCODING 1377
SWIDTH 1500 0
DWIDTH 12 0
BBX 12 24 0 -4
BITMAP
0000
0000
0000
0000
0000
0000
0000
0000
0000
0000
6660
6660
6660
6660
6660
6660
6660
6660
3FE0
19E0
0000
0000
0000
0000
ENDCHAR
STARTCHAR ARMENIAN SMALL LETTER BEN
ENCODING 1378
SWIDTH 1500 0
DWIDTH 12 0
BBX 12 24 0 -4
BITMAP
0000
0000
0000
0000
0000
0000
0000
0000
0000
0000
7F80
7FC0
6060
6060
6000
6000
6000
6000
7FE0
7FE0
6000
6000
6000
6000
ENDCHAR
STARTCHAR ARMENIAN SMALL LETTER GIM
ENCODING 1379
SWIDTH 1500 0
DWIDTH 12 0
BBX 12 24 0 -4
BITMAP
0000
0000
0000
0000
0000
0000
0000
0000
0000
0000
1F80
3F80
6180
6180
6180
6180
6180
6180
3FE0
1FE0
0180
0180
0180
0180
ENDCHAR
STARTCHAR ARMENIAN SMALL LETTER DA
ENCODING 1380
SWIDTH 1500 0
DWIDTH 12 0
BBX 12 24 0 -4
BITMAP
0000
0000
0000
0000
0000
0000
0000
0000
0000
0000
7E00
7F00
6180
6180
6180
6180
6180
6180
61E0
61E0
0180
0180
0180
0180
ENDCHAR
STARTCHAR ARMENIAN SMALL LETTER ECH
ENCODING 1381
SWIDTH 1500 0
DWIDTH 12 0
BBX 12 24 0 -4
BITMAP
0000
0000
0000
0000
6000
6000
6000
6000
6000
6000
7FE0
7FE0
6000
6000
6060
6060
6060
6060
3FE0
1FE0
0000
0000
0000
0000
ENDCHAR
STARTCHAR ARMENIAN SMALL LETTER ZA
ENCODING 1382
SWIDTH 1500 0
DWIDTH 12 0
BBX 12 24 0 -4
BITMAP
0000
0000
0000
0000
0000
0000
0000
0000
0000
0000
1F80
3F80
6180
6180
6180
6180
6180
6180
3F80
1F80
0180
0180
01E0
01E0
ENDCHAR
STARTCHAR ARMENIAN SMALL LETTER EH
ENCODING 1383
SWIDTH 1500 0
DWIDTH 12 0
BBX 12 24 0 -4
BITMAP
0000
0000
0000
0000
6000
6000
6000
6000
6000
6000
7FE0
7FE0
6000
6000
6000
6000
6000
6000
7F80
7F80
0000
0000
0000
0000
ENDCHAR
STARTCHAR ARMENIAN SMALL LETTER ET
ENCODING 1384
SWIDTH 1500 0
DWIDTH 12 0
BBX 12 24 0 -4
BITMAP
0000
0000
0000
0000
0000
0000
0000
0000
0000
0000
7F80
7FC0
6060
6060
6060
6060
6060
6060
6060
6060
6000
6000
7FE0
7FE0
ENDCHAR
STARTCHAR ARMENIAN SMALL LETTER TO
ENCODING 1385
SWIDTH 1500 0
DWIDTH 12 0
BBX 12 24 0 -4
BITMAP
0000
0000
0000
0000
0000
0000
0000
0000
0000
0000
7F80
7FC0
6060
63E0
67E0
6C60
6C60
6C60
67C0
6380
6000
6000
6000
6000
ENDCHAR
STARTCHAR ARMENIAN SMALL LETTER ZHE
ENCODING 1386
SWIDTH 1500 0
DWIDTH 12 0
BBX 12 24 0 -4
BITMAP
0000
0000
0000
0000
0180
0180
0180
0180
0180
0180
1FE0
3FE0
6180
6180
6180
6180
6180
6180
3F00
1E00
0000
0000
0000
0000
ENDCHAR
STARTCHAR ARMENIAN SMALL LETTER INI
ENCODING 1387
SWIDTH 1500 0
DWIDTH 12 0
BBX 12 24 0 -4
BITMAP
0000
0000
0000
0000
6000
6000
6000
6000
6000
6000
7F80
7FC0
6060
6060
6060
6060
6060
6060
6060
6060
6000
6000
6000
6000
ENDCHAR
STARTCHAR ARMENIAN SMALL LETTER LIWN
ENCODING 1388
SWIDTH 1500 0
DWIDTH 12 0
BBX 12 24 0 -4
BITMAP
0000
0000
0000
0000
0000
0000
0C00
0C00
0C00
0C00
0C00
0C00
0C00
0C00
0C00
0C00
0C00
0C00
0C00
0C00
0C00
0C00
0F00
0F00
ENDCHAR
STARTCHAR ARMENIAN SMALL LETTER XEH
ENCODING 1389
SWIDTH 1500 0
DWIDTH 12 0
BBX 12 24 0 -4
BITMAP
0000
0000
0000
0000
6000
6000
6000
6000
6000
6000
7860
7C60
6660
6660
6660
6660
6660
6660
63C0
6180
6000
6000
6000
6000
ENDCHAR
STARTCHAR ARMENIAN SMALL LETTER CA
ENCODING 1390
SWIDTH 1500 0
DWIDTH 12 0
BBX 12 24 0 -4
BITMAP
0000
0000
0000
0000
1800
3800
6000
6000
3800
0C00
1FE0
1FE0
6180
60C0
6060
6060
6060
6060
3FC0
1F80
0000
0000
0000
0000
ENDCHAR
STARTCHAR ARMENIAN SMALL LETTER KEN
ENCODING 1391
SWIDTH 1500 0
DWIDTH 12 0
BBX 12 24 0 -4
BITMAP
0000
0000
0000
0000
6000
6000
6000
6000
6000
6000
6060
6060
6060
6060
6060
6060
6060
6060
3FE0
1FE0
0060
0060
0060
0060
ENDCHAR
STARTCHAR ARMENIAN SMALL LETTER HO
ENCODING 1392
SWIDTH 1500 0
DWIDTH 12 0
BBX 12 24 0 -4
BITMAP
0000
0000
0000
0000
6000
6000
6000
6000
6000
6000
7F80
7FC0
6060
6060
6060
6060
6060
6060
6060
6060
0000
0000
0000
0000
ENDCHAR
STARTCHAR ARMENIAN SMALL LETTER JA
ENCODING 1393
SWIDTH 1500 0
DWIDTH 12 0
BBX 12 24 0 -4
BITMAP
0000
0000
0000
0000
0600
0E00
1800
1800
0E00
0300
1F80
3FC0
6060
6060
6060
6060
6060
6060
3FE0
1FE0
0000
0000
0000
0000
ENDCHAR
STARTCHAR ARMENIAN SMALL LETTER GHAD
ENCODING 1394
SWIDTH 1500 0
DWIDTH 12 0
BBX 12 24 0 -4
BITMAP
0000
0000
0000
0000
0000
0000
0000
0000
0000
0000
7E00
7F00
6180
6180
6180
6180
6180
6180
6180
6180
0180
0180
01E0
01E0
ENDCHAR
STARTCHAR ARMENIAN SMALL LETTER CHEH
ENCODING 1395
SWIDTH 1500 0
DWIDTH 12 0
BBX 12 24 0 -4
BITMAP
0000
0000
0000
0000
00E0
03E0
0700
0C00
0C00
1800
7F80
7FC0
3060
6060
6060
6060
60E0
61E0
3F60
1E60
0000
0000
0000
0000
ENDCHAR
STARTCHAR ARMENIAN SMALL LETTER MEN
ENCODING 1396
SWIDTH 1500 0
DWIDTH 12 0
BBX 12 24 0 -4
BITMAP
0000
0000
0000
0000
01E0
01E0
0180
0180
0180
0180
6180
6180
6180
6180
6180
6180
6180
6180
3F80
1F80
0000
0000
0000
0000
ENDCHAR
STARTCHAR ARMENIAN SMALL LETTER YI
ENCODING 1397
SWIDTH 1500 0
DWIDTH 12 0
BBX 12 24 0 -4
BITMAP
0000
0000
0000
0000
0000
0000
0000
0000
0000
0000
0600
0600
0600
0600
0600
0600
0600
0600
0600
0600
0600
0600
1C00
1800
ENDCHAR
STARTCHAR ARMENIAN SMALL LETTER NOW
ENCODING 1398
SWIDTH 1500 0
DWIDTH 12 0
BBX 12 24 0 -4
BITMAP
0000
0000
0000
0000
7800
7800
1800
1800
1800
1800
1860
1860
1860
1860
1860
1860
1860
1860
0FE0
07E0
0000
0000
0000
0000
ENDCHAR
STARTCHAR ARMENIAN SMALL LETTER SHA
ENCODING 1399
SWIDTH 1500 0
DWIDTH 12 0
BBX 12 24 0 -4
BITMAP
0000
0000
0000
0000
0000
0000
0000
0000
0000
0000
7F80
7FC0
0060
0060
0060
0060
00C0
0180
0300
0600
0C00
1800
3FE0
7FE0
ENDCHAR
STARTCHAR ARMENIAN SMALL LETTER VO
ENCODING 1400
SWIDTH 1500 0
DWIDTH 12 0
BBX 12 24 0 -4
BITMAP
0000
0000
0000
0000
0000
0000
0000
0000
0000
0000
7F80
7FC0
6060
6060
6060
6060
6060
6060
6060
6060
0000
0000
0000
0000
ENDCHAR
STARTCHAR ARMENIAN SMALL LETTER CHA
ENCODING 1401
SWIDTH 1500 0
DWIDTH 12 0
BBX 12 24 0 -4
BITMAP
0000
0000
0000
0000
0000
0000
1800
3800
6000
6000
3F80
1F80
0180
0300
0600
0C00
1800
3000
6000
6000
6000
6000
7FE0
7FE0
ENDCHAR
STARTCHAR ARMENIAN SMALL LETTER PEH
ENCODING 1402
SWIDTH 1500 0
DWIDTH 12 0
BBX 12 24 0 -4
BITMAP
0000
0000
0000
0000
0000
0000
0000
0000
0000
0000
6660
6660
6660
6660
6660
6660
6660
6660
3FE0
19E0
0060
0060
0060
0060
ENDCHAR
STARTCHAR ARMENIAN SMALL LETTER JHEH
ENCODING 1403
SWIDTH 1500 0
DWIDTH 12 0
BBX 12 24 0 -4
BITMAP
0000
0000
0000
0000
0000
0000
0000
0000
0000
0000
1F80
3FC0
6060
6060
6060
6060
30C0
1980
0F00
0600
0C00
1800
3FE0
7FE0
ENDCHAR
STARTCHAR ARMENIAN SMALL LETTER RA
ENCODING 1404
SWIDTH 1500 0
DWIDTH 12 0
BBX 12 24 0 -4
BITMAP
0000
0000
0000
0000
0000
0000
0000
0000
0000
0000
7F80
7FC0
6060
6060
6060
6060
60C0
6180
63E0
67E0
0000
0000
0000
0000
ENDCHAR
STARTCHAR ARMENIAN SMALL LETTER SEH
ENCODING 1405
SWIDTH 1500 0
DWIDTH 12 0
BBX 12 24 0 -4
BITMAP
0000
0000
0000
0000
0000
0000
0000
0000
0000
0000
6060
6060
6060
6060
6060
6060
6060
6060
3FE0
1FE0
0000
0000
0000
0000
ENDCHAR
STARTCHAR ARMENIAN SMALL LETTER VEW
ENCODING 1406
SWIDTH 1500 0
DWIDTH 12 0
BBX 12 24 0 -4
BITMAP
0000
0000
0000
0000
0180
0180
0180
0180
0180
0180
6180
6180
6180
6180
6180
6180
6180
6180
3F80
1F80
0180
0180
01E0
01E0
ENDCHAR
STARTCHAR ARMENIAN SMALL LETTER TIWN
ENCODING 1407
SWIDTH 1500 0
DWIDTH 12 0
BBX 12 24 0 -4
BITMAP
0000
0000
0000
0000
0000
0000
0000
0000
0000
0000
6780
67C0
6660
6660
6660
6660
6660
6660
3E60
1E60
0000
0000
0000
0000
ENDCHAR
STARTCHAR ARMENIAN SMALL LETTER REH
ENCODING 1408
SWIDTH 1500 0
DWIDTH 12 0
BBX 12 24 0 -4
BITMAP
0000
0000
0000
0000
0000
0000
0000
0000
0000
0000
7F80
7FC0
6060
6060
6060
6060
6060
6060
6060
6060
6000
6000
6000
6000
ENDCHAR
STARTCHAR ARMENIAN SMALL LETTER CO
ENCODING 1409
SWIDTH 1500 0
DWIDTH 12 0
BBX 12 24 0 -4
BITMAP
0000
0000
0000
0000
0000
0000
0000
0000
0000
0000
1FE0
3FE0
6060
6060
6060
6060
6060
6060
3FE0
1FE0
0060
0060
1F80
1F80
ENDCHAR
STARTCHAR ARMENIAN SMALL LETTER YIWN
ENCODING 1410
SWIDTH 1500 0
DWIDTH 12 0
BBX 12 24 0 -4
BITMAP
0000
0000
0000
0000
0000
0000
0000
0000
0000
0000
1800
1800
1800
1800
1800
1800
1800
1800
1F80
1F80
0000
0000
0000
0000
ENDCHAR
STARTCHAR ARMENIAN SMALL LETTER PIWR
ENCODING 1411
SWIDTH 1500 0
DWIDTH 12 0
BBX 12 24 0 -4
BITMAP
0000
0000
0000
0000
0600
0600
0600
0600
0600
0600
6780
67C0
6660
6660
6660
6660
6660
6660
3E60
1E60
0600
0600
0600
0600
ENDCHAR
STARTCHAR ARMENIAN SMALL LETTER KEH
ENCODING 1412
SWIDTH 1500 0
DWIDTH 12 0
BBX 12 24 0 -4
BITMAP
0000
0000
0000
0000
0000
0000
0000
0000
0000
0000
1F80
1FC0
1860
1860
1860
1860
1860
1860
1FC0
1F80
1800
1800
7FE0
7FE0
ENDCHAR
STARTCHAR ARMENIAN SMALL LETTER OH
ENCODING 1413
SWIDTH 1500 0
DWIDTH 12 0
BBX 12 24 0 -4
BITMAP
0000
0000
0000
0000
0000
0000
0000
0000
0000
0000
1F80
3FC0
6060
6060
6060
6060
6060
6060
3FC0
1F80
0000
0000
0000
0000
ENDCHAR
STARTCHAR ARMENIAN SMALL LETTER FEH
ENCODING 1414
SWIDTH 1500 0
DWIDTH 12 0
BBX 12 24 0 -4
BITMAP
0000
0000
0000
0000
1E00
3E00
6600
6600
6600
6600
3F80
1FC0
0660
0660
0660
0660
0660
0660
7FC0
7F80
0600
0600
0600
0600
ENDCHAR
STARTCHAR ARMENIAN SMALL LIGATURE ECH YIWN
ENCODING 1415
SWIDTH 1500 0
DWIDTH 12 0
BBX 12 24 0 -4
BITMAP
0000
0000
0000
0000
6000
6000
6000
6000
6000
6000
6600
6600
6600
6600
6600
6600
6600
6600
3FE0
1FE0
0000
0000
0000
0000
ENDCHAR
STARTCHAR ARMENIAN FULL STOP
ENCODING 1417
SWIDTH 1500 0
DWIDTH 12 0
BBX 12 24 0 -4
BITMAP
0000
0000
0000
0000
0000
0000
0000
0000
0000
0000
0600
0600
0000
0000
0000
0000
0000
0000
0600
0600
0000
0000
0000
0000
ENDCHAR
STARTCHAR ARMENIAN HYPHEN
ENCODING 1418
SWIDTH 1500 0
DWIDTH 12 0
BBX 12 24 0 -4
BITMAP
0000
0000
0000
0000
0000
0000
0000
0000
0000
0000
0000
0000
6060
6060
3FC0
1F80
0000
0000
0000
0000
0000
0000
0000
0000
ENDCHAR
STARTCHAR RIGHT-FACING ARMENIAN ETERNITY SIGN
ENCODING 1421
SWIDTH 1500 0
DWIDTH 12 0
BBX 12 24 0 -4
BITMAP
0000
0000
0000
0000
0000
0000
0000
0000
3FC0
7FE0
CC30
CC30
CFF0
CFF0
FF30
FF30
C330
C330
7FE0
3FC0
0000
0000
0000
0000
ENDCHAR
STARTCHAR LEFT-FACING ARMENIAN ETERNITY SIGN
ENCODING 1422
SWIDTH 1500 0
DWIDTH 12 0
BBX 12 24 0 -4
BITMAP
0000
0000
0000
0000
0000
0000
0000
0000
3FC0
7FE0
C330
C330
FF30
FF30
CFF0
CFF0
CC30
CC30
7FE0
3FC0
0000
0000
0000
0000
ENDCHAR
STARTCHAR ARMENIAN DRAM SIGN
ENCODING 1423
SWIDTH 1500 0
DWIDTH 12 0
BBX 12 24 0 -4
BITMAP
0000
0000
0000
0000
0000
0000
7E00
7F00
0180
0180
0180
0180
07E0
07E0
0180
0180
07E0
07E0
0180
0180
0000
0000
0000
0000
ENDCHAR
STARTCHAR HEBREW LETTER ALEF
ENCODING 1488
SWIDTH 1500 0
DWIDTH 12 0
BBX 12 24 0 -4
BITMAP
0000
0000
0000
0000
0000
0000
0000
0000
0000
0000
6060
3060
1860
3C60
6660
63C0
6180
60C0
6060
6020
0000
0000
0000
0000
ENDCHAR
STARTCHAR HEBREW LETTER BET
ENCODING 1489
SWIDTH 1500 0
DWIDTH 12 0
BBX 12 24 0 -4
BITMAP
0000
0000
0000
0000
0000
0000
0000
0000
0000
0000
7E00
7F00
0180
0180
0180
0180
0180
0180
7FE0
7FE0
0000
0000
0000
0000
ENDCHAR
STARTCHAR HEBREW LETTER GIMEL
ENCODING 1490
SWIDTH 1500 0
DWIDTH 12 0
BBX 12 24 0 -4
BITMAP
0000
0000
0000
0000
0000
0000
0000
0000
0000
0000
7E00
7F00
0180
0180
0180
0180
0180
0180
7FE0
7E60
0000
0000
0000
0000
ENDCHAR
STARTCHAR HEBREW LETTER DALET
ENCODING 1491
SWIDTH 1500 0
DWIDTH 12 0
BBX 12 24 0 -4
BITMAP
0000
0000
0000
0000
0000
0000
0000
0000
0000
0000
7FE0
7FE0
0180
0180
0180
0180
0180
0180
0180
0180
0000
0000
0000
0000
ENDCHAR
STARTCHAR HEBREW LETTER HE
ENCODING 1492
SWIDTH 1500 0
DWIDTH 12 0
BBX 12 24 0 -4
BITMAP
0000
0000
0000
0000
0000
0000
0000
0000
0000
0000
7F80
7FC0
0060
0060
6060
6060
6060
6060
6060
6060
0000
0000
0000
0000
ENDCHAR
STARTCHAR HEBREW LETTER VAV
ENCODING 1493
SWIDTH 1500 0
DWIDTH 12 0
BBX 12 24 0 -4
BITMAP
0000
0000
0000
0000
0000
0000
0000
0000
0000
0000
0600
0600
0600
0600
0600
0600
0600
0600
0600
0600
0000
0000
0000
0000
ENDCHAR
STARTCHAR HEBREW LETTER ZAYIN
ENCODING 1494
SWIDTH 1500 0
DWIDTH 12 0
BBX 12 24 0 -4
BITMAP
0000
0000
0000
0000
0000
0000
0000
0000
0000
0000
7FE0
7FE0
0060
00C0
0180
0300
0600
0600
0600
0600
0000
0000
0000
0000
ENDCHAR
STARTCHAR HEBREW LETTER HET
ENCODING 1495
SWIDTH 1500 0
DWIDTH 12 0
BBX 12 24 0 -4
BITMAP
0000
0000
0000
0000
0000
0000
0000
0000
0000
0000
7F80
7FC0
6060
6060
6060
6060
6060
6060
6060
6060
0000
0000
0000
0000
ENDCHAR
STARTCHAR HEBREW LETTER TET
ENCODING 1496
SWIDTH 1500 0
DWIDTH 12 0
BBX 12 24 0 -4
BITMAP
0000
0000
0000
0000
0000
0000
0000
0000
0000
0000
6780
67C0
6060
6060
6060
6060
6060
6060
3FC0
1F80
0000
0000
0000
0000
ENDCHAR
STARTCHAR HEBREW LETTER YOD
ENCODING 1497
SWIDTH 1500 0
DWIDTH 12 0
BBX 12 24 0 -4
BITMAP
0000
0000
0000
0000
0000
0000
0000
0000
0000
0000
0600
0600
0600
0600
0600
0600
0000
0000
0000
0000
0000
0000
0000
0000
ENDCHAR
STARTCHAR HEBREW LETTER FINAL KAF
ENCODING 1498
SWIDTH 1500 0
DWIDTH 12 0
BBX 12 24 0 -4
BITMAP
0000
0000
0000
0000
0000
0000
0000
0000
0000
0000
7F80
7FC0
0060
0060
0060
0060
0060
0060
0060
0060
0060
0060
0060
0060
ENDCHAR
STARTCHAR HEBREW LETTER KAF
ENCODING 1499
SWIDTH 1500 0
DWIDTH 12 0
BBX 12 24 0 -4
BITMAP
0000
0000
0000
0000
0000
0000
0000
0000
0000
0000
7F80
7FC0
0060
0060
0060
0060
0060
0060
7FC0
7F80
0000
0000
0000
0000
ENDCHAR
STARTCHAR HEBREW LETTER LAMED
ENCODING 1500
SWIDTH 1500 0
DWIDTH 12 0
BBX 12 24 0 -4
BITMAP
0000
0000
0000
0000
0000
0000
0000
0000
0000
6000
7FE0
7FE0
0060
00C0
0180
0300
0600
0C00
1800
3000
0000
0000
0000
0000
ENDCHAR
STARTCHAR HEBREW LETTER FINAL MEM
ENCODING 1501
SWIDTH 1500 0
DWIDTH 12 0
BBX 12 24 0 -4
BITMAP
0000
0000
0000
0000
0000
0000
0000
0000
0000
0000
7F80
7FC0
6060
6060
6060
6060
6060
6060
7FE0
7FE0
0000
0000
0000
0000
ENDCHAR
STARTCHAR HEBREW LETTER MEM
ENCODING 1502
SWIDTH 1500 0
DWIDTH 12 0
BBX 12 24 0 -4
BITMAP
0000
0000
0000
0000
0000
0000
0000
0000
0000
0000
6780
3FC0
1860
1860
3060
3060
3060
6060
67E0
67E0
0000
0000
0000
0000
ENDCHAR
STARTCHAR HEBREW LETTER FINAL NUN
ENCODING 1503
SWIDTH 1500 0
DWIDTH 12 0
BBX 12 24 0 -4
BITMAP
0000
0000
0000
0000
0000
0000
0000
0000
0000
0000
0600
0600
0600
0600
0600
0600
0600
0600
0600
0600
0600
0600
0600
0600
ENDCHAR
STARTCHAR HEBREW LETTER NUN
ENCODING 1504
SWIDTH 1500 0
DWIDTH 12 0
BBX 12 24 0 -4
BITMAP
0000
0000
0000
0000
0000
0000
0000
0000
0000
0000
7F80
7FC0
0060
0060
0060
0060
0060
0060
7FE0
7FE0
0000
0000
0000
0000
ENDCHAR
STARTCHAR HEBREW LETTER SAMEKH
ENCODING 1505
SWIDTH 1500 0
DWIDTH 12 0
BBX 12 24 0 -4
BITMAP
0000
0000
0000
0000
0000
0000
0000
0000
0000
0000
7F80
7FC0
6060
6060
6060
6060
6060
6060
3FC0
1F80
0000
0000
0000
0000
ENDCHAR
STARTCHAR HEBREW LETTER AYIN
ENCODING 1506
SWIDTH 1500 0
DWIDTH 12 0
BBX 12 24 0 -4
BITMAP
0000
0000
0000
0000
0000
0000
0000
0000
0000
0000
6060
6060
6060
3060
3060
3060
1860
1860
7FC0
7F80
0000
0000
0000
0000
ENDCHAR
STARTCHAR HEBREW LETTER FINAL PE
ENCODING 1507
SWIDTH 1500 0
DWIDTH 12 0
BBX 12 24 0 -4
BITMAP
0000
0000
0000
0000
0000
0000
0000
0000
0000
0000
7F80
7FC0
6060
6060
3E60
1E60
0060
0060
0060
0060
0060
0060
0060
0060
ENDCHAR
STARTCHAR HEBREW LETTER PE
ENCODING 1508
SWIDTH 1500 0
DWIDTH 12 0
BBX 12 24 0 -4
BITMAP
0000
0000
0000
0000
0000
0000
0000
0000
0000
0000
7F80
7FC0
6060
6060
3E60
1E60
0060
0060
7FC0
7F80
0000
0000
0000
0000
ENDCHAR
STARTCHAR HEBREW LETTER FINAL TSADI
ENCODING 1509
SWIDTH 1500 0
DWIDTH 12 0
BBX 12 24 0 -4
BITMAP
0000
0000
0000
0000
0000
0000
0000
0000
0000
0000
4060
6060
3060
1860
0FC0
0780
0600
0600
0600
0600
0600
0600
0600
0600
ENDCHAR
STARTCHAR HEBREW LETTER TSADI
ENCODING 1510
SWIDTH 1500 0
DWIDTH 12 0
BBX 12 24 0 -4
BITMAP
0000
0000
0000
0000
0000
0000
0000
0000
0000
0000
4060
6060
3060
18C0
0CC0
06C0
0380
0180
7FE0
7FE0
0000
0000
0000
0000
ENDCHAR
STARTCHAR HEBREW LETTER QOF
ENCODING 1511
SWIDTH 1500 0
DWIDTH 12 0
BBX 12 24 0 -4
BITMAP
0000
0000
0000
0000
0000
0000
0000
0000
0000
0000
7FE0
7FE0
0060
0060
6060
60C0
60C0
6180
6300
6600
6000
6000
6000
6000
ENDCHAR
ENDFONT
